<svg xmlns="http://www.w3.org/2000/svg" xmlns:xlink="http://www.w3.org/1999/xlink" width="108.914" height="108.914" viewBox="0 0 108.914 108.914">
  <defs>
    <filter id="Path_874925" x="0" y="0" width="108.914" height="108.914" filterUnits="userSpaceOnUse">
      <feOffset dy="3" input="SourceAlpha"/>
      <feGaussianBlur stdDeviation="3" result="blur"/>
      <feFlood flood-opacity="0.161"/>
      <feComposite operator="in" in2="blur"/>
      <feComposite in="SourceGraphic"/>
    </filter>
  </defs>
  <g id="Group_1181179" data-name="Group 1181179" transform="translate(-1112.708 -2511.157)">
    <g id="Group_1109819" data-name="Group 1109819" transform="translate(1121.708 2517.157)">
      <g transform="matrix(1, 0, 0, 1, -9, -6)" filter="url(#Path_874925)">
        <g id="Path_874925-2" data-name="Path 874925" transform="translate(9 6)" fill="#dcd7ba" opacity="0.859">
          <path d="M 45.45676803588867 89.41407012939453 C 39.52198028564453 89.41407012939453 33.76551818847656 88.25206756591797 28.34726715087891 85.96034240722656 C 23.11311721801758 83.74648284912109 18.41204261779785 80.57682800292969 14.37464332580566 76.5394287109375 C 10.33724308013916 72.50202941894531 7.167593002319336 67.80095672607422 4.953730583190918 62.56679534912109 C 2.662005424499512 57.14855575561523 1.500005483627319 51.39208221435547 1.500005483627319 45.45729446411133 C 1.500005483627319 39.52198028564453 2.662005424499512 33.76551818847656 4.953730583190918 28.34726905822754 C 7.167593002319336 23.11310577392578 10.33724308013916 18.41203117370605 14.37464332580566 14.37464332580566 C 18.41204261779785 10.33724403381348 23.11311721801758 7.167593955993652 28.34726715087891 4.953731060028076 C 33.76551818847656 2.662006139755249 39.52198028564453 1.500006198883057 45.45676803588867 1.500006198883057 C 51.39155578613281 1.500006198883057 57.14802932739258 2.662006139755249 62.56626892089844 4.953731060028076 C 67.80043029785156 7.167593955993652 72.50150299072266 10.33724403381348 76.53890228271484 14.37464332580566 C 80.57630920410156 18.41203117370605 83.74595642089844 23.11310577392578 85.95981597900391 28.34726905822754 C 88.25154113769531 33.76551818847656 89.41354370117188 39.52198028564453 89.41354370117188 45.45676803588867 C 89.41354370117188 51.39208221435547 88.25154113769531 57.14855575561523 85.95981597900391 62.56679534912109 C 83.74595642089844 67.80095672607422 80.57630920410156 72.50202941894531 76.53890228271484 76.5394287109375 C 72.50150299072266 80.57682800292969 67.80043029785156 83.74648284912109 62.56626892089844 85.96034240722656 C 57.14802932739258 88.25206756591797 51.39155578613281 89.41407012939453 45.45676803588867 89.41407012939453 Z" stroke="none"/>
          <path d="M 45.45676803588867 3 C 39.72381210327148 3 34.1639404296875 4.12213134765625 28.93159484863281 6.335227966308594 C 23.87622833251953 8.473472595214844 19.33542633056641 11.53517150878906 15.43529510498047 15.435302734375 C 11.53517150878906 19.33543395996094 8.473464965820312 23.87622833251953 6.335227966308594 28.93160247802734 C 4.122123718261719 34.16394424438477 3 39.72381591796875 3 45.4572868347168 C 3 51.19024658203125 4.122123718261719 56.75011825561523 6.335227966308594 61.98246002197266 C 8.473464965820312 67.03782653808594 11.53517150878906 71.57862854003906 15.43529510498047 75.478759765625 C 19.33542633056641 79.37889099121094 23.87622833251953 82.44058990478516 28.93159484863281 84.57883453369141 C 34.1639404296875 86.79193115234375 39.72381210327148 87.9140625 45.45676803588867 87.9140625 C 51.18972396850586 87.9140625 56.74959564208984 86.79193115234375 61.98194122314453 84.57883453369141 C 67.03730773925781 82.44058990478516 71.57810974121094 79.37889099121094 75.47824096679688 75.478759765625 C 79.37837219238281 71.57862854003906 82.44007110595703 67.03782653808594 84.57830810546875 61.98246002197266 C 86.79141235351562 56.75011825561523 87.91353607177734 51.19024658203125 87.91353607177734 45.4567756652832 C 87.91353607177734 39.72381591796875 86.79141235351562 34.16394424438477 84.57830810546875 28.93160247802734 C 82.44007110595703 23.87622833251953 79.37837219238281 19.33543395996094 75.47824096679688 15.435302734375 C 71.57810974121094 11.53517150878906 67.03730773925781 8.473472595214844 61.98194122314453 6.335227966308594 C 56.74959564208984 4.12213134765625 51.18972396850586 3 45.45676803588867 3 M 45.45676803588867 0 C 70.56185150146484 0 90.91353607177734 20.35169219970703 90.91353607177734 45.4567756652832 L 90.91353607177734 45.4572868347168 C 90.91353607177734 70.5623779296875 70.56185150146484 90.9140625 45.45676803588867 90.9140625 C 20.3516845703125 90.9140625 0 70.5623779296875 0 45.4572868347168 L 0 45.4567756652832 C 0 20.35169219970703 20.3516845703125 0 45.45676803588867 0 Z" stroke="none" fill="#fff"/>
        </g>
      </g>
      <g id="Path_874923" data-name="Path 874923" transform="translate(0 0)" fill="none">
        <path d="M45.457,0A45.457,45.457,0,0,1,90.914,45.457h0A45.457,45.457,0,0,1,0,45.457H0A45.457,45.457,0,0,1,45.457,0Z" stroke="none"/>
        <path d="M 45.45676803588867 3 C 39.72381210327148 3 34.1639404296875 4.12213134765625 28.93159484863281 6.335227966308594 C 23.87622833251953 8.473472595214844 19.33542633056641 11.53517150878906 15.43529510498047 15.435302734375 C 11.53517150878906 19.33543395996094 8.473464965820312 23.87622833251953 6.335227966308594 28.93160247802734 C 4.122123718261719 34.16394424438477 3 39.72381591796875 3 45.4572868347168 C 3 51.19024658203125 4.122123718261719 56.75011825561523 6.335227966308594 61.98246002197266 C 8.473464965820312 67.03782653808594 11.53517150878906 71.57862854003906 15.43529510498047 75.478759765625 C 19.33542633056641 79.37889099121094 23.87622833251953 82.44058990478516 28.93159484863281 84.57883453369141 C 34.1639404296875 86.79193115234375 39.72381210327148 87.9140625 45.45676803588867 87.9140625 C 51.18972396850586 87.9140625 56.74959564208984 86.79193115234375 61.98194122314453 84.57883453369141 C 67.03730773925781 82.44058990478516 71.57810974121094 79.37889099121094 75.47824096679688 75.478759765625 C 79.37837219238281 71.57862854003906 82.44007110595703 67.03782653808594 84.57830810546875 61.98246002197266 C 86.79141235351562 56.75011825561523 87.91353607177734 51.19024658203125 87.91353607177734 45.4567756652832 C 87.91353607177734 39.72381591796875 86.79141235351562 34.16394424438477 84.57830810546875 28.93160247802734 C 82.44007110595703 23.87622833251953 79.37837219238281 19.33543395996094 75.47824096679688 15.435302734375 C 71.57810974121094 11.53517150878906 67.03730773925781 8.473472595214844 61.98194122314453 6.335227966308594 C 56.74959564208984 4.12213134765625 51.18972396850586 3 45.45676803588867 3 M 45.45676803588867 0 C 70.56185150146484 0 90.91353607177734 20.35169219970703 90.91353607177734 45.4567756652832 L 90.91353607177734 45.4572868347168 C 90.91353607177734 70.5623779296875 70.56185150146484 90.9140625 45.45676803588867 90.9140625 C 20.3516845703125 90.9140625 0 70.5623779296875 0 45.4572868347168 L 0 45.4567756652832 C 0 20.35169219970703 20.3516845703125 0 45.45676803588867 0 Z" stroke="none" fill="#fff"/>
      </g>
    </g>
    <g id="Group_1181194" data-name="Group 1181194" transform="translate(1137.525 2532.866)">
      <g id="Group_1181195" data-name="Group 1181195">
        <path id="Path_1032069" data-name="Path 1032069" d="M18.7,111.3c1.247-.855,2.451-1.721,3.695-2.525a17.8,17.8,0,0,1,5.545-2.624,6.259,6.259,0,0,1,1.714-.2c2.984.153,5.966.347,8.948.535.981.062,1.96.2,2.941.216a2.85,2.85,0,0,1,2.5,4.03,14.043,14.043,0,0,1-.867,1.569c1.437,0,2.859.087,4.267-.018a37.16,37.16,0,0,0,9.636-1.949c.741-.261,1.44-.645,2.186-.883a2.518,2.518,0,0,1,2.864.971,2.932,2.932,0,0,1,.1,3.31,3.784,3.784,0,0,1-1.847,1.515c-5.214,2.039-10.435,4.059-15.648,6.1a5.528,5.528,0,0,1-4.72-.442,13.711,13.711,0,0,0-6.259-1.584,11.65,11.65,0,0,0-8.485,2.984.625.625,0,0,0-.15.922c.508.86.957,1.755,1.429,2.635.389.727.331.95-.378,1.334q-2.433,1.315-4.872,2.619c-.689.369-.9.3-1.273-.39q-4.5-8.345-9.006-16.691c-.2-.372-.4-.744-.6-1.117a.665.665,0,0,1,.294-1.018q2.614-1.409,5.23-2.815a.676.676,0,0,1,1.042.34c.565,1.066,1.145,2.125,1.714,3.178m5.518,10.3c.351-.314.637-.6.956-.849,3.441-2.652,7.362-3.16,11.474-2.33a27.442,27.442,0,0,1,4.619,1.689,3.845,3.845,0,0,0,2.956.093c5.221-2.03,10.451-4.036,15.66-6.1a3.343,3.343,0,0,0,1.3-1.083,1.582,1.582,0,0,0-.126-1.971,1.4,1.4,0,0,0-1.831-.277c-.706.295-1.41.6-2.133.848a37.326,37.326,0,0,1-10.259,1.925,14.206,14.206,0,0,1-4.022-.23,24.354,24.354,0,0,0-5.721-.436c-1.815-.006-3.63,0-5.445,0-.443,0-.831-.076-.819-.642.012-.548.419-.578.819-.578q4.431-.006,8.862,0c.231,0,.464,0,.694-.024A1.921,1.921,0,0,0,43,109.4c-.035-.985-.649-1.452-1.861-1.5-1.154-.051-2.3-.173-3.458-.249-2.441-.162-4.883-.314-7.325-.471a8.341,8.341,0,0,0-4.737,1.18c-1.466.838-2.895,1.742-4.317,2.652-.69.441-1.329.962-2,1.457l4.927,9.135m1.135,4.643L16.11,109.1l-4.371,2.36L20.983,128.6l4.374-2.359" transform="translate(-6.976 -71.761)" fill="#0e0c0d"/>
        <path id="Path_1032070" data-name="Path 1032070" d="M46.222,45.061l3.2,2.575c.12.1.239.195.361.288.309.238.593.517.288.91s-.639.174-.942-.072q-1.257-1.021-2.522-2.034c-.374-.3-.75-.6-.948-.757a23.717,23.717,0,0,1-2.387.48,16.349,16.349,0,0,1-7.128-.653,10.742,10.742,0,0,1-6.677-6.875,30.468,30.468,0,0,1-1.154-4.39,2.255,2.255,0,0,1,2.063-2.888,17.589,17.589,0,0,1,7.67.424A10.564,10.564,0,0,1,44.7,38.14a18.828,18.828,0,0,1,1.513,5.237,12.384,12.384,0,0,1,.012,1.683m-.987-.752.176-.077c-.387-1.489-.675-3.012-1.183-4.459a10.02,10.02,0,0,0-4.94-6.046c-2.84-1.422-5.822-1.416-8.851-1.061a1.14,1.14,0,0,0-1.1,1.461,29.943,29.943,0,0,0,1.189,4.658,9.562,9.562,0,0,0,6.05,6.084,17.358,17.358,0,0,0,6.511.588c.533-.028,1.061-.143,1.687-.232-1.78-1.433-3.46-2.785-5.139-4.138q-2.858-2.3-5.713-4.612c-.257-.208-.474-.449-.2-.775s.565-.206.853.027q3.532,2.85,7.072,5.69l3.592,2.89" transform="translate(-19.133 -21.281)" fill="#0c0d0c"/>
        <path id="Path_1032071" data-name="Path 1032071" d="M101.547,14.5a12.5,12.5,0,0,1-2.574,7.116c-.714,1-1.567,1.9-2.366,2.843a1.051,1.051,0,0,1-.443.362c-.78.211-.769.783-.749,1.423.033,1.1.034,2.2-.009,3.3a1.044,1.044,0,0,1-.392.738c-.334.217-.679-.147-.683-.708-.009-1.293-.015-2.587.005-3.881.005-.35-.134-.487-.414-.7A11.632,11.632,0,0,1,92.1,23.331a15.248,15.248,0,0,1-3.617-6.671A10.62,10.62,0,0,1,89.71,9.144a19.41,19.41,0,0,1,3.517-4.635,2.233,2.233,0,0,1,3.177-.1,16.256,16.256,0,0,1,4.891,8.147c.137.637.17,1.3.251,1.945m-6.193,9.773A20.374,20.374,0,0,0,99.2,19.3a9.5,9.5,0,0,0,1.033-6.735,15.3,15.3,0,0,0-4.524-7.369,1.206,1.206,0,0,0-1.761.073A17.711,17.711,0,0,0,90.3,10.28a9.491,9.491,0,0,0-.9,5.655,12.654,12.654,0,0,0,2.7,5.777c.672.872,1.443,1.668,2.17,2.5l.131-.082v-.562q0-6.342,0-12.684c0-.174-.055-.384.023-.512A.78.78,0,0,1,94.9,10c.134-.013.34.2.426.357a1.165,1.165,0,0,1,.028.513q0,4.083,0,8.167v5.241" transform="translate(-59.775 -2.57)" fill="#0d0d0e"/>
        <path id="Path_1032072" data-name="Path 1032072" d="M140.99,38.434a11.44,11.44,0,0,1-.715,4.356c-1.062,2.862-3.284,4.365-6.113,5.1a24.248,24.248,0,0,1-2.785.462,1.658,1.658,0,0,1-.849-.075.837.837,0,0,0-1.111.308c-.9,1.029-1.86,2.011-2.792,3.014-.249.268-.524.537-.88.222s-.174-.648.1-.945c1.04-1.114,2.084-2.225,3.1-3.36a1.043,1.043,0,0,0,.217-.691,14.58,14.58,0,0,1,.51-5.2,8.074,8.074,0,0,1,6.188-5.612,18.4,18.4,0,0,1,3.241-.48,1.744,1.744,0,0,1,1.884,1.807c.009.367,0,.733,0,1.1m-10.366,8.823.044.185c1.128-.193,2.276-.309,3.379-.6a7.183,7.183,0,0,0,4.873-3.562,11.385,11.385,0,0,0,1.017-6.059.668.668,0,0,0-.784-.665,16.539,16.539,0,0,0-2.169.246c-3.833.81-5.7,2.449-6.588,6.162a20.63,20.63,0,0,0-.276,3.147l.179.017q2.539-2.732,5.079-5.463c.157-.169.293-.392.488-.482a.679.679,0,0,1,.6.024c.121.106.118.394.1.6-.008.112-.141.222-.232.32-.683.734-1.372,1.464-2.055,2.2q-1.831,1.965-3.659,3.934" transform="translate(-85.037 -24.062)" fill="#0d0e0d"/>
        <path id="Path_1032073" data-name="Path 1032073" d="M43.109,124.149l-4.927-9.135c.676-.495,1.315-1.016,2-1.457,1.423-.91,2.851-1.815,4.317-2.652a8.341,8.341,0,0,1,4.737-1.18c2.442.157,4.884.309,7.325.471,1.153.076,2.3.2,3.459.249,1.211.053,1.825.519,1.861,1.5a1.921,1.921,0,0,1-1.8,2.234c-.23.021-.463.024-.694.024q-4.431,0-8.862,0c-.4,0-.807.03-.819.578-.013.566.376.642.819.642,1.815,0,3.63-.005,5.445,0a24.319,24.319,0,0,1,5.721.436,14.217,14.217,0,0,0,4.022.23,37.343,37.343,0,0,0,10.26-1.926c.722-.249,1.427-.553,2.133-.848a1.4,1.4,0,0,1,1.831.277,1.582,1.582,0,0,1,.126,1.971,3.35,3.35,0,0,1-1.3,1.084c-5.209,2.059-10.439,4.066-15.66,6.1a3.848,3.848,0,0,1-2.956-.093,27.444,27.444,0,0,0-4.619-1.689c-4.112-.83-8.032-.322-11.474,2.33-.319.246-.6.535-.956.849" transform="translate(-25.863 -74.313)" fill="#e4a28e"/>
        <path id="Path_1032074" data-name="Path 1032074" d="M28.381,132.862l-4.374,2.359-9.244-17.144,4.371-2.36,9.247,17.145" transform="translate(-10 -78.382)" fill="#ea6518"/>
        <path id="Path_1032075" data-name="Path 1032075" d="M47.448,46.511l-3.592-2.89q-3.537-2.845-7.072-5.69c-.288-.233-.577-.356-.853-.027s-.057.567.2.775q2.856,2.307,5.713,4.612c1.679,1.353,3.36,2.705,5.139,4.138-.626.089-1.154.2-1.687.232a17.359,17.359,0,0,1-6.511-.588,9.562,9.562,0,0,1-6.05-6.084,29.944,29.944,0,0,1-1.189-4.658,1.14,1.14,0,0,1,1.1-1.461c3.029-.356,6.011-.361,8.851,1.061a10.02,10.02,0,0,1,4.94,6.046c.508,1.447.8,2.971,1.183,4.459l-.176.077" transform="translate(-21.345 -23.483)" fill="#75ac3a"/>
        <path id="Path_1032076" data-name="Path 1032076" d="M97.542,26.48V21.239q0-4.083,0-8.167a1.165,1.165,0,0,0-.028-.513c-.086-.159-.292-.37-.426-.357a.78.78,0,0,0-.478.373c-.078.128-.023.338-.023.512q0,6.342,0,12.684v.562l-.131.082c-.726-.83-1.5-1.626-2.17-2.5a12.654,12.654,0,0,1-2.7-5.777,9.491,9.491,0,0,1,.9-5.655,17.711,17.711,0,0,1,3.651-5.015A1.206,1.206,0,0,1,97.9,7.4a15.3,15.3,0,0,1,4.524,7.369,9.5,9.5,0,0,1-1.033,6.735,20.374,20.374,0,0,1-3.849,4.98" transform="translate(-61.963 -4.774)" fill="#76ab3a"/>
        <path id="Path_1032077" data-name="Path 1032077" d="M140.231,49.425q1.829-1.967,3.659-3.934c.684-.734,1.372-1.463,2.055-2.2.091-.1.225-.208.232-.32.014-.2.017-.492-.1-.6a.679.679,0,0,0-.6-.024c-.2.09-.331.313-.488.482q-2.54,2.731-5.079,5.463l-.179-.017A20.628,20.628,0,0,1,140,45.134c.89-3.713,2.755-5.352,6.588-6.162a16.541,16.541,0,0,1,2.169-.246.668.668,0,0,1,.784.665,11.385,11.385,0,0,1-1.017,6.059,7.184,7.184,0,0,1-4.873,3.562c-1.1.288-2.251.4-3.379.6l-.044-.185" transform="translate(-94.645 -26.23)" fill="#76ac3a"/>
      </g>
    </g>
  </g>
</svg>
