<svg xmlns="http://www.w3.org/2000/svg" xmlns:xlink="http://www.w3.org/1999/xlink" width="108.914" height="108.914" viewBox="0 0 108.914 108.914">
  <defs>
    <filter id="Path_874925" x="0" y="0" width="108.914" height="108.914" filterUnits="userSpaceOnUse">
      <feOffset dy="3" input="SourceAlpha"/>
      <feGaussianBlur stdDeviation="3" result="blur"/>
      <feFlood flood-opacity="0.161"/>
      <feComposite operator="in" in2="blur"/>
      <feComposite in="SourceGraphic"/>
    </filter>
    <clipPath id="clip-path">
      <rect id="Rectangle_415707" data-name="Rectangle 415707" width="56.906" height="56.906" fill="none"/>
    </clipPath>
  </defs>
  <g id="Group_1181036" data-name="Group 1181036" transform="translate(-798.427 -2511.157)">
    <g id="Group_1109818" data-name="Group 1109818" transform="translate(807.427 2517.157)">
      <g transform="matrix(1, 0, 0, 1, -9, -6)" filter="url(#Path_874925)">
        <g id="Path_874925-2" data-name="Path 874925" transform="translate(9 6)" fill="#dcd7ba" opacity="0.859">
          <path d="M 45.45676803588867 89.41407012939453 C 39.52198028564453 89.41407012939453 33.76551818847656 88.25206756591797 28.34726715087891 85.96034240722656 C 23.11311721801758 83.74648284912109 18.41204261779785 80.57682800292969 14.37464332580566 76.5394287109375 C 10.33724308013916 72.50202941894531 7.167593002319336 67.80095672607422 4.953730583190918 62.56679534912109 C 2.662005424499512 57.14855575561523 1.500005483627319 51.39208221435547 1.500005483627319 45.45729446411133 C 1.500005483627319 39.52198028564453 2.662005424499512 33.76551818847656 4.953730583190918 28.34726905822754 C 7.167593002319336 23.11310577392578 10.33724308013916 18.41203117370605 14.37464332580566 14.37464332580566 C 18.41204261779785 10.33724403381348 23.11311721801758 7.167593955993652 28.34726715087891 4.953731060028076 C 33.76551818847656 2.662006139755249 39.52198028564453 1.500006198883057 45.45676803588867 1.500006198883057 C 51.39155578613281 1.500006198883057 57.14802932739258 2.662006139755249 62.56626892089844 4.953731060028076 C 67.80043029785156 7.167593955993652 72.50150299072266 10.33724403381348 76.53890228271484 14.37464332580566 C 80.57630920410156 18.41203117370605 83.74595642089844 23.11310577392578 85.95981597900391 28.34726905822754 C 88.25154113769531 33.76551818847656 89.41354370117188 39.52198028564453 89.41354370117188 45.45676803588867 C 89.41354370117188 51.39208221435547 88.25154113769531 57.14855575561523 85.95981597900391 62.56679534912109 C 83.74595642089844 67.80095672607422 80.57630920410156 72.50202941894531 76.53890228271484 76.5394287109375 C 72.50150299072266 80.57682800292969 67.80043029785156 83.74648284912109 62.56626892089844 85.96034240722656 C 57.14802932739258 88.25206756591797 51.39155578613281 89.41407012939453 45.45676803588867 89.41407012939453 Z" stroke="none"/>
          <path d="M 45.45676803588867 3 C 39.72381210327148 3 34.1639404296875 4.12213134765625 28.93159484863281 6.335227966308594 C 23.87622833251953 8.473472595214844 19.33542633056641 11.53517150878906 15.43529510498047 15.435302734375 C 11.53517150878906 19.33543395996094 8.473464965820312 23.87622833251953 6.335227966308594 28.93160247802734 C 4.122123718261719 34.16394424438477 3 39.72381591796875 3 45.4572868347168 C 3 51.19024658203125 4.122123718261719 56.75011825561523 6.335227966308594 61.98246002197266 C 8.473464965820312 67.03782653808594 11.53517150878906 71.57862854003906 15.43529510498047 75.478759765625 C 19.33542633056641 79.37889099121094 23.87622833251953 82.44058990478516 28.93159484863281 84.57883453369141 C 34.1639404296875 86.79193115234375 39.72381210327148 87.9140625 45.45676803588867 87.9140625 C 51.18972396850586 87.9140625 56.74959564208984 86.79193115234375 61.98194122314453 84.57883453369141 C 67.03730773925781 82.44058990478516 71.57810974121094 79.37889099121094 75.47824096679688 75.478759765625 C 79.37837219238281 71.57862854003906 82.44007110595703 67.03782653808594 84.57830810546875 61.98246002197266 C 86.79141235351562 56.75011825561523 87.91353607177734 51.19024658203125 87.91353607177734 45.4567756652832 C 87.91353607177734 39.72381591796875 86.79141235351562 34.16394424438477 84.57830810546875 28.93160247802734 C 82.44007110595703 23.87622833251953 79.37837219238281 19.33543395996094 75.47824096679688 15.435302734375 C 71.57810974121094 11.53517150878906 67.03730773925781 8.473472595214844 61.98194122314453 6.335227966308594 C 56.74959564208984 4.12213134765625 51.18972396850586 3 45.45676803588867 3 M 45.45676803588867 0 C 70.56185150146484 0 90.91353607177734 20.35169219970703 90.91353607177734 45.4567756652832 L 90.91353607177734 45.4572868347168 C 90.91353607177734 70.5623779296875 70.56185150146484 90.9140625 45.45676803588867 90.9140625 C 20.3516845703125 90.9140625 0 70.5623779296875 0 45.4572868347168 L 0 45.4567756652832 C 0 20.35169219970703 20.3516845703125 0 45.45676803588867 0 Z" stroke="none" fill="#fff"/>
        </g>
      </g>
      <g id="Path_874923" data-name="Path 874923" transform="translate(0 0)" fill="none">
        <path d="M45.457,0A45.457,45.457,0,0,1,90.914,45.457h0A45.457,45.457,0,0,1,0,45.457H0A45.457,45.457,0,0,1,45.457,0Z" stroke="none"/>
        <path d="M 45.45676803588867 3 C 39.72381210327148 3 34.1639404296875 4.12213134765625 28.93159484863281 6.335227966308594 C 23.87622833251953 8.473472595214844 19.33542633056641 11.53517150878906 15.43529510498047 15.435302734375 C 11.53517150878906 19.33543395996094 8.473464965820312 23.87622833251953 6.335227966308594 28.93160247802734 C 4.122123718261719 34.16394424438477 3 39.72381591796875 3 45.4572868347168 C 3 51.19024658203125 4.122123718261719 56.75011825561523 6.335227966308594 61.98246002197266 C 8.473464965820312 67.03782653808594 11.53517150878906 71.57862854003906 15.43529510498047 75.478759765625 C 19.33542633056641 79.37889099121094 23.87622833251953 82.44058990478516 28.93159484863281 84.57883453369141 C 34.1639404296875 86.79193115234375 39.72381210327148 87.9140625 45.45676803588867 87.9140625 C 51.18972396850586 87.9140625 56.74959564208984 86.79193115234375 61.98194122314453 84.57883453369141 C 67.03730773925781 82.44058990478516 71.57810974121094 79.37889099121094 75.47824096679688 75.478759765625 C 79.37837219238281 71.57862854003906 82.44007110595703 67.03782653808594 84.57830810546875 61.98246002197266 C 86.79141235351562 56.75011825561523 87.91353607177734 51.19024658203125 87.91353607177734 45.4567756652832 C 87.91353607177734 39.72381591796875 86.79141235351562 34.16394424438477 84.57830810546875 28.93160247802734 C 82.44007110595703 23.87622833251953 79.37837219238281 19.33543395996094 75.47824096679688 15.435302734375 C 71.57810974121094 11.53517150878906 67.03730773925781 8.473472595214844 61.98194122314453 6.335227966308594 C 56.74959564208984 4.12213134765625 51.18972396850586 3 45.45676803588867 3 M 45.45676803588867 0 C 70.56185150146484 0 90.91353607177734 20.35169219970703 90.91353607177734 45.4567756652832 L 90.91353607177734 45.4572868347168 C 90.91353607177734 70.5623779296875 70.56185150146484 90.9140625 45.45676803588867 90.9140625 C 20.3516845703125 90.9140625 0 70.5623779296875 0 45.4572868347168 L 0 45.4567756652832 C 0 20.35169219970703 20.3516845703125 0 45.45676803588867 0 Z" stroke="none" fill="#fff"/>
      </g>
    </g>
    <g id="Group_1181187" data-name="Group 1181187" transform="translate(824.43 2534.161)">
      <g id="Group_1181186" data-name="Group 1181186" transform="translate(0 0)" clip-path="url(#clip-path)">
        <path id="Path_1032027" data-name="Path 1032027" d="M65.4,65.9a1.068,1.068,0,0,0-.129.211,3.087,3.087,0,0,1-2.175,2.1A7.967,7.967,0,0,0,58.433,71.7a16.506,16.506,0,0,1-3.9,4.136,9.9,9.9,0,0,1-10.853,1.187,16.813,16.813,0,0,1-7.135-6.354c-.189-.294-.358-.6-.553-.892a2.479,2.479,0,0,0-3.89-.7,10.581,10.581,0,0,0-2.545,2.958,13.756,13.756,0,0,1-6.215,5.553,6.689,6.689,0,0,1-5.068.075,3.623,3.623,0,0,1-1-6.332,4.666,4.666,0,0,1,1.368-.814,14.684,14.684,0,0,0,6.075-4.389,31.877,31.877,0,0,1,2.949-3A9.466,9.466,0,0,1,35.044,61,10.349,10.349,0,0,1,42.9,66.114a19.3,19.3,0,0,0,2.6,3.216c1.411,1.4,2.925,1.092,4.19-.439a79.306,79.306,0,0,1,5.523-6.123,8.166,8.166,0,0,1,6-2.417,4.126,4.126,0,0,1,4.082,3.444.959.959,0,0,0,.106.221Zm-7.268,3.865a9.508,9.508,0,0,1,4.591-2.854,1.915,1.915,0,0,0,1.3-1.389,3.162,3.162,0,0,0-3.508-3.91c-2.87.369-4.783,2.24-6.567,4.318l4.179,3.835M53,66.828c-.924,1.171-1.817,2.3-2.7,3.432a.459.459,0,0,0-.068.391c.79,1.591,1.6,3.173,2.413,4.784a15.965,15.965,0,0,0,4.726-4.573L53,66.828m-10.774.9c-.773,1.452-1.582,2.952-2.358,4.469a.649.649,0,0,0,.127.59,16.8,16.8,0,0,0,1.829,1.6c.809.577,1.687,1.057,2.645,1.647.057-.584.094-.981.134-1.378.126-1.262.259-2.524.373-3.787a.561.561,0,0,0-.141-.384c-.849-.911-1.712-1.811-2.609-2.755m-6.86-.273c.329-1.571.655-3.09.952-4.615a.459.459,0,0,0-.258-.366,8.482,8.482,0,0,0-4.884.22.485.485,0,0,0-.236.389c.082,1.083.193,2.164.3,3.244.051.507.118,1.012.184,1.578a3.9,3.9,0,0,1,3.941-.45m3.384,4C39.573,69.93,40.3,68.5,41.11,67.1A1.057,1.057,0,0,0,41,65.658a9.654,9.654,0,0,0-3.375-2.634c-.289,1.378-.519,2.713-.86,4.019a1.929,1.929,0,0,0,.473,2.171,3.574,3.574,0,0,1,.436.7c.329.486.669.965,1.076,1.549m6.994,4.926a7.445,7.445,0,0,0,5.737-.348l-2.37-4.693-2.893.152c-.149,1.533-.31,3.2-.474,4.889M20.988,70.9a23.287,23.287,0,0,0-2.832,1.446,2.231,2.231,0,0,0,.134,3.832,5.2,5.2,0,0,0,4.627.188L20.988,70.9m1.189-.533,1.932,5.477c.676-.55,1.249-1.07,1.876-1.515a1.844,1.844,0,0,0,.622-2.83.557.557,0,0,1-.031-.105c-.463-1.245-.926-2.489-1.4-3.75l-3,2.724m5.935,1.417c.577-.812,1.082-1.58,1.651-2.3a1.19,1.19,0,0,0,.384-1.161,8.907,8.907,0,0,1-.134-1.425c-.114-1.16-.235-2.318-.355-3.493a1.12,1.12,0,0,0-.2.062,13.9,13.9,0,0,0-3.164,2.9.4.4,0,0,0-.044.341c.61,1.679,1.232,3.354,1.867,5.072" transform="translate(-8.494 -32.401)" fill="#0c0a0b"/>
        <path id="Path_1032028" data-name="Path 1032028" d="M39.816,40.274a7.69,7.69,0,0,1-4.991-2.079,18.67,18.67,0,0,1-3.2-3.726A10.346,10.346,0,0,0,29.6,32.233a2.032,2.032,0,0,0-3.188.562c-.7.974-1.316,2.014-2.1,2.913a13,13,0,0,1-7.14,4.355,7.9,7.9,0,0,1-5.8-.9,15.152,15.152,0,0,1-4.883-4.508,7.027,7.027,0,0,0-3.077-2.775,5.059,5.059,0,0,0-.672-.245c-2.458-.566-3.061-2.912-2.2-4.927s2.837-2.8,5.19-2.149A8.463,8.463,0,0,1,9.744,26.9c1.609,1.728,3.155,3.515,4.681,5.317a2.185,2.185,0,0,0,3.087.436,11.518,11.518,0,0,0,2.663-3.157,9.069,9.069,0,0,1,9.011-4.531,8.612,8.612,0,0,1,5.485,2.709c.965,1,1.923,2,2.856,3.022a10.346,10.346,0,0,0,3.864,2.592,5.857,5.857,0,0,1,1.925,1.238,3.167,3.167,0,0,1-.891,5.152,15.67,15.67,0,0,1-2.565.746l-.043-.148M10.425,29.281c-.56-.5-1.1-.978-1.627-1.459a8.083,8.083,0,0,0-3.7-2.067A2.714,2.714,0,0,0,1.6,27.687,1.9,1.9,0,0,0,2.71,30.229a8.192,8.192,0,0,1,3.977,2.488l3.738-3.437m3.3,4.127-2.493-3.089L7.478,33.792a13.225,13.225,0,0,0,4.058,3.921l2.184-4.305m7.073-2.261c-.778.815-1.513,1.582-2.241,2.355a.421.421,0,0,0-.118.286c.14,1.437.292,2.873.446,4.358a12.778,12.778,0,0,0,4.07-2.96l-2.158-4.04m6.1-.634a9.629,9.629,0,0,1,1.773-.112,9.059,9.059,0,0,1,1.645.521c.138-1.43.274-2.846.411-4.263a8.09,8.09,0,0,0-4.641-.174c.281,1.391.551,2.73.813,4.027M14.732,34.3,12.7,38.3A6.49,6.49,0,0,0,17,38.779c.472-.076.758-.235.536-.78a1.445,1.445,0,0,1-.024-.384c-.109-1.092-.22-2.183-.32-3.178L14.732,34.3m10.1-7.352a7.827,7.827,0,0,0-3.044,2.523.644.644,0,0,0-.119.528c.7,1.366,1.436,2.715,2.214,4.168.5-.749.908-1.448,1.405-2.075A1.451,1.451,0,0,0,25.62,30.7c-.3-1.223-.523-2.466-.788-3.753M37.993,38.576a4.91,4.91,0,0,0,3.613.013,1.958,1.958,0,0,0,1.3-1.638,1.921,1.921,0,0,0-1.012-1.941c-.708-.4-1.475-.705-2.269-1.076l-1.633,4.642m.46-5.22-2.538-2.312c-.552,1.484-1.1,2.94-1.629,4.4a.424.424,0,0,0,.036.358,10.221,10.221,0,0,0,2.507,2.179l1.625-4.626m-6.47-6.14c-.161,1.631-.309,3.126-.457,4.622,0,.019-.013.038-.008.054a.96.96,0,0,0,.1.3c.539.719,1.088,1.431,1.664,2.186.287-.774.589-1.554.865-2.341.25-.714.785-1.519.622-2.133-.178-.672-.993-1.19-1.565-1.738a15.074,15.074,0,0,0-1.222-.952" transform="translate(-0.092 -13.068)" fill="#0c0a0b"/>
        <path id="Path_1032029" data-name="Path 1032029" d="M102.34,71.195,98.161,67.36c1.784-2.078,3.7-3.949,6.567-4.318a3.162,3.162,0,0,1,3.508,3.91,1.916,1.916,0,0,1-1.3,1.389,9.509,9.509,0,0,0-4.591,2.854M104.447,67a1.45,1.45,0,1,0,.06-2.9,1.338,1.338,0,0,0-1.443,1.443A1.355,1.355,0,0,0,104.447,67" transform="translate(-52.702 -33.83)" fill="#e66666"/>
        <path id="Path_1032030" data-name="Path 1032030" d="M92.875,74.341l4.374,4.035a15.965,15.965,0,0,1-4.726,4.573c-.816-1.611-1.623-3.194-2.413-4.784a.456.456,0,0,1,.068-.391c.88-1.136,1.773-2.261,2.7-3.432" transform="translate(-48.369 -39.913)" fill="#cb5054"/>
        <path id="Path_1032031" data-name="Path 1032031" d="M70.074,76.288c.9.944,1.759,1.844,2.609,2.755a.562.562,0,0,1,.141.384c-.114,1.263-.246,2.525-.373,3.787-.04.4-.077.793-.134,1.378-.958-.59-1.836-1.07-2.645-1.647a16.792,16.792,0,0,1-1.829-1.6.65.65,0,0,1-.127-.591c.775-1.517,1.585-3.017,2.358-4.469" transform="translate(-36.341 -40.959)" fill="#cb5054"/>
        <path id="Path_1032032" data-name="Path 1032032" d="M52.9,69.628a3.9,3.9,0,0,0-3.941.45c-.066-.566-.133-1.071-.184-1.578-.109-1.08-.219-2.161-.3-3.244a.485.485,0,0,1,.236-.389,8.486,8.486,0,0,1,4.884-.22.46.46,0,0,1,.258.366c-.3,1.525-.623,3.044-.952,4.615" transform="translate(-26.023 -34.571)" fill="#cb5054"/>
        <path id="Path_1032033" data-name="Path 1032033" d="M62.882,74.564c-.408-.585-.747-1.063-1.076-1.549a3.6,3.6,0,0,0-.436-.7,1.929,1.929,0,0,1-.473-2.171c.341-1.306.571-2.641.86-4.019a9.654,9.654,0,0,1,3.375,2.634,1.058,1.058,0,0,1,.109,1.445c-.8,1.392-1.537,2.827-2.359,4.358" transform="translate(-32.625 -35.504)" fill="#e66666"/>
        <path id="Path_1032034" data-name="Path 1032034" d="M80.437,89.137c.164-1.694.325-3.357.474-4.889L83.8,84.1c.744,1.471,1.551,3.071,2.37,4.693a7.442,7.442,0,0,1-5.736.348" transform="translate(-43.186 -45.151)" fill="#e66666"/>
        <path id="Path_1032035" data-name="Path 1032035" d="M22.508,83.132c.658,1.864,1.284,3.636,1.929,5.466a5.206,5.206,0,0,1-4.627-.188,2.231,2.231,0,0,1-.134-3.832,23.287,23.287,0,0,1,2.832-1.446" transform="translate(-10.014 -44.633)" fill="#e66666"/>
        <path id="Path_1032036" data-name="Path 1032036" d="M29.546,78.825l3-2.724,1.395,3.751a.556.556,0,0,0,.031.105,1.845,1.845,0,0,1-.622,2.83c-.627.445-1.2.965-1.876,1.515l-1.932-5.477" transform="translate(-15.863 -40.858)" fill="#cb5054"/>
        <path id="Path_1032037" data-name="Path 1032037" d="M40.175,75.332c-.635-1.718-1.257-3.393-1.867-5.072a.4.4,0,0,1,.044-.341,13.9,13.9,0,0,1,3.164-2.9,1.12,1.12,0,0,1,.2-.062c.12,1.175.241,2.334.355,3.493a8.907,8.907,0,0,0,.134,1.425,1.19,1.19,0,0,1-.384,1.161c-.569.717-1.073,1.485-1.651,2.3" transform="translate(-20.557 -35.949)" fill="#e66666"/>
        <path id="Path_1032038" data-name="Path 1032038" d="M11.949,30.807,8.211,34.244a8.2,8.2,0,0,0-3.977-2.488,1.9,1.9,0,0,1-1.106-2.542,2.715,2.715,0,0,1,3.489-1.933,8.084,8.084,0,0,1,3.7,2.068c.531.481,1.067.957,1.627,1.459m-5.624-.119a1.321,1.321,0,0,0,1.389-1.375,1.37,1.37,0,1,0-2.74.018,1.317,1.317,0,0,0,1.351,1.357" transform="translate(-1.616 -14.594)" fill="#e66666"/>
        <path id="Path_1032039" data-name="Path 1032039" d="M22.19,40.34l-2.184,4.305a13.225,13.225,0,0,1-4.058-3.921L19.7,37.251,22.19,40.34" transform="translate(-8.562 -20)" fill="#cb5054"/>
        <path id="Path_1032040" data-name="Path 1032040" d="M41.965,39.04l2.157,4.04a12.759,12.759,0,0,1-4.07,2.96c-.154-1.485-.306-2.921-.446-4.358a.423.423,0,0,1,.118-.286c.728-.774,1.464-1.541,2.241-2.355" transform="translate(-21.263 -20.96)" fill="#cb5054"/>
        <path id="Path_1032041" data-name="Path 1032041" d="M56.925,32.7l-.813-4.028a8.09,8.09,0,0,1,4.641.174c-.137,1.417-.273,2.833-.411,4.263a9.055,9.055,0,0,0-1.644-.521,9.591,9.591,0,0,0-1.773.112" transform="translate(-30.126 -15.257)" fill="#cb5054"/>
        <path id="Path_1032042" data-name="Path 1032042" d="M29.259,45.853l2.456.135c.1,1,.212,2.086.32,3.178a1.464,1.464,0,0,0,.025.384c.221.546-.064.7-.536.78a6.49,6.49,0,0,1-4.293-.482l2.028-3.995" transform="translate(-14.62 -24.618)" fill="#e66666"/>
        <path id="Path_1032043" data-name="Path 1032043" d="M49.728,29.976c.265,1.286.485,2.529.788,3.753a1.452,1.452,0,0,1-.332,1.393c-.5.627-.9,1.325-1.405,2.075-.778-1.453-1.512-2.8-2.214-4.168a.644.644,0,0,1,.119-.528,7.827,7.827,0,0,1,3.044-2.523" transform="translate(-24.988 -16.094)" fill="#e66666"/>
        <path id="Path_1032044" data-name="Path 1032044" d="M81.84,49.7l1.634-4.642c.793.37,1.561.671,2.269,1.076a1.92,1.92,0,0,1,1.011,1.941,1.957,1.957,0,0,1-1.3,1.638A4.91,4.91,0,0,1,81.84,49.7" transform="translate(-43.94 -24.191)" fill="#e66666"/>
        <path id="Path_1032045" data-name="Path 1032045" d="M77.975,41.129,76.35,45.756a10.223,10.223,0,0,1-2.507-2.179.426.426,0,0,1-.035-.358c.532-1.461,1.077-2.917,1.629-4.4l2.538,2.312" transform="translate(-39.615 -20.841)" fill="#cb5054"/>
        <path id="Path_1032046" data-name="Path 1032046" d="M68.322,30.552a15.074,15.074,0,0,1,1.222.952c.572.548,1.387,1.066,1.565,1.738.163.613-.373,1.419-.622,2.133-.276.788-.577,1.567-.865,2.341-.577-.755-1.125-1.467-1.664-2.186a.96.96,0,0,1-.1-.3c0-.016.007-.036.008-.054.148-1.5.3-2.992.457-4.622" transform="translate(-36.431 -16.403)" fill="#e66666"/>
        <path id="Path_1032047" data-name="Path 1032047" d="M110.13,68.265a1.355,1.355,0,0,1-1.383-1.456,1.338,1.338,0,0,1,1.443-1.443,1.45,1.45,0,1,1-.06,2.9" transform="translate(-58.386 -35.095)" fill="#0b0808"/>
        <path id="Path_1032048" data-name="Path 1032048" d="M8.6,31.552a1.317,1.317,0,0,1-1.351-1.357,1.37,1.37,0,1,1,2.74-.018A1.321,1.321,0,0,1,8.6,31.552" transform="translate(-3.892 -15.458)" fill="#0d0809"/>
      </g>
    </g>
  </g>
</svg>
