<svg xmlns="http://www.w3.org/2000/svg" xmlns:xlink="http://www.w3.org/1999/xlink" width="108.914" height="108.914" viewBox="0 0 108.914 108.914">
  <defs>
    <filter id="Path_874925" x="0" y="0" width="108.914" height="108.914" filterUnits="userSpaceOnUse">
      <feOffset dy="3" input="SourceAlpha"/>
      <feGaussianBlur stdDeviation="3" result="blur"/>
      <feFlood flood-opacity="0.161"/>
      <feComposite operator="in" in2="blur"/>
      <feComposite in="SourceGraphic"/>
    </filter>
    <clipPath id="clip-path">
      <rect id="Rectangle_415560" data-name="Rectangle 415560" width="57.373" height="57.433" fill="none"/>
    </clipPath>
  </defs>
  <g id="Group_1109836" data-name="Group 1109836" transform="translate(-1113.825 -1946.211)">
    <g id="Group_1107928" data-name="Group 1107928" transform="translate(1122.824 1952.211)">
      <g transform="matrix(1, 0, 0, 1, -9, -6)" filter="url(#Path_874925)">
        <g id="Path_874925-2" data-name="Path 874925" transform="translate(9 6)" fill="#dcd7ba" opacity="0.859">
          <path d="M 45.45676803588867 89.41407012939453 C 39.52198028564453 89.41407012939453 33.76551818847656 88.25206756591797 28.34726715087891 85.96034240722656 C 23.11311721801758 83.74648284912109 18.41204261779785 80.57682800292969 14.37464332580566 76.5394287109375 C 10.33724308013916 72.50202941894531 7.167593002319336 67.80095672607422 4.953730583190918 62.56679534912109 C 2.662005424499512 57.14855575561523 1.500005483627319 51.39208221435547 1.500005483627319 45.45729446411133 C 1.500005483627319 39.52198028564453 2.662005424499512 33.76551818847656 4.953730583190918 28.34726905822754 C 7.167593002319336 23.11310577392578 10.33724308013916 18.41203117370605 14.37464332580566 14.37464332580566 C 18.41204261779785 10.33724403381348 23.11311721801758 7.167593955993652 28.34726715087891 4.953731060028076 C 33.76551818847656 2.662006139755249 39.52198028564453 1.500006198883057 45.45676803588867 1.500006198883057 C 51.39155578613281 1.500006198883057 57.14802932739258 2.662006139755249 62.56626892089844 4.953731060028076 C 67.80043029785156 7.167593955993652 72.50150299072266 10.33724403381348 76.53890228271484 14.37464332580566 C 80.57630920410156 18.41203117370605 83.74595642089844 23.11310577392578 85.95981597900391 28.34726905822754 C 88.25154113769531 33.76551818847656 89.41354370117188 39.52198028564453 89.41354370117188 45.45676803588867 C 89.41354370117188 51.39208221435547 88.25154113769531 57.14855575561523 85.95981597900391 62.56679534912109 C 83.74595642089844 67.80095672607422 80.57630920410156 72.50202941894531 76.53890228271484 76.5394287109375 C 72.50150299072266 80.57682800292969 67.80043029785156 83.74648284912109 62.56626892089844 85.96034240722656 C 57.14802932739258 88.25206756591797 51.39155578613281 89.41407012939453 45.45676803588867 89.41407012939453 Z" stroke="none"/>
          <path d="M 45.45676803588867 3 C 39.72381210327148 3 34.1639404296875 4.12213134765625 28.93159484863281 6.335227966308594 C 23.87622833251953 8.473472595214844 19.33542633056641 11.53517150878906 15.43529510498047 15.435302734375 C 11.53517150878906 19.33543395996094 8.473464965820312 23.87622833251953 6.335227966308594 28.93160247802734 C 4.122123718261719 34.16394424438477 3 39.72381591796875 3 45.4572868347168 C 3 51.19024658203125 4.122123718261719 56.75011825561523 6.335227966308594 61.98246002197266 C 8.473464965820312 67.03782653808594 11.53517150878906 71.57862854003906 15.43529510498047 75.478759765625 C 19.33542633056641 79.37889099121094 23.87622833251953 82.44058990478516 28.93159484863281 84.57883453369141 C 34.1639404296875 86.79193115234375 39.72381210327148 87.9140625 45.45676803588867 87.9140625 C 51.18972396850586 87.9140625 56.74959564208984 86.79193115234375 61.98194122314453 84.57883453369141 C 67.03730773925781 82.44058990478516 71.57810974121094 79.37889099121094 75.47824096679688 75.478759765625 C 79.37837219238281 71.57862854003906 82.44007110595703 67.03782653808594 84.57830810546875 61.98246002197266 C 86.79141235351562 56.75011825561523 87.91353607177734 51.19024658203125 87.91353607177734 45.4567756652832 C 87.91353607177734 39.72381591796875 86.79141235351562 34.16394424438477 84.57830810546875 28.93160247802734 C 82.44007110595703 23.87622833251953 79.37837219238281 19.33543395996094 75.47824096679688 15.435302734375 C 71.57810974121094 11.53517150878906 67.03730773925781 8.473472595214844 61.98194122314453 6.335227966308594 C 56.74959564208984 4.12213134765625 51.18972396850586 3 45.45676803588867 3 M 45.45676803588867 0 C 70.56185150146484 0 90.91353607177734 20.35169219970703 90.91353607177734 45.4567756652832 L 90.91353607177734 45.4572868347168 C 90.91353607177734 70.5623779296875 70.56185150146484 90.9140625 45.45676803588867 90.9140625 C 20.3516845703125 90.9140625 0 70.5623779296875 0 45.4572868347168 L 0 45.4567756652832 C 0 20.35169219970703 20.3516845703125 0 45.45676803588867 0 Z" stroke="none" fill="#fff"/>
        </g>
      </g>
      <g id="Path_874923" data-name="Path 874923" transform="translate(0 0)" fill="none">
        <path d="M45.457,0A45.457,45.457,0,0,1,90.914,45.457h0A45.457,45.457,0,0,1,0,45.457H0A45.457,45.457,0,0,1,45.457,0Z" stroke="none"/>
        <path d="M 45.45676803588867 3 C 39.72381210327148 3 34.1639404296875 4.12213134765625 28.93159484863281 6.335227966308594 C 23.87622833251953 8.473472595214844 19.33542633056641 11.53517150878906 15.43529510498047 15.435302734375 C 11.53517150878906 19.33543395996094 8.473464965820312 23.87622833251953 6.335227966308594 28.93160247802734 C 4.122123718261719 34.16394424438477 3 39.72381591796875 3 45.4572868347168 C 3 51.19024658203125 4.122123718261719 56.75011825561523 6.335227966308594 61.98246002197266 C 8.473464965820312 67.03782653808594 11.53517150878906 71.57862854003906 15.43529510498047 75.478759765625 C 19.33542633056641 79.37889099121094 23.87622833251953 82.44058990478516 28.93159484863281 84.57883453369141 C 34.1639404296875 86.79193115234375 39.72381210327148 87.9140625 45.45676803588867 87.9140625 C 51.18972396850586 87.9140625 56.74959564208984 86.79193115234375 61.98194122314453 84.57883453369141 C 67.03730773925781 82.44058990478516 71.57810974121094 79.37889099121094 75.47824096679688 75.478759765625 C 79.37837219238281 71.57862854003906 82.44007110595703 67.03782653808594 84.57830810546875 61.98246002197266 C 86.79141235351562 56.75011825561523 87.91353607177734 51.19024658203125 87.91353607177734 45.4567756652832 C 87.91353607177734 39.72381591796875 86.79141235351562 34.16394424438477 84.57830810546875 28.93160247802734 C 82.44007110595703 23.87622833251953 79.37837219238281 19.33543395996094 75.47824096679688 15.435302734375 C 71.57810974121094 11.53517150878906 67.03730773925781 8.473472595214844 61.98194122314453 6.335227966308594 C 56.74959564208984 4.12213134765625 51.18972396850586 3 45.45676803588867 3 M 45.45676803588867 0 C 70.56185150146484 0 90.91353607177734 20.35169219970703 90.91353607177734 45.4567756652832 L 90.91353607177734 45.4572868347168 C 90.91353607177734 70.5623779296875 70.56185150146484 90.9140625 45.45676803588867 90.9140625 C 20.3516845703125 90.9140625 0 70.5623779296875 0 45.4572868347168 L 0 45.4567756652832 C 0 20.35169219970703 20.3516845703125 0 45.45676803588867 0 Z" stroke="none" fill="#fff"/>
      </g>
    </g>
    <g id="Group_1175655" data-name="Group 1175655" transform="translate(1139.595 1968.951)">
      <rect id="Rectangle_415552" data-name="Rectangle 415552" width="11.34" height="22.733" transform="translate(45.192 33.86)" fill="#fc435f"/>
      <rect id="Rectangle_415553" data-name="Rectangle 415553" width="11.34" height="15.584" transform="translate(45.192 22.515)" fill="#ffdeb0"/>
      <rect id="Rectangle_415554" data-name="Rectangle 415554" width="16.435" height="48.63" transform="translate(2.064 7.963)" fill="#ffdeb0"/>
      <rect id="Rectangle_415555" data-name="Rectangle 415555" width="4.482" height="48.63" transform="translate(14.016 7.963)" fill="#fcd59f"/>
      <path id="Path_1031125" data-name="Path 1031125" d="M102.721,123.425H64.332V95.232l8.557-10.4,10.638-6.242,10.637,6.242,8.557,10.4Z" transform="translate(-54.71 -66.832)" fill="#fc435f"/>
      <path id="Path_1031126" data-name="Path 1031126" d="M190.562,84.828l-10.637-6.242L177.684,79.9l8.4,4.927,8.557,10.4v28.194h4.482V95.232Z" transform="translate(-151.109 -66.832)" fill="#eb2f4b"/>
      <g id="Group_1175654" data-name="Group 1175654">
        <g id="Group_1175653" data-name="Group 1175653" clip-path="url(#clip-path)">
          <path id="Path_1031127" data-name="Path 1031127" d="M33.2,91.965a1.561,1.561,0,0,1-1.2-2.551L43.878,74.962a1.572,1.572,0,0,1,.416-.355l10.637-6.242a1.56,1.56,0,0,1,1.58,0l10.637,6.242a1.575,1.575,0,0,1,.416.355l8.557,10.4.033.042,3.069,4.005a1.56,1.56,0,0,1-2.477,1.9l-3.053-3.984L65.33,77.159l-9.609-5.638-9.608,5.638L34.4,91.4a1.557,1.557,0,0,1-1.206.569" transform="translate(-26.905 -57.958)" fill="#fff1ec"/>
          <path id="Path_1031128" data-name="Path 1031128" d="M30.232,12.74H13.8A7.123,7.123,0,0,1,20.92,5.617h2.189a7.123,7.123,0,0,1,7.123,7.123" transform="translate(-11.733 -4.777)" fill="#fff1ec"/>
          <path id="Path_1031129" data-name="Path 1031129" d="M57.089,5.617H54.9a7.136,7.136,0,0,0-1.147.093,7.124,7.124,0,0,1,5.976,7.03h4.482a7.123,7.123,0,0,0-7.123-7.123" transform="translate(-45.714 -4.777)" fill="#fce2c5"/>
          <rect id="Rectangle_415556" data-name="Rectangle 415556" width="38.389" height="9.247" transform="translate(9.622 47.345)" fill="#fff1ec"/>
          <rect id="Rectangle_415557" data-name="Rectangle 415557" width="4.482" height="9.247" transform="translate(43.529 47.345)" fill="#fce2c5"/>
          <rect id="Rectangle_415558" data-name="Rectangle 415558" width="23.797" height="14.501" transform="translate(16.787 38.099)" fill="#ff8093"/>
          <rect id="Rectangle_415559" data-name="Rectangle 415559" width="8.591" height="11.657" transform="translate(24.521 21.798)" fill="#eb2f4b"/>
          <path id="Path_1031130" data-name="Path 1031130" d="M48.851,38.94h7.681a.84.84,0,0,0,0-1.681H48.851V33.443l.322.421c1.885,2.46,5.7-.461,3.812-2.921l-3.069-4.006c-.017-.022-.034-.044-.051-.065l-2.893-3.518h9.56a.84.84,0,0,0,0-1.681H45.589l-4.281-5.2a2.4,2.4,0,0,0-.639-.546l-2.278-1.336a.841.841,0,0,0-.851,1.449l2.278,1.337a.723.723,0,0,1,.192.164l4.534,5.512h0l4.024,4.892,3.084,4.024a.721.721,0,0,1-1.143.876l-3.053-3.984-.018-.023L39.074,18.667a.837.837,0,0,0-.224-.191l-9.609-5.638a.84.84,0,0,0-.851,0l-9.608,5.638a.828.828,0,0,0-.224.191L6.848,32.9a.72.72,0,0,1-1.112-.915L17.622,17.538a.717.717,0,0,1,.192-.164l10.637-6.242a.72.72,0,0,1,.729,0l4.491,2.635a.841.841,0,0,0,.851-1.45L30.032,9.683a2.4,2.4,0,0,0-2.43,0l-8.262,4.849V8.8h.242a.84.84,0,1,0,0-1.681h-.287A7.974,7.974,0,0,0,11.375,0H9.187A7.974,7.974,0,0,0,1.268,7.122H.98A.84.84,0,1,0,.98,8.8h.243V55.752H.84a.84.84,0,0,0,0,1.681H56.532a.84.84,0,1,0,0-1.681H48.851ZM19.762,19.851l9.055-5.314,9.055,5.314,9.3,11.4V46.505H41.425V38.1a.851.851,0,0,0-.841-.841h-23.8a.851.851,0,0,0-.841.841v2.729a.84.84,0,0,0,1.681,0V39.6l9.444,5.754L17.628,51.1v-5.8a.84.84,0,1,0-1.681,0v1.2H10.463V31.157ZM30.3,45.35,39.745,39.6V51.1Zm7.289,6.41H19.782l8.9-5.426Zm-8.9-7.394-8.9-5.426H37.59ZM17.657,13.077H2.9V8.8H17.657ZM9.048,25.317H2.9v-4.44h9.8Zm-.266,18.36H2.9V39.239H8.782ZM2.9,45.359H8.782V49.8H2.9ZM6.292,34.848a2.393,2.393,0,0,0,1.855-.876l.634-.772v4.357H2.9v-4.44H3.988a2.42,2.42,0,0,0,2.3,1.73M4.438,30.922a2.434,2.434,0,0,0-.322.515H2.9V27H7.666Zm12.526-15a2.408,2.408,0,0,0-.64.546L14.082,19.2H2.9V14.758H17.657v.759ZM9.187,1.681h2.189A6.293,6.293,0,0,1,17.6,7.122H2.96A6.292,6.292,0,0,1,9.187,1.681M2.9,51.479H8.782v4.273H2.9Zm7.558,4.273V48.186h5.484V52.6a.851.851,0,0,0,.843.841H40.582a.851.851,0,0,0,.843-.841V48.186H47.17v7.566Z" fill="#060606"/>
          <path id="Path_1031131" data-name="Path 1031131" d="M159.169,153.467h8.591a.841.841,0,0,0,.841-.841V140.969a.84.84,0,0,0-.841-.84h-8.591a.84.84,0,0,0-.841.84v11.657a.841.841,0,0,0,.841.841m7.751-5.543h-6.91v-2.252h6.91Zm-6.91,1.681h6.91v2.182h-6.91Zm6.91-5.614h-6.91V141.81h6.91Z" transform="translate(-134.648 -119.171)" fill="#060606"/>
        </g>
      </g>
    </g>
  </g>
</svg>
