<svg xmlns="http://www.w3.org/2000/svg" xmlns:xlink="http://www.w3.org/1999/xlink" width="108.914" height="108.914" viewBox="0 0 108.914 108.914">
  <defs>
    <filter id="Path_874925" x="0" y="0" width="108.914" height="108.914" filterUnits="userSpaceOnUse">
      <feOffset dy="3" input="SourceAlpha"/>
      <feGaussianBlur stdDeviation="3" result="blur"/>
      <feFlood flood-opacity="0.161"/>
      <feComposite operator="in" in2="blur"/>
      <feComposite in="SourceGraphic"/>
    </filter>
    <clipPath id="clip-path">
      <rect id="Rectangle_415600" data-name="Rectangle 415600" width="60" height="60" transform="translate(0 0)" fill="none"/>
    </clipPath>
  </defs>
  <g id="Group_1181015" data-name="Group 1181015" transform="translate(-1113.825 -1946.211)">
    <g id="Group_1107928" data-name="Group 1107928" transform="translate(1122.824 1952.211)">
      <g transform="matrix(1, 0, 0, 1, -9, -6)" filter="url(#Path_874925)">
        <g id="Path_874925-2" data-name="Path 874925" transform="translate(9 6)" fill="#dcd7ba" opacity="0.859">
          <path d="M 45.45676803588867 89.41407012939453 C 39.52198028564453 89.41407012939453 33.76551818847656 88.25206756591797 28.34726715087891 85.96034240722656 C 23.11311721801758 83.74648284912109 18.41204261779785 80.57682800292969 14.37464332580566 76.5394287109375 C 10.33724308013916 72.50202941894531 7.167593002319336 67.80095672607422 4.953730583190918 62.56679534912109 C 2.662005424499512 57.14855575561523 1.500005483627319 51.39208221435547 1.500005483627319 45.45729446411133 C 1.500005483627319 39.52198028564453 2.662005424499512 33.76551818847656 4.953730583190918 28.34726905822754 C 7.167593002319336 23.11310577392578 10.33724308013916 18.41203117370605 14.37464332580566 14.37464332580566 C 18.41204261779785 10.33724403381348 23.11311721801758 7.167593955993652 28.34726715087891 4.953731060028076 C 33.76551818847656 2.662006139755249 39.52198028564453 1.500006198883057 45.45676803588867 1.500006198883057 C 51.39155578613281 1.500006198883057 57.14802932739258 2.662006139755249 62.56626892089844 4.953731060028076 C 67.80043029785156 7.167593955993652 72.50150299072266 10.33724403381348 76.53890228271484 14.37464332580566 C 80.57630920410156 18.41203117370605 83.74595642089844 23.11310577392578 85.95981597900391 28.34726905822754 C 88.25154113769531 33.76551818847656 89.41354370117188 39.52198028564453 89.41354370117188 45.45676803588867 C 89.41354370117188 51.39208221435547 88.25154113769531 57.14855575561523 85.95981597900391 62.56679534912109 C 83.74595642089844 67.80095672607422 80.57630920410156 72.50202941894531 76.53890228271484 76.5394287109375 C 72.50150299072266 80.57682800292969 67.80043029785156 83.74648284912109 62.56626892089844 85.96034240722656 C 57.14802932739258 88.25206756591797 51.39155578613281 89.41407012939453 45.45676803588867 89.41407012939453 Z" stroke="none"/>
          <path d="M 45.45676803588867 3 C 39.72381210327148 3 34.1639404296875 4.12213134765625 28.93159484863281 6.335227966308594 C 23.87622833251953 8.473472595214844 19.33542633056641 11.53517150878906 15.43529510498047 15.435302734375 C 11.53517150878906 19.33543395996094 8.473464965820312 23.87622833251953 6.335227966308594 28.93160247802734 C 4.122123718261719 34.16394424438477 3 39.72381591796875 3 45.4572868347168 C 3 51.19024658203125 4.122123718261719 56.75011825561523 6.335227966308594 61.98246002197266 C 8.473464965820312 67.03782653808594 11.53517150878906 71.57862854003906 15.43529510498047 75.478759765625 C 19.33542633056641 79.37889099121094 23.87622833251953 82.44058990478516 28.93159484863281 84.57883453369141 C 34.1639404296875 86.79193115234375 39.72381210327148 87.9140625 45.45676803588867 87.9140625 C 51.18972396850586 87.9140625 56.74959564208984 86.79193115234375 61.98194122314453 84.57883453369141 C 67.03730773925781 82.44058990478516 71.57810974121094 79.37889099121094 75.47824096679688 75.478759765625 C 79.37837219238281 71.57862854003906 82.44007110595703 67.03782653808594 84.57830810546875 61.98246002197266 C 86.79141235351562 56.75011825561523 87.91353607177734 51.19024658203125 87.91353607177734 45.4567756652832 C 87.91353607177734 39.72381591796875 86.79141235351562 34.16394424438477 84.57830810546875 28.93160247802734 C 82.44007110595703 23.87622833251953 79.37837219238281 19.33543395996094 75.47824096679688 15.435302734375 C 71.57810974121094 11.53517150878906 67.03730773925781 8.473472595214844 61.98194122314453 6.335227966308594 C 56.74959564208984 4.12213134765625 51.18972396850586 3 45.45676803588867 3 M 45.45676803588867 0 C 70.56185150146484 0 90.91353607177734 20.35169219970703 90.91353607177734 45.4567756652832 L 90.91353607177734 45.4572868347168 C 90.91353607177734 70.5623779296875 70.56185150146484 90.9140625 45.45676803588867 90.9140625 C 20.3516845703125 90.9140625 0 70.5623779296875 0 45.4572868347168 L 0 45.4567756652832 C 0 20.35169219970703 20.3516845703125 0 45.45676803588867 0 Z" stroke="none" fill="#fff"/>
        </g>
      </g>
      <g id="Path_874923" data-name="Path 874923" transform="translate(0 0)" fill="none">
        <path d="M45.457,0A45.457,45.457,0,0,1,90.914,45.457h0A45.457,45.457,0,0,1,0,45.457H0A45.457,45.457,0,0,1,45.457,0Z" stroke="none"/>
        <path d="M 45.45676803588867 3 C 39.72381210327148 3 34.1639404296875 4.12213134765625 28.93159484863281 6.335227966308594 C 23.87622833251953 8.473472595214844 19.33542633056641 11.53517150878906 15.43529510498047 15.435302734375 C 11.53517150878906 19.33543395996094 8.473464965820312 23.87622833251953 6.335227966308594 28.93160247802734 C 4.122123718261719 34.16394424438477 3 39.72381591796875 3 45.4572868347168 C 3 51.19024658203125 4.122123718261719 56.75011825561523 6.335227966308594 61.98246002197266 C 8.473464965820312 67.03782653808594 11.53517150878906 71.57862854003906 15.43529510498047 75.478759765625 C 19.33542633056641 79.37889099121094 23.87622833251953 82.44058990478516 28.93159484863281 84.57883453369141 C 34.1639404296875 86.79193115234375 39.72381210327148 87.9140625 45.45676803588867 87.9140625 C 51.18972396850586 87.9140625 56.74959564208984 86.79193115234375 61.98194122314453 84.57883453369141 C 67.03730773925781 82.44058990478516 71.57810974121094 79.37889099121094 75.47824096679688 75.478759765625 C 79.37837219238281 71.57862854003906 82.44007110595703 67.03782653808594 84.57830810546875 61.98246002197266 C 86.79141235351562 56.75011825561523 87.91353607177734 51.19024658203125 87.91353607177734 45.4567756652832 C 87.91353607177734 39.72381591796875 86.79141235351562 34.16394424438477 84.57830810546875 28.93160247802734 C 82.44007110595703 23.87622833251953 79.37837219238281 19.33543395996094 75.47824096679688 15.435302734375 C 71.57810974121094 11.53517150878906 67.03730773925781 8.473472595214844 61.98194122314453 6.335227966308594 C 56.74959564208984 4.12213134765625 51.18972396850586 3 45.45676803588867 3 M 45.45676803588867 0 C 70.56185150146484 0 90.91353607177734 20.35169219970703 90.91353607177734 45.4567756652832 L 90.91353607177734 45.4572868347168 C 90.91353607177734 70.5623779296875 70.56185150146484 90.9140625 45.45676803588867 90.9140625 C 20.3516845703125 90.9140625 0 70.5623779296875 0 45.4572868347168 L 0 45.4567756652832 C 0 20.35169219970703 20.3516845703125 0 45.45676803588867 0 Z" stroke="none" fill="#fff"/>
      </g>
    </g>
    <g id="Group_1181023" data-name="Group 1181023" transform="translate(1137.986 1968.235)">
      <g id="Mask_Group_1175724" data-name="Mask Group 1175724" transform="translate(0 -0.453)" clip-path="url(#clip-path)">
        <path id="Path_1031354" data-name="Path 1031354" d="M7.9,80.4C7.378,78.2,6.877,75.985,6.32,73.787a1.187,1.187,0,0,1,.515-1.539c.837.1.986.2,1.184,1.03.624,2.613,1.228,5.231,1.843,7.846a4.471,4.471,0,0,0,.45,1.669A19.021,19.021,0,0,1,13.1,87.961c.08.319.142.643.247.954.04.12.172.291.268.3.57.028,1.142.014,1.79.014l-.275-1.276a3.342,3.342,0,0,0-.03-.407A69.107,69.107,0,0,0,9.676,70.515a38.755,38.755,0,0,0-4.15-6.828,5.479,5.479,0,0,0-.49-.5c.576,2.1,1.209,4.1,1.861,6.091a1.018,1.018,0,0,1-.471,1.344c-.822.015-.991-.125-1.259-.908q-1.726-5.051-3.474-10.1c-.163-.469-.195-.888.24-1.206.463-.339.866-.164,1.257.179a32.3,32.3,0,0,1,7.226,9.483c.863,1.649,1.62,3.353,2.494,5.178-.061-.71-.095-1.289-.162-1.865A110.193,110.193,0,0,0,9.664,54.208a.848.848,0,0,1,.418-1.095.885.885,0,0,1,1.179.323,34.472,34.472,0,0,1,4.688,7.718,2.288,2.288,0,0,0,1.038,1.184c.573.307,1.092.713,1.681,1.107.225-1.644.411-3.225.663-4.8.366-2.289.779-4.571,1.172-6.856a.876.876,0,0,1,.889-.841.859.859,0,0,1,.883.776C23.089,55.5,23.97,59.25,24.7,63.035c.577,3,.965,6.042,1.448,9.063a1.311,1.311,0,0,0,.355.672c.187-1.006.355-2.016.563-3.018a42.024,42.024,0,0,1,5.971-15.168c.531-.791,1.155-1.52,1.749-2.267a.9.9,0,0,1,1.227-.34c.487.26.491.7.4,1.169-.557,2.887-1.2,5.762-1.641,8.666-.407,2.677-.6,5.386-.875,8.082a.615.615,0,0,0,.186.484,20.233,20.233,0,0,1,4.662,4.812,1.147,1.147,0,0,0,.174.145c.11-1.068.207-2.092.322-3.114a81.691,81.691,0,0,1,4.212-18.47c.18-.5.48-.814,1.039-.719s.721.5.735,1.028q.231,8.926.48,17.852c.04,1.421.124,2.84.3,4.27.122-.839.22-1.682.37-2.516q.681-3.8,1.4-7.585c.149-.784.343-.925,1.13-.989a1.057,1.057,0,0,1,.567,1.413A8.5,8.5,0,0,0,49.2,67.76c-.623,4.082-1.314,8.156-1.829,12.252-.331,2.627-.4,5.286-.585,7.931-.02.414-.04.828-.06,1.264H47.7l.219-1.252q1.184-3.662,2.367-7.323a1.425,1.425,0,0,0,.069-.34c.2-3.114.344-6.233.613-9.341.312-3.612.731-7.215,1.111-10.821.094-.895.213-1.787.321-2.68l-.14-.032c-.089.2-.193.4-.265.614-.5,1.474-1.006,2.947-1.489,4.427-.27.827-.39.944-1.262,1.019a1.269,1.269,0,0,1-.414-1.595A39.962,39.962,0,0,1,53.2,51.673c.063-.1.123-.2.192-.293a.836.836,0,0,1,1.061-.369.869.869,0,0,1,.557,1.035c-.4,2.8-.861,5.587-1.2,8.392C53.4,64,53.058,67.573,52.712,71.144c-.171,1.761-.274,3.529-.3,5.333.094-.127.194-.25.28-.382a20.6,20.6,0,0,1,5.01-5.51c.251-.184.514-.351.777-.519a.9.9,0,0,1,1.268.079c.364.4.226.793-.011,1.228a40.054,40.054,0,0,0-1.964,3.833,44.64,44.64,0,0,0-2.592,10.34c-.181,1.193-.317,2.394-.486,3.682.834,0,1.624-.018,2.414,0a2.979,2.979,0,0,1,.78,5.823,3.886,3.886,0,0,1-1.095.147q-17.5.011-35.009.005c-.773,0-1-.185-1.179-.922.247-.733.4-.839,1.254-.839H56.464a4.763,4.763,0,0,0,.643-.015,1.178,1.178,0,0,0,1.027-1.506c-.215-.733-.543-.937-1.513-.937H3.355c-.136,0-.274-.009-.409,0a1.092,1.092,0,0,0-1.1.933c-.2.913.342,1.519,1.377,1.52q7.232.006,14.465-.005c.633,0,1.064.186,1.193.847-.168.715-.4.92-1.12.92q-7.319,0-14.637,0a3.014,3.014,0,0,1-2.988-2.1A1.783,1.783,0,0,0,0,92.871V91.465a10.227,10.227,0,0,1,.912-1.38,2.759,2.759,0,0,1,2.156-.863c1.311.01,2.622,0,4.039,0-.353-.749-.628-1.411-.966-2.039A32.084,32.084,0,0,0,0,79.4v-.7a1.306,1.306,0,0,1,1.3-.515,14.425,14.425,0,0,1,6.512,2.309l.115.053L7.9,80.4m.567,7.541.452,1.248h2.692l-.447-1.248c-1.043-3.516-5.024-7.413-7.639-7.437a28.409,28.409,0,0,1,4.942,7.437m13.21,0v1.243h2.362l-.165-1.245a64.965,64.965,0,0,0-2.648-12.259c-.44-1.373-.947-2.725-1.424-4.086l-.2.047c.04.336.065.675.124,1.007.372,2.09.848,4.167,1.1,6.27.365,3,.571,6.014.845,9.022m31.372,0c.041-.25.09-.5.122-.75a56.28,56.28,0,0,1,2.586-11.734c.06-.171.1-.348.166-.559-.116.023-.165.018-.188.04a2.132,2.132,0,0,0-.241.252,31.851,31.851,0,0,0-5.7,12.751l-.3,1.244h3.446l.109-1.245m-10.787,0c-.54-1.784-1.006-3.6-1.638-5.347a26.075,26.075,0,0,0-4-7.29,3.324,3.324,0,0,0-.446-.4,56.028,56.028,0,0,1,2,7.857c.308,1.722.549,3.457.82,5.186l.092,1.23h3.469l-.3-1.236m-13.74,0a34.5,34.5,0,0,0-2.441-11.673,25.987,25.987,0,0,0-6.688-9.74,63.778,63.778,0,0,1,6.29,21.417l.126,1.244H28.6c-.027-.445-.052-.846-.077-1.248m15.587.032c.188.424-.126,1.147.787,1.284l-.149-1.307c-.108-1.849-.241-3.7-.318-5.546q-.388-9.3-.734-18.592c-.053-1.436-.008-2.877-.008-4.315l-.187-.019c-.027.086-.057.171-.082.258a84.594,84.594,0,0,0-2.879,18.029,1.117,1.117,0,0,0,.109.558,41.585,41.585,0,0,1,3.461,9.651m-13.772-.023V89.19h1.8c-.028-.441-.053-.842-.079-1.243-.067-1.519-.2-3.039-.189-4.557.044-4.426.015-8.858.271-13.273.21-3.611.78-7.2,1.207-10.8.093-.785.256-1.561.387-2.341l-.169-.054C33,58.047,32.4,59.154,31.877,60.3A49.347,49.347,0,0,0,28.126,74a5.575,5.575,0,0,0,.2,3.309,14.979,14.979,0,0,1,.744,2.394,43.206,43.206,0,0,1,1.272,8.246m-13.348,0c.04.326.06.657.132.976.026.115.176.285.273.288.827.023,1.656.013,2.534.013-.023-.477-.042-.88-.062-1.284-.136-1.945-.231-3.893-.415-5.833a70.849,70.849,0,0,0-2.6-13.527,46.487,46.487,0,0,0-3.823-9.335,5.083,5.083,0,0,0-.355-.495.588.588,0,0,0-.016.39A146.278,146.278,0,0,1,15,76.522a38.152,38.152,0,0,0,.322,4.022c.473,2.485,1.107,4.939,1.674,7.407m16.74-13.929A123.571,123.571,0,0,0,33.946,89.2h3.384c-.586-5.229-1.442-10.353-3.6-15.175M23.715,68.446l.183-.032L21.634,56.275l-.214.015c-.344,2.578-.663,5.159-1.048,7.73a1.511,1.511,0,0,0,.56,1.449c.964.955,1.86,1.98,2.783,2.976m32.209,6.3-.037.036.037.036.036-.055-.036-.017" transform="translate(0 -42.328)" fill="#030302"/>
        <path id="Path_1031355" data-name="Path 1031355" d="M.912,243.481A10.223,10.223,0,0,0,0,244.861V232.795" transform="translate(0 -195.724)" fill="#fcfcfc"/>
        <path id="Path_1031356" data-name="Path 1031356" d="M67.846,312.84a1.178,1.178,0,0,1-1.027,1.507,4.806,4.806,0,0,1-.643.014H31.567c-.851,0-1.006.107-1.254.839H28.589c-.129-.661-.56-.849-1.193-.847q-7.232.02-14.465.005c-1.036,0-1.575-.606-1.377-1.52,1.1.081,2.2.231,3.3.232q24.846.022,49.693,0c1.1,0,2.2-.151,3.3-.232" transform="translate(-9.711 -263.242)" fill="#c68a54"/>
        <path id="Path_1031357" data-name="Path 1031357" d="M33.571,136.652a1.018,1.018,0,0,0,.471-1.344c-.653-1.992-1.285-3.991-1.861-6.091a5.481,5.481,0,0,1,.49.5,38.736,38.736,0,0,1,4.149,6.828,69.114,69.114,0,0,1,5.422,17.026,3.345,3.345,0,0,1,.03.407l-2.03.013a19.02,19.02,0,0,0-2.786-5.169,4.471,4.471,0,0,1-.45-1.669c-.615-2.615-1.219-5.233-1.844-7.845-.2-.828-.346-.932-1.184-1.031l-.408-1.623" transform="translate(-27.145 -108.355)" fill="#9bc33c"/>
        <path id="Path_1031358" data-name="Path 1031358" d="M301.431,98.4c.872-.074.992-.192,1.262-1.019.483-1.48.987-2.953,1.489-4.427.072-.21.176-.41.265-.614l.139.032c-.108.893-.227,1.785-.321,2.68-.379,3.606-.8,7.209-1.111,10.821-.269,3.108-.411,6.227-.613,9.341a1.413,1.413,0,0,1-.069.34q-1.181,3.662-2.367,7.323l-1.133-.012c.186-2.645.255-5.3.585-7.931.515-4.1,1.206-8.17,1.829-12.252a8.447,8.447,0,0,1,.272-1.255,1.058,1.058,0,0,0-.567-1.413l.339-1.613" transform="translate(-252.185 -77.246)" fill="#b4e145"/>
        <path id="Path_1031359" data-name="Path 1031359" d="M85.105,130.062c-.567-2.467-1.2-4.922-1.674-7.407a38.148,38.148,0,0,1-.322-4.022,146.284,146.284,0,0,0-2.333-17.378.587.587,0,0,1,.016-.39,5.064,5.064,0,0,1,.355.495,46.476,46.476,0,0,1,3.823,9.335,70.853,70.853,0,0,1,2.6,13.527c.184,1.94.279,3.888.415,5.833l-2.877.006" transform="translate(-68.114 -84.44)" fill="#b4e145"/>
        <path id="Path_1031360" data-name="Path 1031360" d="M181.108,120.191a43.207,43.207,0,0,0-1.272-8.246,15.011,15.011,0,0,0-.744-2.394,5.573,5.573,0,0,1-.2-3.309,49.346,49.346,0,0,1,3.751-13.7c.518-1.148,1.127-2.254,1.695-3.38l.169.054c-.131.78-.294,1.557-.387,2.341-.427,3.6-1,7.189-1.207,10.8-.256,4.415-.227,8.848-.271,13.273-.015,1.518.122,3.038.189,4.557l-1.725,0" transform="translate(-150.769 -74.569)" fill="#9bc33c"/>
        <path id="Path_1031361" data-name="Path 1031361" d="M68.064,307.773c-1.1.081-2.2.231-3.3.232q-24.847.023-49.693,0c-1.1,0-2.2-.151-3.3-.232a1.092,1.092,0,0,1,1.1-.933c.135-.013.273,0,.409,0H66.55c.97,0,1.3.2,1.513.937" transform="translate(-9.929 -258.175)" fill="#e8a661"/>
        <path id="Path_1031362" data-name="Path 1031362" d="M262.615,134a41.583,41.583,0,0,0-3.461-9.651,1.118,1.118,0,0,1-.109-.558,84.587,84.587,0,0,1,2.879-18.029c.024-.087.054-.172.082-.258l.187.019c0,1.438-.045,2.878.008,4.315q.341,9.3.734,18.592c.077,1.85.21,3.7.318,5.546l-.637.023" transform="translate(-218.504 -88.351)" fill="#9bc33c"/>
        <path id="Path_1031363" data-name="Path 1031363" d="M130.223,171.971a63.777,63.777,0,0,0-6.29-21.417,25.984,25.984,0,0,1,6.688,9.74,34.492,34.492,0,0,1,2.441,11.673l-2.839,0" transform="translate(-104.538 -126.353)" fill="#b4e145"/>
        <path id="Path_1031364" data-name="Path 1031364" d="M214.829,198.423" transform="translate(-181.098 -166.731)" fill="#fcfcfc"/>
        <path id="Path_1031365" data-name="Path 1031365" d="M234.03,217.15c-.271-1.729-.511-3.464-.82-5.186a56.051,56.051,0,0,0-2-7.857,3.336,3.336,0,0,1,.446.4,26.077,26.077,0,0,1,4,7.29c.631,1.751,1.1,3.563,1.638,5.347l-3.263.006" transform="translate(-195.029 -171.525)" fill="#b4e145"/>
        <path id="Path_1031366" data-name="Path 1031366" d="M318.182,217.127a31.848,31.848,0,0,1,5.7-12.751,2.121,2.121,0,0,1,.241-.252c.024-.022.072-.017.188-.04-.062.21-.106.387-.166.559a56.3,56.3,0,0,0-2.586,11.734c-.031.251-.081.5-.122.75h-3.257" transform="translate(-268.388 -171.505)" fill="#9bc33c"/>
        <path id="Path_1031367" data-name="Path 1031367" d="M127.346,199.321c-.274-3.008-.48-6.025-.845-9.022-.257-2.1-.733-4.18-1.1-6.27-.059-.333-.084-.672-.124-1.008l.2-.047c.476,1.361.983,2.713,1.424,4.086a64.962,64.962,0,0,1,2.648,12.259l-2.2,0" transform="translate(-105.668 -153.699)" fill="#9bc33c"/>
        <path id="Path_1031368" data-name="Path 1031368" d="M133.4,97.2c-.923-1-1.819-2.021-2.783-2.976a1.511,1.511,0,0,1-.56-1.449c.385-2.572.7-5.153,1.048-7.73l.214-.015,2.264,12.139-.183.032" transform="translate(-109.683 -71.08)" fill="#9bc33c"/>
        <path id="Path_1031369" data-name="Path 1031369" d="M27.474,247.313a28.409,28.409,0,0,0-4.942-7.437c2.615.025,6.6,3.922,7.639,7.437h-2.7" transform="translate(-19.006 -201.697)" fill="#b4e145"/>
        <path id="Path_1031370" data-name="Path 1031370" d="M249.214,287.418l3.263-.006.3,1.236h-3.469l-.092-1.23" transform="translate(-210.213 -241.793)" fill="#9bc33c"/>
        <path id="Path_1031371" data-name="Path 1031371" d="M316.578,287.426h3.257l-.109,1.245H316.28l.3-1.243" transform="translate(-266.784 -241.804)" fill="#8eac2f"/>
        <path id="Path_1031372" data-name="Path 1031372" d="M108.573,287.4l2.877-.006c.02.4.039.807.062,1.284-.878,0-1.706.01-2.534-.013-.1,0-.247-.173-.273-.288-.072-.319-.092-.65-.132-.976" transform="translate(-91.582 -241.777)" fill="#9bc33c"/>
        <path id="Path_1031373" data-name="Path 1031373" d="M164.127,287.385l2.839,0c.025.4.049.8.077,1.248h-2.79l-.126-1.244" transform="translate(-138.442 -241.767)" fill="#9bc33c"/>
        <path id="Path_1031374" data-name="Path 1031374" d="M54.11,287.4h2.7l.447,1.248H54.562L54.11,287.4" transform="translate(-45.642 -241.783)" fill="#9bc33c"/>
        <path id="Path_1031375" data-name="Path 1031375" d="M138.524,287.421l2.2,0,.165,1.245h-2.362Z" transform="translate(-116.846 -241.799)" fill="#8eac2f"/>
        <path id="Path_1031376" data-name="Path 1031376" d="M83.694,287.435l2.03-.013L86,288.7c-.648,0-1.22.014-1.79-.014-.1,0-.228-.176-.268-.3-.1-.311-.167-.635-.247-.954" transform="translate(-70.596 -241.802)" fill="#8eac2f"/>
        <path id="Path_1031377" data-name="Path 1031377" d="M193.866,287.415l1.725,0c.026.4.051.8.079,1.243h-1.8Z" transform="translate(-163.527 -241.792)" fill="#8eac2f"/>
        <path id="Path_1031378" data-name="Path 1031378" d="M298.649,287.391l1.133.012-.219,1.252h-.974c.021-.435.041-.85.06-1.264" transform="translate(-251.861 -241.776)" fill="#9bc33c"/>
        <path id="Path_1031379" data-name="Path 1031379" d="M281.867,287.461l.637-.023c.046.4.092.8.15,1.307-.912-.137-.6-.86-.787-1.284" transform="translate(-237.756 -241.815)" fill="#8eac2f"/>
        <path id="Path_1031380" data-name="Path 1031380" d="M357.145,203.074l.037.018-.036.055-.037-.036.037-.037" transform="translate(-301.222 -170.654)" fill="#9bc33c"/>
        <path id="Path_1031381" data-name="Path 1031381" d="M50.007,239.214l.026.14-.115-.053.089-.086" transform="translate(-42.106 -201.138)" fill="#fdfdfd"/>
      </g>
    </g>
  </g>
</svg>
