<svg xmlns="http://www.w3.org/2000/svg" xmlns:xlink="http://www.w3.org/1999/xlink" width="108.914" height="108.914" viewBox="0 0 108.914 108.914">
  <defs>
    <filter id="Path_874925" x="0" y="0" width="108.914" height="108.914" filterUnits="userSpaceOnUse">
      <feOffset dy="3" input="SourceAlpha"/>
      <feGaussianBlur stdDeviation="3" result="blur"/>
      <feFlood flood-opacity="0.161"/>
      <feComposite operator="in" in2="blur"/>
      <feComposite in="SourceGraphic"/>
    </filter>
    <clipPath id="clip-path">
      <rect id="Rectangle_415585" data-name="Rectangle 415585" width="57" height="57" transform="translate(-0.44 0)" fill="none"/>
    </clipPath>
  </defs>
  <g id="Group_1181036" data-name="Group 1181036" transform="translate(-798.427 -2511.157)">
    <g id="Group_1109818" data-name="Group 1109818" transform="translate(807.427 2517.157)">
      <g transform="matrix(1, 0, 0, 1, -9, -6)" filter="url(#Path_874925)">
        <g id="Path_874925-2" data-name="Path 874925" transform="translate(9 6)" fill="#efdb59" opacity="0.859">
          <path d="M 45.45676803588867 89.41407012939453 C 39.52198028564453 89.41407012939453 33.76551818847656 88.25206756591797 28.34726715087891 85.96034240722656 C 23.11311721801758 83.74648284912109 18.41204261779785 80.57682800292969 14.37464332580566 76.5394287109375 C 10.33724308013916 72.50202941894531 7.167593002319336 67.80095672607422 4.953730583190918 62.56679534912109 C 2.662005424499512 57.14855575561523 1.500005483627319 51.39208221435547 1.500005483627319 45.45729446411133 C 1.500005483627319 39.52198028564453 2.662005424499512 33.76551818847656 4.953730583190918 28.34726905822754 C 7.167593002319336 23.11310577392578 10.33724308013916 18.41203117370605 14.37464332580566 14.37464332580566 C 18.41204261779785 10.33724403381348 23.11311721801758 7.167593955993652 28.34726715087891 4.953731060028076 C 33.76551818847656 2.662006139755249 39.52198028564453 1.500006198883057 45.45676803588867 1.500006198883057 C 51.39155578613281 1.500006198883057 57.14802932739258 2.662006139755249 62.56626892089844 4.953731060028076 C 67.80043029785156 7.167593955993652 72.50150299072266 10.33724403381348 76.53890228271484 14.37464332580566 C 80.57630920410156 18.41203117370605 83.74595642089844 23.11310577392578 85.95981597900391 28.34726905822754 C 88.25154113769531 33.76551818847656 89.41354370117188 39.52198028564453 89.41354370117188 45.45676803588867 C 89.41354370117188 51.39208221435547 88.25154113769531 57.14855575561523 85.95981597900391 62.56679534912109 C 83.74595642089844 67.80095672607422 80.57630920410156 72.50202941894531 76.53890228271484 76.5394287109375 C 72.50150299072266 80.57682800292969 67.80043029785156 83.74648284912109 62.56626892089844 85.96034240722656 C 57.14802932739258 88.25206756591797 51.39155578613281 89.41407012939453 45.45676803588867 89.41407012939453 Z" stroke="none"/>
          <path d="M 45.45676803588867 3 C 39.72381210327148 3 34.1639404296875 4.12213134765625 28.93159484863281 6.335227966308594 C 23.87622833251953 8.473472595214844 19.33542633056641 11.53517150878906 15.43529510498047 15.435302734375 C 11.53517150878906 19.33543395996094 8.473464965820312 23.87622833251953 6.335227966308594 28.93160247802734 C 4.122123718261719 34.16394424438477 3 39.72381591796875 3 45.4572868347168 C 3 51.19024658203125 4.122123718261719 56.75011825561523 6.335227966308594 61.98246002197266 C 8.473464965820312 67.03782653808594 11.53517150878906 71.57862854003906 15.43529510498047 75.478759765625 C 19.33542633056641 79.37889099121094 23.87622833251953 82.44058990478516 28.93159484863281 84.57883453369141 C 34.1639404296875 86.79193115234375 39.72381210327148 87.9140625 45.45676803588867 87.9140625 C 51.18972396850586 87.9140625 56.74959564208984 86.79193115234375 61.98194122314453 84.57883453369141 C 67.03730773925781 82.44058990478516 71.57810974121094 79.37889099121094 75.47824096679688 75.478759765625 C 79.37837219238281 71.57862854003906 82.44007110595703 67.03782653808594 84.57830810546875 61.98246002197266 C 86.79141235351562 56.75011825561523 87.91353607177734 51.19024658203125 87.91353607177734 45.4567756652832 C 87.91353607177734 39.72381591796875 86.79141235351562 34.16394424438477 84.57830810546875 28.93160247802734 C 82.44007110595703 23.87622833251953 79.37837219238281 19.33543395996094 75.47824096679688 15.435302734375 C 71.57810974121094 11.53517150878906 67.03730773925781 8.473472595214844 61.98194122314453 6.335227966308594 C 56.74959564208984 4.12213134765625 51.18972396850586 3 45.45676803588867 3 M 45.45676803588867 0 C 70.56185150146484 0 90.91353607177734 20.35169219970703 90.91353607177734 45.4567756652832 L 90.91353607177734 45.4572868347168 C 90.91353607177734 70.5623779296875 70.56185150146484 90.9140625 45.45676803588867 90.9140625 C 20.3516845703125 90.9140625 0 70.5623779296875 0 45.4572868347168 L 0 45.4567756652832 C 0 20.35169219970703 20.3516845703125 0 45.45676803588867 0 Z" stroke="none" fill="#fff"/>
        </g>
      </g>
      <g id="Path_874923" data-name="Path 874923" transform="translate(0 0)" fill="none">
        <path d="M45.457,0A45.457,45.457,0,0,1,90.914,45.457h0A45.457,45.457,0,0,1,0,45.457H0A45.457,45.457,0,0,1,45.457,0Z" stroke="none"/>
        <path d="M 45.45676803588867 3 C 39.72381210327148 3 34.1639404296875 4.12213134765625 28.93159484863281 6.335227966308594 C 23.87622833251953 8.473472595214844 19.33542633056641 11.53517150878906 15.43529510498047 15.435302734375 C 11.53517150878906 19.33543395996094 8.473464965820312 23.87622833251953 6.335227966308594 28.93160247802734 C 4.122123718261719 34.16394424438477 3 39.72381591796875 3 45.4572868347168 C 3 51.19024658203125 4.122123718261719 56.75011825561523 6.335227966308594 61.98246002197266 C 8.473464965820312 67.03782653808594 11.53517150878906 71.57862854003906 15.43529510498047 75.478759765625 C 19.33542633056641 79.37889099121094 23.87622833251953 82.44058990478516 28.93159484863281 84.57883453369141 C 34.1639404296875 86.79193115234375 39.72381210327148 87.9140625 45.45676803588867 87.9140625 C 51.18972396850586 87.9140625 56.74959564208984 86.79193115234375 61.98194122314453 84.57883453369141 C 67.03730773925781 82.44058990478516 71.57810974121094 79.37889099121094 75.47824096679688 75.478759765625 C 79.37837219238281 71.57862854003906 82.44007110595703 67.03782653808594 84.57830810546875 61.98246002197266 C 86.79141235351562 56.75011825561523 87.91353607177734 51.19024658203125 87.91353607177734 45.4567756652832 C 87.91353607177734 39.72381591796875 86.79141235351562 34.16394424438477 84.57830810546875 28.93160247802734 C 82.44007110595703 23.87622833251953 79.37837219238281 19.33543395996094 75.47824096679688 15.435302734375 C 71.57810974121094 11.53517150878906 67.03730773925781 8.473472595214844 61.98194122314453 6.335227966308594 C 56.74959564208984 4.12213134765625 51.18972396850586 3 45.45676803588867 3 M 45.45676803588867 0 C 70.56185150146484 0 90.91353607177734 20.35169219970703 90.91353607177734 45.4567756652832 L 90.91353607177734 45.4572868347168 C 90.91353607177734 70.5623779296875 70.56185150146484 90.9140625 45.45676803588867 90.9140625 C 20.3516845703125 90.9140625 0 70.5623779296875 0 45.4572868347168 L 0 45.4567756652832 C 0 20.35169219970703 20.3516845703125 0 45.45676803588867 0 Z" stroke="none" fill="#fff"/>
      </g>
    </g>
    <g id="Group_1181040" data-name="Group 1181040" transform="translate(824.491 2533.771)">
      <g id="Group_1175686" data-name="Group 1175686" clip-path="url(#clip-path)">
        <path id="Path_1031183" data-name="Path 1031183" d="M187.747,102.2a2.637,2.637,0,0,0-2.638-2.638H171.263a2.638,2.638,0,0,0,0,5.275H185.11a2.637,2.637,0,0,0,2.638-2.638" transform="translate(-150.094 -88.372)" fill="#ffb954"/>
        <path id="Path_1031184" data-name="Path 1031184" d="M216.405,10h-.059a3.01,3.01,0,0,0-2.128.882,3.882,3.882,0,0,1-4.089.9v8.064h9.286V13.01a3.01,3.01,0,0,0-3.01-3.01" transform="translate(-187.036 -8.655)" fill="#ffc66c"/>
        <path id="Path_1031185" data-name="Path 1031185" d="M119.178,271.333l-10.784-2.24a2.9,2.9,0,0,1-2.31-2.84v-2.589h-2.42v2.588a2.9,2.9,0,0,1-2.312,2.84l-10.837,2.243a6.084,6.084,0,0,0-4.85,5.957v12.564h38.359V277.289a6.083,6.083,0,0,0-4.846-5.956" transform="translate(-76.25 -234.442)" fill="#ffc66c"/>
        <path id="Path_1031186" data-name="Path 1031186" d="M116.137,327.633V334.6a2.969,2.969,0,0,1-2.969,2.969H90.651a2.969,2.969,0,0,1-2.969-2.969v-6.965l-2.015.417V346.8h32.484V328.05Z" transform="translate(-76.253 -291.381)" fill="#4dbaf6"/>
        <path id="Path_1031187" data-name="Path 1031187" d="M215.1,162.987a8.572,8.572,0,0,0,4.972-7.78v-7.649h-9.945v7.649a8.572,8.572,0,0,0,4.973,7.78" transform="translate(-187.036 -131.097)" fill="#ffdfdf"/>
        <path id="Path_1031188" data-name="Path 1031188" d="M229.15,313.066h-9.121a1.95,1.95,0,0,0-1.95,1.95v18.813H227.2V315.016a1.95,1.95,0,0,1,1.95-1.95" transform="translate(-194.112 -278.415)" fill="#fff"/>
        <path id="Path_1031189" data-name="Path 1031189" d="M321.209,313.066h-18.18a1.95,1.95,0,0,0-1.95,1.95v18.813h22.081V315.016a1.95,1.95,0,0,0-1.95-1.95" transform="translate(-267.99 -278.415)" fill="#c9f3ff"/>
        <path id="Path_1031190" data-name="Path 1031190" d="M53.218,33.306H32.277a1.807,1.807,0,0,1-1.344-1.741V31.05a9.65,9.65,0,0,0,3.2-7.185v-6.55h.879a3.737,3.737,0,0,0,0-7.473H33.477V4.109A4.113,4.113,0,0,0,29.369,0H29.31A4.083,4.083,0,0,0,26.4,1.2a2.786,2.786,0,0,1-3.936,0,4.109,4.109,0,0,0-7.014,2.905V9.842H13.916a3.737,3.737,0,0,0,0,7.473h.879v6.55A9.65,9.65,0,0,0,18,31.05v.514a1.809,1.809,0,0,1-1.436,1.764l-5.351,1.108-.01,0-4.385.908-.013,0-1.079.224A7.21,7.21,0,0,0,0,42.6V55.168a1.1,1.1,0,0,0,1.1,1.1H55.168a1.1,1.1,0,0,0,1.1-1.1V36.355a3.052,3.052,0,0,0-3.049-3.049m-24.08,0H26.565a9.6,9.6,0,0,0,2.279-.819,3.98,3.98,0,0,0,.294.819M17.652,4.109a1.911,1.911,0,0,1,3.262-1.351,4.986,4.986,0,0,0,7.044,0A1.9,1.9,0,0,1,29.31,2.2h.059A1.913,1.913,0,0,1,31.28,4.109V9.842H17.653V4.109Zm-5.275,9.47a1.54,1.54,0,0,1,1.539-1.539h21.1a1.539,1.539,0,0,1,0,3.077h-21.1a1.54,1.54,0,0,1-1.539-1.539m4.616,10.286v-6.55H31.939v6.55a7.473,7.473,0,1,1-14.946,0m.016,11.615a4.018,4.018,0,0,0,3.078-2.993,9.609,9.609,0,0,0,4.378,1.05c.1,0,.2,0,.3-.005a3.053,3.053,0,0,0-1.9,2.824v8.486H14.4a1.872,1.872,0,0,1-1.87-1.869V36.408ZM2.2,42.6A5,5,0,0,1,5.934,37.78v8.542a1.1,1.1,0,0,0,2.2,0v-9l2.2-.455v6.109A4.072,4.072,0,0,0,14.4,47.039h8.469v7.03H2.2ZM54.069,54.069h-29V36.355a.852.852,0,0,1,.851-.851h27.3a.852.852,0,0,1,.851.851Z" transform="translate(0 0.246)"/>
        <path id="Path_1031191" data-name="Path 1031191" d="M55.1,450.5a1.1,1.1,0,1,0,.777.322,1.107,1.107,0,0,0-.777-.322" transform="translate(-48.066 -400.746)"/>
        <path id="Path_1031192" data-name="Path 1031192" d="M244.228,202.2a1.1,1.1,0,1,0-.778-.322,1.107,1.107,0,0,0,.778.322" transform="translate(-216.41 -177.775)"/>
        <path id="Path_1031193" data-name="Path 1031193" d="M183.228,202.2a1.1,1.1,0,1,0-.777-.322,1.106,1.106,0,0,0,.777.322" transform="translate(-162.114 -177.775)"/>
        <path id="Path_1031194" data-name="Path 1031194" d="M370.039,443.7" transform="translate(-329.373 -394.695)"/>
        <path id="Path_1031195" data-name="Path 1031195" d="M368.247,216.83a1.1,1.1,0,0,0,.777-1.876,5.307,5.307,0,0,0-7.5,0,1.1,1.1,0,1,0,1.554,1.554,3.108,3.108,0,0,1,4.391,0,1.1,1.1,0,0,0,.777.322" transform="translate(-321.508 -189.705)"/>
        <path id="Path_1031196" data-name="Path 1031196" d="M334.477,179.471a1.1,1.1,0,0,0,1.554,0,7.316,7.316,0,0,1,10.335,0,1.1,1.1,0,1,0,1.554-1.554,9.506,9.506,0,0,0-13.444,0,1.1,1.1,0,0,0,0,1.554" transform="translate(-297.433 -155.641)"/>
        <path id="Path_1031197" data-name="Path 1031197" d="M388.572,252.131a1.1,1.1,0,1,0,.777-.322,1.108,1.108,0,0,0-.777.322" transform="translate(-345.582 -223.89)"/>
        <path id="Path_1031198" data-name="Path 1031198" d="M411.325,420.541v.3a2.43,2.43,0,0,1-.712,1.719v1.75l.356.369h-1.335V420.7Z" transform="translate(-364.616 -374.079)" fill="#898998"/>
        <path id="Path_1031199" data-name="Path 1031199" d="M368.4,420.541v.3a2.43,2.43,0,0,1-.712,1.719v1.75l.356.369H366.71v-3.81Z" transform="translate(-326.41 -374.079)" fill="#898998"/>
        <path id="Path_1031200" data-name="Path 1031200" d="M352,385.579h3.944a2.027,2.027,0,0,1,2.027,2.028v1.318a1.594,1.594,0,0,1-1.594,1.594h-.108a2.428,2.428,0,0,1-.576.918v1.75l.356.369h-1.335v-3.036H354.5a1.148,1.148,0,0,1-.941.49h-2.043a2.422,2.422,0,0,1-.34.427v1.75l.356.369H350.2v-3.036h-.031c-1.139,0-.956-.923-.957-2.061v-.089A2.786,2.786,0,0,1,352,385.579" transform="translate(-310.825 -342.959)" fill="#d8d8e4"/>
        <path id="Path_1031201" data-name="Path 1031201" d="M373.478,424.538a1.149,1.149,0,0,1-1.149,1.149h-2.043l.452-1.149Z" transform="translate(-329.593 -377.637)" fill="#edf2fa"/>
        <path id="Path_1031202" data-name="Path 1031202" d="M346.692,382.781h.715A2.459,2.459,0,0,0,349.8,380.9h-.47a2.787,2.787,0,0,0-2.634,1.877" transform="translate(-308.591 -338.798)" fill="#898998"/>
        <path id="Path_1031203" data-name="Path 1031203" d="M372.64,396.906a.509.509,0,0,1,.509-.509h.021a.444.444,0,0,0,.444-.444.444.444,0,0,1,.369-.437.931.931,0,0,0-.113-.007h-1.136a.444.444,0,0,0-.444.444.445.445,0,0,1-.445.444h-.021a.509.509,0,0,0,0,1.019h1.325a.509.509,0,0,1-.509-.509" transform="translate(-330.508 -351.797)" fill="#fff"/>
        <path id="Path_1031204" data-name="Path 1031204" d="M385.551,396.519a.953.953,0,0,0-.841-.947.444.444,0,0,0-.369.437.444.444,0,0,1-.444.444h-.021a.509.509,0,1,0,0,1.019h.721a.954.954,0,0,0,.954-.954" transform="translate(-341.236 -351.854)" fill="#898998"/>
        <path id="Path_1031205" data-name="Path 1031205" d="M410.424,365.213a1.25,1.25,0,0,1-.563-1.044V364.1l1.317.584Z" transform="translate(-364.818 -323.845)" fill="#898998"/>
        <path id="Path_1031206" data-name="Path 1031206" d="M407.907,373.877V372.75h-.042l-.005-.017a1.044,1.044,0,0,1-.566-.228c-.038.027-.074.056-.109.086l-.061.1a.717.717,0,0,0-.551-.051.635.635,0,0,1-.387.011h0a.724.724,0,0,0,.68.845l0,.014h.033v.883a1.982,1.982,0,0,0,1.034,1.741.926.926,0,0,0,.886,0,1.941,1.941,0,0,0,.224-.142,2.529,2.529,0,0,1-1.136-2.11" transform="translate(-361.542 -331.322)" fill="#fff"/>
        <path id="Path_1031207" data-name="Path 1031207" d="M418.874,371.633v-.885a.725.725,0,0,0,.683-.845h0a.635.635,0,0,1-.387-.011.709.709,0,0,0-.531.041l-.122-.1a1.778,1.778,0,0,0-2.2-.086,1.045,1.045,0,0,0,.566.227l.005.017h.042v1.127a2.529,2.529,0,0,0,1.136,2.111,1.982,1.982,0,0,0,.811-1.6" transform="translate(-370.562 -328.566)" fill="#d8d8e4"/>
        <path id="Path_1031208" data-name="Path 1031208" d="M418.136,398.1a.985.985,0,0,1,1.764,0,1.986,1.986,0,0,1-.439.325.927.927,0,0,1-.886,0,1.983,1.983,0,0,1-.439-.325" transform="translate(-372.184 -353.616)" fill="#898998"/>
        <path id="Path_1031209" data-name="Path 1031209" d="M430.57,365.213a1.251,1.251,0,0,0,.563-1.044V364.1l-1.317.584Z" transform="translate(-382.58 -323.845)" fill="#898998"/>
      </g>
    </g>
  </g>
</svg>
