<svg xmlns="http://www.w3.org/2000/svg" xmlns:xlink="http://www.w3.org/1999/xlink" width="108.914" height="108.914" viewBox="0 0 108.914 108.914">
  <defs>
    <filter id="Path_874925" x="0" y="0" width="108.914" height="108.914" filterUnits="userSpaceOnUse">
      <feOffset dy="3" input="SourceAlpha"/>
      <feGaussianBlur stdDeviation="3" result="blur"/>
      <feFlood flood-opacity="0.161"/>
      <feComposite operator="in" in2="blur"/>
      <feComposite in="SourceGraphic"/>
    </filter>
    <clipPath id="clip-path">
      <rect id="Rectangle_415582" data-name="Rectangle 415582" width="62" height="62" transform="translate(0 0.314)" fill="none"/>
    </clipPath>
  </defs>
  <g id="Group_1181034" data-name="Group 1181034" transform="translate(-798.427 -2511.157)">
    <g id="Group_1109818" data-name="Group 1109818" transform="translate(807.427 2517.157)">
      <g transform="matrix(1, 0, 0, 1, -9, -6)" filter="url(#Path_874925)">
        <g id="Path_874925-2" data-name="Path 874925" transform="translate(9 6)" fill="#efdb59" opacity="0.859">
          <path d="M 45.45676803588867 89.41407012939453 C 39.52198028564453 89.41407012939453 33.76551818847656 88.25206756591797 28.34726715087891 85.96034240722656 C 23.11311721801758 83.74648284912109 18.41204261779785 80.57682800292969 14.37464332580566 76.5394287109375 C 10.33724308013916 72.50202941894531 7.167593002319336 67.80095672607422 4.953730583190918 62.56679534912109 C 2.662005424499512 57.14855575561523 1.500005483627319 51.39208221435547 1.500005483627319 45.45729446411133 C 1.500005483627319 39.52198028564453 2.662005424499512 33.76551818847656 4.953730583190918 28.34726905822754 C 7.167593002319336 23.11310577392578 10.33724308013916 18.41203117370605 14.37464332580566 14.37464332580566 C 18.41204261779785 10.33724403381348 23.11311721801758 7.167593955993652 28.34726715087891 4.953731060028076 C 33.76551818847656 2.662006139755249 39.52198028564453 1.500006198883057 45.45676803588867 1.500006198883057 C 51.39155578613281 1.500006198883057 57.14802932739258 2.662006139755249 62.56626892089844 4.953731060028076 C 67.80043029785156 7.167593955993652 72.50150299072266 10.33724403381348 76.53890228271484 14.37464332580566 C 80.57630920410156 18.41203117370605 83.74595642089844 23.11310577392578 85.95981597900391 28.34726905822754 C 88.25154113769531 33.76551818847656 89.41354370117188 39.52198028564453 89.41354370117188 45.45676803588867 C 89.41354370117188 51.39208221435547 88.25154113769531 57.14855575561523 85.95981597900391 62.56679534912109 C 83.74595642089844 67.80095672607422 80.57630920410156 72.50202941894531 76.53890228271484 76.5394287109375 C 72.50150299072266 80.57682800292969 67.80043029785156 83.74648284912109 62.56626892089844 85.96034240722656 C 57.14802932739258 88.25206756591797 51.39155578613281 89.41407012939453 45.45676803588867 89.41407012939453 Z" stroke="none"/>
          <path d="M 45.45676803588867 3 C 39.72381210327148 3 34.1639404296875 4.12213134765625 28.93159484863281 6.335227966308594 C 23.87622833251953 8.473472595214844 19.33542633056641 11.53517150878906 15.43529510498047 15.435302734375 C 11.53517150878906 19.33543395996094 8.473464965820312 23.87622833251953 6.335227966308594 28.93160247802734 C 4.122123718261719 34.16394424438477 3 39.72381591796875 3 45.4572868347168 C 3 51.19024658203125 4.122123718261719 56.75011825561523 6.335227966308594 61.98246002197266 C 8.473464965820312 67.03782653808594 11.53517150878906 71.57862854003906 15.43529510498047 75.478759765625 C 19.33542633056641 79.37889099121094 23.87622833251953 82.44058990478516 28.93159484863281 84.57883453369141 C 34.1639404296875 86.79193115234375 39.72381210327148 87.9140625 45.45676803588867 87.9140625 C 51.18972396850586 87.9140625 56.74959564208984 86.79193115234375 61.98194122314453 84.57883453369141 C 67.03730773925781 82.44058990478516 71.57810974121094 79.37889099121094 75.47824096679688 75.478759765625 C 79.37837219238281 71.57862854003906 82.44007110595703 67.03782653808594 84.57830810546875 61.98246002197266 C 86.79141235351562 56.75011825561523 87.91353607177734 51.19024658203125 87.91353607177734 45.4567756652832 C 87.91353607177734 39.72381591796875 86.79141235351562 34.16394424438477 84.57830810546875 28.93160247802734 C 82.44007110595703 23.87622833251953 79.37837219238281 19.33543395996094 75.47824096679688 15.435302734375 C 71.57810974121094 11.53517150878906 67.03730773925781 8.473472595214844 61.98194122314453 6.335227966308594 C 56.74959564208984 4.12213134765625 51.18972396850586 3 45.45676803588867 3 M 45.45676803588867 0 C 70.56185150146484 0 90.91353607177734 20.35169219970703 90.91353607177734 45.4567756652832 L 90.91353607177734 45.4572868347168 C 90.91353607177734 70.5623779296875 70.56185150146484 90.9140625 45.45676803588867 90.9140625 C 20.3516845703125 90.9140625 0 70.5623779296875 0 45.4572868347168 L 0 45.4567756652832 C 0 20.35169219970703 20.3516845703125 0 45.45676803588867 0 Z" stroke="none" fill="#fff"/>
        </g>
      </g>
      <g id="Path_874923" data-name="Path 874923" transform="translate(0 0)" fill="none">
        <path d="M45.457,0A45.457,45.457,0,0,1,90.914,45.457h0A45.457,45.457,0,0,1,0,45.457H0A45.457,45.457,0,0,1,45.457,0Z" stroke="none"/>
        <path d="M 45.45676803588867 3 C 39.72381210327148 3 34.1639404296875 4.12213134765625 28.93159484863281 6.335227966308594 C 23.87622833251953 8.473472595214844 19.33542633056641 11.53517150878906 15.43529510498047 15.435302734375 C 11.53517150878906 19.33543395996094 8.473464965820312 23.87622833251953 6.335227966308594 28.93160247802734 C 4.122123718261719 34.16394424438477 3 39.72381591796875 3 45.4572868347168 C 3 51.19024658203125 4.122123718261719 56.75011825561523 6.335227966308594 61.98246002197266 C 8.473464965820312 67.03782653808594 11.53517150878906 71.57862854003906 15.43529510498047 75.478759765625 C 19.33542633056641 79.37889099121094 23.87622833251953 82.44058990478516 28.93159484863281 84.57883453369141 C 34.1639404296875 86.79193115234375 39.72381210327148 87.9140625 45.45676803588867 87.9140625 C 51.18972396850586 87.9140625 56.74959564208984 86.79193115234375 61.98194122314453 84.57883453369141 C 67.03730773925781 82.44058990478516 71.57810974121094 79.37889099121094 75.47824096679688 75.478759765625 C 79.37837219238281 71.57862854003906 82.44007110595703 67.03782653808594 84.57830810546875 61.98246002197266 C 86.79141235351562 56.75011825561523 87.91353607177734 51.19024658203125 87.91353607177734 45.4567756652832 C 87.91353607177734 39.72381591796875 86.79141235351562 34.16394424438477 84.57830810546875 28.93160247802734 C 82.44007110595703 23.87622833251953 79.37837219238281 19.33543395996094 75.47824096679688 15.435302734375 C 71.57810974121094 11.53517150878906 67.03730773925781 8.473472595214844 61.98194122314453 6.335227966308594 C 56.74959564208984 4.12213134765625 51.18972396850586 3 45.45676803588867 3 M 45.45676803588867 0 C 70.56185150146484 0 90.91353607177734 20.35169219970703 90.91353607177734 45.4567756652832 L 90.91353607177734 45.4572868347168 C 90.91353607177734 70.5623779296875 70.56185150146484 90.9140625 45.45676803588867 90.9140625 C 20.3516845703125 90.9140625 0 70.5623779296875 0 45.4572868347168 L 0 45.4567756652832 C 0 20.35169219970703 20.3516845703125 0 45.45676803588867 0 Z" stroke="none" fill="#fff"/>
      </g>
    </g>
    <g id="Group_1175685" data-name="Group 1175685" transform="translate(822.051 2530.694)">
      <g id="Group_1175680" data-name="Group 1175680" transform="translate(0 0.42)">
        <g id="Group_1175679" data-name="Group 1175679" clip-path="url(#clip-path)">
          <path id="Path_1031165" data-name="Path 1031165" d="M355.371,341.332v1.412a11.557,11.557,0,0,1-3.385,8.172v8.319l1.693,1.753h-6.347V342.107Z" transform="translate(-304.838 -299.899)" fill="#898998"/>
          <path id="Path_1031166" data-name="Path 1031166" d="M172.039,341.332v1.412a11.557,11.557,0,0,1-3.385,8.172v8.319l1.692,1.753H164V342.875Z" transform="translate(-143.935 -299.899)" fill="#898998"/>
          <path id="Path_1031167" data-name="Path 1031167" d="M102.507,192H121.26a9.64,9.64,0,0,1,9.641,9.641v6.268a7.581,7.581,0,0,1-7.581,7.581h-.514a11.552,11.552,0,0,1-2.738,4.363v8.319l1.692,1.754h-6.347V215.494h-.988a5.456,5.456,0,0,1-4.475,2.331h-9.716a11.551,11.551,0,0,1-1.619,2.032v8.319l1.692,1.754H93.961V215.494h-.146c-5.415,0-4.545-4.387-4.55-9.8l-.006-.425A13.247,13.247,0,0,1,102.507,192" transform="translate(-78.301 -168.84)" fill="#d8d8e4"/>
          <path id="Path_1031168" data-name="Path 1031168" d="M194.451,358.4a5.463,5.463,0,0,1-5.462,5.463h-9.716l2.151-5.463Z" transform="translate(-157.34 -314.88)" fill="#edf2fa"/>
          <path id="Path_1031169" data-name="Path 1031169" d="M78.5,180.962h3.4a11.69,11.69,0,0,0,11.358-8.927H91.025A13.251,13.251,0,0,0,78.5,180.962" transform="translate(-68.896 -151.314)" fill="#898998"/>
          <path id="Path_1031170" data-name="Path 1031170" d="M189.966,241.062a2.421,2.421,0,0,1,2.422-2.422h.1a2.113,2.113,0,0,0,2.113-2.113,2.112,2.112,0,0,1,1.754-2.08,4.52,4.52,0,0,0-.537-.033h-5.4a2.113,2.113,0,0,0-2.113,2.113,2.113,2.113,0,0,1-2.113,2.113h-.1a2.422,2.422,0,1,0,0,4.843h6.3a2.421,2.421,0,0,1-2.422-2.422" transform="translate(-161.197 -206.062)" fill="#fff"/>
          <path id="Path_1031171" data-name="Path 1031171" d="M245.534,239.186a4.534,4.534,0,0,0-4-4.5,2.112,2.112,0,0,0-1.754,2.08,2.113,2.113,0,0,1-2.113,2.113h-.1a2.422,2.422,0,0,0,0,4.843H241a4.535,4.535,0,0,0,4.535-4.535" transform="translate(-206.379 -206.299)" fill="#898998"/>
          <path id="Path_1031172" data-name="Path 1031172" d="M350.981,105.549a5.945,5.945,0,0,1-2.676-4.966v-.3l6.261,2.776Z" transform="translate(-305.692 -88.339)" fill="#898998"/>
          <path id="Path_1031173" data-name="Path 1031173" d="M340.793,142.688v-5.359h-.2l-.025-.083a4.968,4.968,0,0,1-2.69-1.082c-.178.13-.352.265-.519.408l-.293.459a3.408,3.408,0,0,0-2.621-.241,3.023,3.023,0,0,1-1.84.052l-.012,0a3.441,3.441,0,0,0,3.231,4.017l.02.065H336v4.2a9.424,9.424,0,0,0,4.919,8.278,4.4,4.4,0,0,0,4.211,0,9.29,9.29,0,0,0,1.063-.675,12.026,12.026,0,0,1-5.4-10.035" transform="translate(-291.894 -119.832)" fill="#fff"/>
          <path id="Path_1031174" data-name="Path 1031174" d="M388.038,133.515v-4.209a3.445,3.445,0,0,0,3.25-4.019l-.012,0a3.02,3.02,0,0,1-1.84-.051,3.367,3.367,0,0,0-2.526.2l-.579-.47a8.454,8.454,0,0,0-10.464-.408,4.968,4.968,0,0,0,2.69,1.082l.025.083h.2v5.36a12.025,12.025,0,0,0,5.4,10.035,9.426,9.426,0,0,0,3.855-7.6" transform="translate(-329.882 -108.227)" fill="#d8d8e4"/>
          <path id="Path_1031175" data-name="Path 1031175" d="M383.645,245.742a4.683,4.683,0,0,1,8.389,0,9.435,9.435,0,0,1-2.089,1.546,4.406,4.406,0,0,1-4.212,0,9.431,9.431,0,0,1-2.088-1.546" transform="translate(-336.708 -213.721)" fill="#898998"/>
          <path id="Path_1031176" data-name="Path 1031176" d="M437.121,105.549a5.946,5.946,0,0,0,2.676-4.966v-.3l-6.262,2.776Z" transform="translate(-380.494 -88.339)" fill="#898998"/>
        </g>
      </g>
      <g id="Group_1175682" data-name="Group 1175682" transform="translate(0 0.42)">
        <g id="Group_1175681" data-name="Group 1175681" clip-path="url(#clip-path)">
          <path id="Path_1031177" data-name="Path 1031177" d="M282.026,138.088a1.223,1.223,0,1,1,.865.358,1.229,1.229,0,0,1-.865-.358" transform="translate(-247.207 -119.688)"/>
          <path id="Path_1031178" data-name="Path 1031178" d="M0,109.392v7.514a1.223,1.223,0,1,0,2.447,0v-7.514a11.091,11.091,0,0,1,7.715-10.551,14.707,14.707,0,0,0-1.456,1.276A14.376,14.376,0,0,0,4.473,110.36l.005,5.485a11.623,11.623,0,0,0,9.958,11.475v13.331a1.223,1.223,0,0,0,1.223,1.223H26.383a1.223,1.223,0,0,0,.881-2.073l-1.35-1.4v-7.382l1.042-1.252h4.692a6.654,6.654,0,0,0,4.239-1.52v12.4a1.223,1.223,0,0,0,1.223,1.223h11.57a1.223,1.223,0,0,0,.88-2.073l-1.349-1.4v-7.108a8.784,8.784,0,0,0,3.042-6.376,8.645,8.645,0,0,0,2.568-6.154V114.2a10.642,10.642,0,0,0,5.557-9.352v-3.21a4.648,4.648,0,0,0,2.044-1.248,4.963,4.963,0,0,0,1.2-3.843,1.216,1.216,0,0,0-.531-.959,1.18,1.18,0,0,0-1.059-.135,1.812,1.812,0,0,1-1.086-.037c-.113-.039-.228-.071-.343-.1a7.161,7.161,0,0,0,.917-3.512v-.3a1.224,1.224,0,0,0-1.72-1.119L52.545,93.16l-.038.02a9.5,9.5,0,0,0-3.1,0l-.038-.019-6.262-2.776A1.223,1.223,0,0,0,41.39,91.5v.3a7.161,7.161,0,0,0,.916,3.511c-.05.015-.1.03-.151.047a1.806,1.806,0,0,1-1.085.037,1.179,1.179,0,0,0-1.06.135,1.216,1.216,0,0,0-.531.959,4.964,4.964,0,0,0,1.2,3.843,4.7,4.7,0,0,0,2.2,1.294v3.218a10.643,10.643,0,0,0,5.557,9.353,5.62,5.62,0,0,0,2.691.688c.082,0,.163,0,.245-.008v3.882a6.234,6.234,0,0,1-5.247,6.148,12.917,12.917,0,0,0,.245-2.507v-1.412a1.223,1.223,0,0,0-2.447,0v1.412a10.266,10.266,0,0,1-3.027,7.307,1.223,1.223,0,0,0-.358.865V138.9a1.222,1.222,0,0,0,.121.53H38.335V121.769a1.223,1.223,0,0,0-2.447,0v1.314a4.244,4.244,0,0,1-4.239,4.24h-7.7a12.765,12.765,0,0,0,.976-4.916v-1.412a1.223,1.223,0,0,0-2.447,0v1.412a10.263,10.263,0,0,1-1.551,5.448c-.009.013-.017.027-.026.04a10.4,10.4,0,0,1-1.449,1.819,1.223,1.223,0,0,0-.358.865V138.9a1.222,1.222,0,0,0,.12.53H16.884v-12.29a1.222,1.222,0,0,0-.8-2.146,9.169,9.169,0,0,1-9.156-9.148l-.005-5.411H13A12.926,12.926,0,0,0,25.889,98.32h4.167a1.223,1.223,0,0,0,0-2.447H13.519A13.534,13.534,0,0,0,0,109.392m49.61,2.661a8.194,8.194,0,0,1-1.06-.69c.044-.049.088-.1.135-.146a3.463,3.463,0,0,1,4.892,0c.047.047.092.1.136.145a8.239,8.239,0,0,1-1.062.69,3.17,3.17,0,0,1-3.041,0M46.073,94.375a9.652,9.652,0,0,0-.969.649,4.7,4.7,0,0,1-.944-1.5Zm11.682-.848a4.7,4.7,0,0,1-.944,1.5,9.739,9.739,0,0,0-.969-.65Zm-.823,7.068v4.255a8.2,8.2,0,0,1-1.518,4.753c-.036-.038-.07-.077-.107-.115a5.913,5.913,0,0,0-8.352,0c-.037.037-.073.075-.109.113a8.2,8.2,0,0,1-1.516-4.751v-4.255a1.223,1.223,0,0,0-1.215-1.223h0a2.617,2.617,0,0,1-1.656-.718,1.932,1.932,0,0,1-.421-.769,4.318,4.318,0,0,0,.914-.208c1.243-.428,2.526.714,2.7.877l.013.014a1.224,1.224,0,0,0,1.98-1.4,1.576,1.576,0,0,0-.275-.353c.016.014.031.028.045.043-.017-.017-.034-.033-.051-.049-.069-.07-.149-.142-.232-.213a7.226,7.226,0,0,1,7.8.093c-.065.057-.128.115-.184.172-.019.017-.037.035-.054.053l.045-.043-.043.045h0a1.458,1.458,0,0,0-.231.307,1.224,1.224,0,0,0,1.979,1.4l.013-.014c.175-.164,1.458-1.3,2.7-.877a4.321,4.321,0,0,0,.914.208,1.943,1.943,0,0,1-.421.769,2.411,2.411,0,0,1-1.329.676,1.243,1.243,0,0,0-.163-.012,1.223,1.223,0,0,0-1.223,1.223M45.765,130.72V138.9a1.224,1.224,0,0,0,.121.53H43.978l-.989-1.025V131.07a12.731,12.731,0,0,0,2.362-3.637,8.617,8.617,0,0,0,3.086-.643,6.355,6.355,0,0,1-1.947,2.757l-.278.229a1.224,1.224,0,0,0-.446.945m-22.3-.143V138.9a1.224,1.224,0,0,0,.121.53H22.526l-.988-1.024V131.07a12.885,12.885,0,0,0,1.053-1.3h1.181l-.022.026a1.224,1.224,0,0,0-.283.783m-13.03-28.731a11.945,11.945,0,0,1,8.507-3.526h4.49A10.474,10.474,0,0,1,13,107.985H7.15a11.937,11.937,0,0,1,3.287-6.139" transform="translate(0 -79.561)"/>
        </g>
      </g>
      <g id="Group_1175684" data-name="Group 1175684" transform="translate(0 0.42)">
        <g id="Group_1175683" data-name="Group 1175683" clip-path="url(#clip-path)">
          <path id="Path_1031179" data-name="Path 1031179" d="M378.482,198.318h-.025a1.223,1.223,0,1,1,0-2.447h.025a1.223,1.223,0,1,1,0,2.447" transform="translate(-331.081 -172.234)"/>
          <path id="Path_1031180" data-name="Path 1031180" d="M436.565,198.318h-.025a1.223,1.223,0,1,1,0-2.447h.025a1.223,1.223,0,0,1,0,2.447" transform="translate(-382.057 -172.234)"/>
          <path id="Path_1031181" data-name="Path 1031181" d="M1.223,339a1.224,1.224,0,1,1-.865.358A1.231,1.231,0,0,1,1.223,339" transform="translate(0 -297.852)"/>
          <path id="Path_1031182" data-name="Path 1031182" d="M187.041,224.414h-5.4a3.34,3.34,0,0,0-3.337,3.337.891.891,0,0,1-.89.89h-.1a3.645,3.645,0,1,0,0,7.29h9.728a5.758,5.758,0,0,0,0-11.517m3.311,5.758a3.315,3.315,0,0,1-3.311,3.312h-9.728a1.2,1.2,0,1,1,0-2.4h.1a3.34,3.34,0,0,0,3.337-3.336.891.891,0,0,1,.889-.89h5.4a3.315,3.315,0,0,1,3.311,3.311" transform="translate(-152.421 -197.285)"/>
        </g>
      </g>
    </g>
  </g>
</svg>
