<svg xmlns="http://www.w3.org/2000/svg" xmlns:xlink="http://www.w3.org/1999/xlink" width="108.914" height="108.914" viewBox="0 0 108.914 108.914">
  <defs>
    <filter id="Path_874925" x="0" y="0" width="108.914" height="108.914" filterUnits="userSpaceOnUse">
      <feOffset dy="3" input="SourceAlpha"/>
      <feGaussianBlur stdDeviation="3" result="blur"/>
      <feFlood flood-opacity="0.161"/>
      <feComposite operator="in" in2="blur"/>
      <feComposite in="SourceGraphic"/>
    </filter>
  </defs>
  <g id="Group_1181038" data-name="Group 1181038" transform="translate(-1112.708 -2511.157)">
    <g id="Group_1109819" data-name="Group 1109819" transform="translate(1121.708 2517.157)">
      <g transform="matrix(1, 0, 0, 1, -9, -6)" filter="url(#Path_874925)">
        <g id="Path_874925-2" data-name="Path 874925" transform="translate(9 6)" fill="#efdb59" opacity="0.859">
          <path d="M 45.45676803588867 89.41407012939453 C 39.52198028564453 89.41407012939453 33.76551818847656 88.25206756591797 28.34726715087891 85.96034240722656 C 23.11311721801758 83.74648284912109 18.41204261779785 80.57682800292969 14.37464332580566 76.5394287109375 C 10.33724308013916 72.50202941894531 7.167593002319336 67.80095672607422 4.953730583190918 62.56679534912109 C 2.662005424499512 57.14855575561523 1.500005483627319 51.39208221435547 1.500005483627319 45.45729446411133 C 1.500005483627319 39.52198028564453 2.662005424499512 33.76551818847656 4.953730583190918 28.34726905822754 C 7.167593002319336 23.11310577392578 10.33724308013916 18.41203117370605 14.37464332580566 14.37464332580566 C 18.41204261779785 10.33724403381348 23.11311721801758 7.167593955993652 28.34726715087891 4.953731060028076 C 33.76551818847656 2.662006139755249 39.52198028564453 1.500006198883057 45.45676803588867 1.500006198883057 C 51.39155578613281 1.500006198883057 57.14802932739258 2.662006139755249 62.56626892089844 4.953731060028076 C 67.80043029785156 7.167593955993652 72.50150299072266 10.33724403381348 76.53890228271484 14.37464332580566 C 80.57630920410156 18.41203117370605 83.74595642089844 23.11310577392578 85.95981597900391 28.34726905822754 C 88.25154113769531 33.76551818847656 89.41354370117188 39.52198028564453 89.41354370117188 45.45676803588867 C 89.41354370117188 51.39208221435547 88.25154113769531 57.14855575561523 85.95981597900391 62.56679534912109 C 83.74595642089844 67.80095672607422 80.57630920410156 72.50202941894531 76.53890228271484 76.5394287109375 C 72.50150299072266 80.57682800292969 67.80043029785156 83.74648284912109 62.56626892089844 85.96034240722656 C 57.14802932739258 88.25206756591797 51.39155578613281 89.41407012939453 45.45676803588867 89.41407012939453 Z" stroke="none"/>
          <path d="M 45.45676803588867 3 C 39.72381210327148 3 34.1639404296875 4.12213134765625 28.93159484863281 6.335227966308594 C 23.87622833251953 8.473472595214844 19.33542633056641 11.53517150878906 15.43529510498047 15.435302734375 C 11.53517150878906 19.33543395996094 8.473464965820312 23.87622833251953 6.335227966308594 28.93160247802734 C 4.122123718261719 34.16394424438477 3 39.72381591796875 3 45.4572868347168 C 3 51.19024658203125 4.122123718261719 56.75011825561523 6.335227966308594 61.98246002197266 C 8.473464965820312 67.03782653808594 11.53517150878906 71.57862854003906 15.43529510498047 75.478759765625 C 19.33542633056641 79.37889099121094 23.87622833251953 82.44058990478516 28.93159484863281 84.57883453369141 C 34.1639404296875 86.79193115234375 39.72381210327148 87.9140625 45.45676803588867 87.9140625 C 51.18972396850586 87.9140625 56.74959564208984 86.79193115234375 61.98194122314453 84.57883453369141 C 67.03730773925781 82.44058990478516 71.57810974121094 79.37889099121094 75.47824096679688 75.478759765625 C 79.37837219238281 71.57862854003906 82.44007110595703 67.03782653808594 84.57830810546875 61.98246002197266 C 86.79141235351562 56.75011825561523 87.91353607177734 51.19024658203125 87.91353607177734 45.4567756652832 C 87.91353607177734 39.72381591796875 86.79141235351562 34.16394424438477 84.57830810546875 28.93160247802734 C 82.44007110595703 23.87622833251953 79.37837219238281 19.33543395996094 75.47824096679688 15.435302734375 C 71.57810974121094 11.53517150878906 67.03730773925781 8.473472595214844 61.98194122314453 6.335227966308594 C 56.74959564208984 4.12213134765625 51.18972396850586 3 45.45676803588867 3 M 45.45676803588867 0 C 70.56185150146484 0 90.91353607177734 20.35169219970703 90.91353607177734 45.4567756652832 L 90.91353607177734 45.4572868347168 C 90.91353607177734 70.5623779296875 70.56185150146484 90.9140625 45.45676803588867 90.9140625 C 20.3516845703125 90.9140625 0 70.5623779296875 0 45.4572868347168 L 0 45.4567756652832 C 0 20.35169219970703 20.3516845703125 0 45.45676803588867 0 Z" stroke="none" fill="#fff"/>
        </g>
      </g>
      <g id="Path_874923" data-name="Path 874923" transform="translate(0 0)" fill="none">
        <path d="M45.457,0A45.457,45.457,0,0,1,90.914,45.457h0A45.457,45.457,0,0,1,0,45.457H0A45.457,45.457,0,0,1,45.457,0Z" stroke="none"/>
        <path d="M 45.45676803588867 3 C 39.72381210327148 3 34.1639404296875 4.12213134765625 28.93159484863281 6.335227966308594 C 23.87622833251953 8.473472595214844 19.33542633056641 11.53517150878906 15.43529510498047 15.435302734375 C 11.53517150878906 19.33543395996094 8.473464965820312 23.87622833251953 6.335227966308594 28.93160247802734 C 4.122123718261719 34.16394424438477 3 39.72381591796875 3 45.4572868347168 C 3 51.19024658203125 4.122123718261719 56.75011825561523 6.335227966308594 61.98246002197266 C 8.473464965820312 67.03782653808594 11.53517150878906 71.57862854003906 15.43529510498047 75.478759765625 C 19.33542633056641 79.37889099121094 23.87622833251953 82.44058990478516 28.93159484863281 84.57883453369141 C 34.1639404296875 86.79193115234375 39.72381210327148 87.9140625 45.45676803588867 87.9140625 C 51.18972396850586 87.9140625 56.74959564208984 86.79193115234375 61.98194122314453 84.57883453369141 C 67.03730773925781 82.44058990478516 71.57810974121094 79.37889099121094 75.47824096679688 75.478759765625 C 79.37837219238281 71.57862854003906 82.44007110595703 67.03782653808594 84.57830810546875 61.98246002197266 C 86.79141235351562 56.75011825561523 87.91353607177734 51.19024658203125 87.91353607177734 45.4567756652832 C 87.91353607177734 39.72381591796875 86.79141235351562 34.16394424438477 84.57830810546875 28.93160247802734 C 82.44007110595703 23.87622833251953 79.37837219238281 19.33543395996094 75.47824096679688 15.435302734375 C 71.57810974121094 11.53517150878906 67.03730773925781 8.473472595214844 61.98194122314453 6.335227966308594 C 56.74959564208984 4.12213134765625 51.18972396850586 3 45.45676803588867 3 M 45.45676803588867 0 C 70.56185150146484 0 90.91353607177734 20.35169219970703 90.91353607177734 45.4567756652832 L 90.91353607177734 45.4572868347168 C 90.91353607177734 70.5623779296875 70.56185150146484 90.9140625 45.45676803588867 90.9140625 C 20.3516845703125 90.9140625 0 70.5623779296875 0 45.4572868347168 L 0 45.4567756652832 C 0 20.35169219970703 20.3516845703125 0 45.45676803588867 0 Z" stroke="none" fill="#fff"/>
      </g>
    </g>
    <g id="meat_1046769" transform="translate(1138.973 2538.643)">
      <path id="Path_897323" data-name="Path 897323" d="M44.317,77.231a8.954,8.954,0,0,1-6.876-3.252c-1.125-1.353-1.62-3.214-2.192-5.369-.8-3-1.787-6.729-4.893-10.165-3.08-3.406-6.889-4.889-10.249-6.2-4.961-1.932-6.974-2.891-6.974-7.289a4.262,4.262,0,0,1,.89-2.723c-3.94,2.6-6.462,5.878-6.4,9.48.158,9.374,9.876,7.647,15.674,14.059,6.131,6.78,1.32,13.375,13.741,18.2,6.526,2.533,17.458-.818,22.94-14.353-.135.171-8.416,7.791-15.658,7.613Zm0,0" transform="translate(-6.78 -37.639)" fill="#ea3942"/>
      <path id="Path_897324" data-name="Path 897324" d="M83.438,29.419c0,11.338-9.54,23-21.853,20.529-13.1-2.633-7.968-10.909-14.1-17.689C41.687,25.848,31.345,28.3,31.345,18.2c0-9.147,15.833-11.589,30.24-9.31,11.921,1.886,21.853,9.191,21.853,20.529Zm0,0" transform="translate(-27.893 -7.256)" fill="#f3e8d7"/>
      <path id="Path_897325" data-name="Path 897325" d="M245.7,65.477a17.483,17.483,0,0,1,3.333,10.393c0,11.337-9.54,23-21.854,20.529a19.3,19.3,0,0,1-4.559-1.442c1.226,2.7,3.473,4.911,9.175,6.057,12.313,2.475,21.853-9.191,21.853-20.529,0-6.348-3.114-11.432-7.948-15.008Zm0,0" transform="translate(-198.105 -58.321)" fill="#e5d6c1"/>
      <path id="Path_897326" data-name="Path 897326" d="M96.373,77.634A11.885,11.885,0,0,1,91,76.65,7.194,7.194,0,0,1,88.039,74.4a11.06,11.06,0,0,1-1.466-3.792A24.55,24.55,0,0,0,83.3,62.594c-2.451-3.515-6.367-5.748-10.39-7.227a16.834,16.834,0,0,1-4.114-1.854,4.484,4.484,0,0,1-2.069-3.8c.158-1.933,1.974-3.287,3.745-4.079,4.878-2.179,10.522-2.5,15.786-2.1,5.367.4,11.1,1.387,15.868,4,4.706,2.578,8.2,7.031,8.669,12.451a17.472,17.472,0,0,1-6.156,14.482,14.16,14.16,0,0,1-8.261,3.171Zm0,0" transform="translate(-59.366 -38.663)" fill="#fc4e51"/>
      <path id="Path_897327" data-name="Path 897327" d="M274.925,101.284A15.631,15.631,0,0,0,267.834,89.8a14.5,14.5,0,0,1,2.408,6.8,17.472,17.472,0,0,1-6.156,14.482,14.163,14.163,0,0,1-8.262,3.171,12.044,12.044,0,0,1-4.664-.7,7.468,7.468,0,0,0,1.014,2.148,7.2,7.2,0,0,0,2.961,2.249,11.883,11.883,0,0,0,5.373.983,14.161,14.161,0,0,0,8.261-3.171,17.471,17.471,0,0,0,6.156-14.482Zm0,0" transform="translate(-223.501 -79.967)" fill="#ea3942"/>
      <path id="Path_897328" data-name="Path 897328" d="M184.67,84.257a3.444,3.444,0,1,1-3.444-3.444A3.445,3.445,0,0,1,184.67,84.257Zm0,0" transform="translate(-158.203 -71.968)" fill="#f3e8d7"/>
      <path id="Path_897329" data-name="Path 897329" d="M49.642,8.223A31.706,31.706,0,0,0,33.823,1.306,60.942,60.942,0,0,0,17.743.828C12.4,1.453,8.218,2.941,5.656,5.13c-.136.116-.266.234-.392.353C1.767,8.211-.053,11.359,0,14.59A8.738,8.738,0,0,0,2.685,21.2a19.785,19.785,0,0,0,5.681,3.254c2.643,1.161,5.375,2.361,7.527,4.741a16.738,16.738,0,0,1,3.613,7.239A16.982,16.982,0,0,0,22.169,42.4c1.648,2.138,4.121,3.8,7.783,5.217a12.856,12.856,0,0,0,4.654.829,17.238,17.238,0,0,0,7.9-2.018c3.431-1.793,8.2-5.6,11.438-13.561a23.146,23.146,0,0,0,2.441-10.2,18.8,18.8,0,0,0-6.743-14.44ZM41.728,44.938c-3.745,1.958-7.92,2.373-11.169,1.112-7.314-2.84-8.3-6.2-9.444-10.087a18.368,18.368,0,0,0-3.979-7.891c-2.393-2.646-5.423-3.977-8.1-5.152-4.064-1.786-7.274-3.2-7.361-8.359a7.344,7.344,0,0,1,.952-3.652c-.011.177-.018.354-.018.535a8.821,8.821,0,0,0,2.735,6.962A18.824,18.824,0,0,0,11.3,21.55c2.724,1.06,5.54,2.157,7.673,4.516s2.829,4.957,3.493,7.462A15.305,15.305,0,0,0,25.183,39.8c1.732,2.083,4.383,3.423,8.343,4.219a17.462,17.462,0,0,0,3.444.346,17.23,17.23,0,0,0,9.352-2.786,19.659,19.659,0,0,1-4.593,3.364ZM52.492,32.022a.889.889,0,0,0-.074.142c-.009.024-.02.047-.029.071a20.731,20.731,0,0,1-5.321,6.727,15.759,15.759,0,0,1-10.024,3.732,16.17,16.17,0,0,1-3.187-.324c-7.721-1.552-8.626-4.959-9.771-9.273-.683-2.572-1.457-5.487-3.871-8.157-2.4-2.653-5.539-3.875-8.309-4.954-4.254-1.657-7.615-2.965-7.615-8.542A6.439,6.439,0,0,1,6.746,6.406c3.207-2.74,9.527-4.235,17.015-4.235a63.137,63.137,0,0,1,9.8.792A30.022,30.022,0,0,1,48.536,9.486a17.165,17.165,0,0,1,6.17,13.178,21.446,21.446,0,0,1-2.215,9.359Zm0,0" transform="translate(0 -0.5)"/>
      <path id="Path_897330" data-name="Path 897330" d="M104.083,54.955a.839.839,0,0,0-.906.766,16.981,16.981,0,0,1-5.383,10.9c-1.1-.87-1.528-2.274-2.19-4.434a43.091,43.091,0,0,0-2.573-6.775,18.7,18.7,0,0,0-6.095-6.57c1.853-1.081,6.332-3.114,13.393-2.8a14,14,0,0,1,2.681,5.967.839.839,0,0,0,.824.688.867.867,0,0,0,.152-.014.839.839,0,0,0,.675-.977,15.735,15.735,0,0,0-3.223-6.971c-.012-.016-.025-.032-.038-.048A18.788,18.788,0,0,0,95.747,40c-4.156-2.277-9.306-3.579-16.208-4.1-6.524-.492-11.82.219-16.191,2.171a7.1,7.1,0,0,0-3.967,3.6l-.013.034a4.16,4.16,0,0,0-.259,1.138A5.3,5.3,0,0,0,61.526,47.4a11.808,11.808,0,0,0,2.659,1.355.839.839,0,1,0,.6-1.566A10.1,10.1,0,0,1,62.5,46.037a3.69,3.69,0,0,1-1.721-3.052c0-.055.012-.115.022-.177a53.433,53.433,0,0,1,10.529,1.128c0,.073-.006.147-.006.221a4.282,4.282,0,0,0,7.907,2.28c2.8,1.24,9.881,4.778,12.286,9.705A41.674,41.674,0,0,1,94,62.674c.662,2.16,1.174,3.832,2.449,5A13.431,13.431,0,0,1,89.559,70a10.969,10.969,0,0,1-4.994-.911,6.333,6.333,0,0,1-2.623-1.974,9.779,9.779,0,0,1-1.288-3.33l-.047-.182a25.328,25.328,0,0,0-3.4-8.284,20.393,20.393,0,0,0-8.741-6.709.839.839,0,1,0-.678,1.535,18.763,18.763,0,0,1,8.043,6.133,23.84,23.84,0,0,1,3.152,7.745l.047.181A11.154,11.154,0,0,0,80.582,68.1a7.966,7.966,0,0,0,3.3,2.524,12.5,12.5,0,0,0,5.139,1.069q.3,0,.612-.013a14.919,14.919,0,0,0,8.731-3.339l.006-.005.02-.016a18.373,18.373,0,0,0,6.459-12.456.839.839,0,0,0-.765-.906ZM78.209,44.348a2.374,2.374,0,0,1-.489,1.337,2.6,2.6,0,0,1-4.714-1.5,3.014,3.014,0,0,1,.375-1.374,2.6,2.6,0,0,1,4.836,1.346c0,.064,0,.127-.008.19Zm1.627.516a4.283,4.283,0,0,0-8.087-2.558,57.247,57.247,0,0,0-10.032-1.179A7.3,7.3,0,0,1,64.033,39.6c4.11-1.836,9.141-2.5,15.38-2.03,6.655.5,11.589,1.74,15.527,3.9a17.6,17.6,0,0,1,3.872,2.856c-7.532,0-11.973,2.51-13.41,3.482a42.643,42.643,0,0,0-5.567-2.945Zm0,0" transform="translate(-52.589 -31.869)"/>
    </g>
  </g>
</svg>
