<svg xmlns="http://www.w3.org/2000/svg" xmlns:xlink="http://www.w3.org/1999/xlink" width="99" height="99" viewBox="0 0 99 99">
  <defs>
    <filter id="Rectangle_402509" x="0" y="0" width="99" height="99" filterUnits="userSpaceOnUse">
      <feOffset dy="3" input="SourceAlpha"/>
      <feGaussianBlur stdDeviation="3" result="blur"/>
      <feFlood flood-opacity="0.161"/>
      <feComposite operator="in" in2="blur"/>
      <feComposite in="SourceGraphic"/>
    </filter>
    <clipPath id="clip-path">
      <rect id="Rectangle_415652" data-name="Rectangle 415652" width="65.532" height="65.532" fill="none"/>
    </clipPath>
  </defs>
  <g id="Group_1109883" data-name="Group 1109883" transform="translate(-1011.73 -3087)">
    <g transform="matrix(1, 0, 0, 1, 1011.73, 3087)" filter="url(#Rectangle_402509)">
      <g id="Rectangle_402509-2" data-name="Rectangle 402509" transform="translate(9 6)" fill="#fff" stroke="#6a8051" stroke-width="3" opacity="0.859">
        <rect width="81" height="81" rx="40.5" stroke="none"/>
        <rect x="1.5" y="1.5" width="78" height="78" rx="39" fill="none"/>
      </g>
    </g>
    <g id="Group_1181101" data-name="Group 1181101" transform="translate(1028.464 3100.734)">
      <g id="Group_1181100" data-name="Group 1181100" transform="translate(0 0)" clip-path="url(#clip-path)">
        <path id="Path_1031444" data-name="Path 1031444" d="M65.532,65.532h0ZM53.051,32.279q5.013,0,10.027,0c.986,0,1.418-.387,1.306-1.356a43.713,43.713,0,0,0-.82-5.532A31.268,31.268,0,0,0,49.845,6.108,30.821,30.821,0,0,0,34.608,1.145c-.973-.058-1.356.337-1.357,1.319q0,9.993,0,19.986c0,.828.268,1.13,1.078,1.312a9.086,9.086,0,0,1,7.394,7.257c.254,1.08.479,1.26,1.62,1.26h9.708M33.249,53.2q0,4.98,0,9.962c0,1.019.382,1.442,1.395,1.334a41.444,41.444,0,0,0,5.035-.718A31.237,31.237,0,0,0,60.234,48.624a30.63,30.63,0,0,0,4.16-13.874c.06-.99-.325-1.381-1.292-1.382q-10-.006-19.991,0c-.866,0-1.15.252-1.347,1.112a9.1,9.1,0,0,1-7.29,7.364c-1.02.238-1.225.487-1.225,1.518q0,4.917,0,9.834M32.173,12.488q0-5.013,0-10.025c0-.978-.388-1.368-1.36-1.32a29.124,29.124,0,0,0-7.067,1.229A31.424,31.424,0,0,0,5.165,17.047a30.678,30.678,0,0,0-4.14,13.88c-.056.951.33,1.349,1.259,1.35q10.027.008,20.055,0c.828,0,1.129-.267,1.311-1.078a9.072,9.072,0,0,1,7.261-7.387c1.078-.252,1.263-.484,1.263-1.619q0-4.853,0-9.706M12.314,33.366q-4.981,0-9.963,0c-.97,0-1.389.374-1.321,1.282a32.157,32.157,0,0,0,.41,3.67A31.4,31.4,0,0,0,16.488,60.094,30.634,30.634,0,0,0,30.807,64.5c.969.059,1.363-.342,1.364-1.315q.006-9.993,0-19.986c0-.829-.269-1.137-1.072-1.316a9.1,9.1,0,0,1-7.418-7.312c-.235-1.008-.48-1.205-1.531-1.206H12.314m23.975-.49A3.579,3.579,0,1,0,32.642,36.4a3.537,3.537,0,0,0,3.647-3.527M38.96,27.7c-.257-.305-.45-.73-.76-.848a1.4,1.4,0,0,0-1.093.153,6.273,6.273,0,0,0-1.146,1.1,1.037,1.037,0,1,0,1.486,1.445,13.538,13.538,0,0,0,1.032-1.043,5.6,5.6,0,0,0,.481-.809M27.567,26.6c-.283.227-.7.4-.813.694a1.377,1.377,0,0,0,.112,1.1,6.63,6.63,0,0,0,1.193,1.232A1.025,1.025,0,0,0,29.5,28.171,13.638,13.638,0,0,0,28.333,27a3.871,3.871,0,0,0-.766-.4M29.886,36.74c-.226-.286-.4-.7-.683-.814a1.378,1.378,0,0,0-1.1.092,6.509,6.509,0,0,0-1.234,1.191,1.03,1.03,0,0,0,1.482,1.43,14.14,14.14,0,0,0,1.123-1.132,4.211,4.211,0,0,0,.411-.767M38.892,38c-.085-.26-.09-.413-.169-.495a16.288,16.288,0,0,0-1.66-1.634.844.844,0,0,0-1.181.289.93.93,0,0,0,0,1.282,6.773,6.773,0,0,0,1.276,1.239,1.355,1.355,0,0,0,1.1.091c.289-.118.455-.54.632-.773M33.729,26.453h0c0-.3.018-.6,0-.89a.971.971,0,0,0-1.01-.928.954.954,0,0,0-1.022.909,14.088,14.088,0,0,0,0,1.78.923.923,0,0,0,.967.9.979.979,0,0,0,1.056-.877,8.9,8.9,0,0,0,.005-.89M31.69,39.232a6.984,6.984,0,0,0,.006.89.934.934,0,0,0,.978.888.953.953,0,0,0,1.046-.884,16.452,16.452,0,0,0,0-1.78,1.021,1.021,0,0,0-2.031,0c-.023.3,0,.593,0,.89m-5.371-5.387c.275,0,.552.014.827,0A.983.983,0,0,0,28.11,32.8a.968.968,0,0,0-.942-.995c-.571-.025-1.146-.025-1.718,0a.956.956,0,0,0-.929,1,.969.969,0,0,0,.908,1.028c.295.024.593,0,.89.005m12.784,0c.3,0,.6.02.89,0a.968.968,0,0,0,.9-1.03.956.956,0,0,0-.933-1c-.572-.025-1.146-.025-1.718,0a.964.964,0,0,0-.937,1,.981.981,0,0,0,.966,1.037c.275.017.551,0,.827,0" transform="translate(0 0)" fill="#fefefe"/>
        <path id="Path_1031445" data-name="Path 1031445" d="M81.38,33.25H71.672c-1.141,0-1.366-.18-1.62-1.26a9.086,9.086,0,0,0-7.394-7.257c-.809-.181-1.077-.484-1.078-1.312q-.006-9.993,0-19.986c0-.982.383-1.377,1.356-1.319A30.816,30.816,0,0,1,78.174,7.079,31.265,31.265,0,0,1,91.893,26.36a43.811,43.811,0,0,1,.82,5.532c.112.969-.32,1.355-1.306,1.356q-5.014.007-10.027,0m2.893-16.206a4.7,4.7,0,0,0-1.509,2.223c-.4.975-.782,1.967-1.277,2.9a4.861,4.861,0,0,1-3.6,2.658,1.138,1.138,0,0,0-1.117,1.2c-.012.147-.017.294-.029.5,1.626,0,3.241.065,4.848-.023a2.122,2.122,0,0,1,2.242,1.253c.629,1.164,1.4,2.248,2.117,3.367h4.667a29.631,29.631,0,0,0-26.917-26.9c-.02.233-.044.378-.044.523q0,8.809,0,17.618a2.349,2.349,0,0,0,.076.421c.045.042.084.109.136.121A11.15,11.15,0,0,1,69.4,26.239c.108.116.263.265.4.266,1.5.019,3.008.012,4.656.012-.306-.915-.586-1.729-.849-2.549-.141-.441-.4-.55-.862-.5a4.512,4.512,0,0,1-3.687-1.042c-.945-.868-1.7-1.934-2.581-2.88a15.717,15.717,0,0,0-1.864-1.784c-.422-.327-.759-.638-.709-1.174a1.15,1.15,0,0,1,1.036-1.051,13.912,13.912,0,0,1,4.488-.293,5.783,5.783,0,0,1,5.055,4.209c.161.54.262,1.1.39,1.647A5.617,5.617,0,0,1,78.354,16.3a29.832,29.832,0,0,1,3.9-1.05c.232,0,.464,0,.7-.012,1.3-.076,1.8.61,1.321,1.809m-.814,14.1c-.484-.791-.914-1.445-1.292-2.129a.8.8,0,0,0-.814-.444c-3.232.013-6.463.007-9.695.009-.163,0-.326.014-.54.024.261.714.551,1.371.734,2.057a.551.551,0,0,0,.654.491c1.765-.016,3.529-.007,5.294-.007h5.659M67.3,17.229c.4.545.737,1.03,1.108,1.482a19.949,19.949,0,0,0,1.742,2.01,2.827,2.827,0,0,0,2.624.667c-.286-3.063-2.077-4.376-5.473-4.16m9.82,5.675a3.227,3.227,0,0,0,2.633-1.816c.572-1.161,1.033-2.378,1.558-3.608-3.6.6-4.74,2.635-4.192,5.424" transform="translate(-28.328 -0.971)" fill="#0a0b0c"/>
        <path id="Path_1031446" data-name="Path 1031446" d="M61.576,81.624q0-4.917,0-9.834c0-1.031.206-1.28,1.226-1.517a9.1,9.1,0,0,0,7.29-7.365c.2-.861.481-1.111,1.347-1.112q10,0,19.992,0c.967,0,1.351.393,1.291,1.382a30.628,30.628,0,0,1-4.16,13.874A31.238,31.238,0,0,1,68.008,92.2a41.417,41.417,0,0,1-5.035.718c-1.013.108-1.394-.314-1.395-1.334q-.006-4.981,0-9.962M89.665,63.933a.637.637,0,0,0-.125-.025q-8.552,0-17.1-.014c-.387,0-.476.169-.58.5a11.071,11.071,0,0,1-7.562,7.625c-.518.164-.623.394-.621.887.017,4.892.009,9.783.012,14.675,0,.765.021,1.529.031,2.294v.942A29.614,29.614,0,0,0,90.589,63.933Z" transform="translate(-28.328 -28.428)" fill="#110e0d"/>
        <path id="Path_1031447" data-name="Path 1031447" d="M33.041,13.46q0,4.853,0,9.706c0,1.135-.186,1.368-1.263,1.619a9.072,9.072,0,0,0-7.261,7.387c-.183.811-.483,1.078-1.312,1.078q-10.027.006-20.055,0c-.928,0-1.314-.4-1.258-1.351a30.68,30.68,0,0,1,4.14-13.88A31.425,31.425,0,0,1,24.613,3.344a29.124,29.124,0,0,1,7.067-1.229c.972-.048,1.359.341,1.36,1.32q.007,5.013,0,10.025M30.91,5.177c.013-.289.026-.577.044-.958a29.4,29.4,0,0,0-19.708,9.99A29.064,29.064,0,0,0,4.014,31.174l.941-.052a1.137,1.137,0,0,0,.188.031q8.527,0,17.054.013c.4,0,.469-.191.569-.509a11.094,11.094,0,0,1,7.679-7.667.6.6,0,0,0,.508-.7q-.015-8.334-.008-16.668c0-.147-.023-.3-.035-.443" transform="translate(-0.868 -0.971)" fill="#0e0f11"/>
        <path id="Path_1031448" data-name="Path 1031448" d="M13.184,61.8H23.02c1.051,0,1.3.2,1.531,1.206a9.1,9.1,0,0,0,7.417,7.312c.8.179,1.072.488,1.073,1.316q0,9.994,0,19.986c0,.972-.395,1.374-1.364,1.315a30.634,30.634,0,0,1-14.318-4.408A31.4,31.4,0,0,1,2.31,66.749a32.157,32.157,0,0,1-.41-3.67c-.068-.908.352-1.281,1.321-1.282q4.982-.006,9.963,0M30.892,72.263a2.191,2.191,0,0,0-.323-.155,11.179,11.179,0,0,1-7.12-5.963c-.349-.708-.592-1.468-.884-2.2a2.712,2.712,0,0,0-.427-.067q-8.814,0-17.629,0a4.026,4.026,0,0,0-.425.043c.891,14.308,13.186,26.027,26.854,26.824.012-.165.033-.331.033-.5q0-8.749,0-17.5a3.009,3.009,0,0,0-.077-.485" transform="translate(-0.871 -28.428)" fill="#0b0c0f"/>
        <path id="Path_1031449" data-name="Path 1031449" d="M61.11,57.793a3.579,3.579,0,1,1-3.54-3.631,3.542,3.542,0,0,1,3.54,3.631m-2.046-.06a1.532,1.532,0,1,0-1.542,1.539,1.571,1.571,0,0,0,1.542-1.539" transform="translate(-24.821 -24.917)" fill="#0d0c08"/>
        <path id="Path_1031450" data-name="Path 1031450" d="M69.331,50.534a5.6,5.6,0,0,1-.481.809,13.636,13.636,0,0,1-1.032,1.043,1.037,1.037,0,1,1-1.486-1.445,6.273,6.273,0,0,1,1.146-1.1,1.4,1.4,0,0,1,1.093-.154c.31.118.5.543.76.848" transform="translate(-30.37 -22.833)" fill="#0f0e10"/>
        <path id="Path_1031451" data-name="Path 1031451" d="M50.306,49.262a3.87,3.87,0,0,1,.766.4,13.556,13.556,0,0,1,1.17,1.173A1.025,1.025,0,0,1,50.8,52.285,6.631,6.631,0,0,1,49.6,51.054a1.379,1.379,0,0,1-.112-1.1c.112-.292.53-.467.813-.694" transform="translate(-22.738 -22.663)" fill="#0f0e10"/>
        <path id="Path_1031452" data-name="Path 1031452" d="M52.538,67.289a4.2,4.2,0,0,1-.411.766A14.051,14.051,0,0,1,51,69.187a1.03,1.03,0,0,1-1.482-1.429,6.509,6.509,0,0,1,1.234-1.191,1.376,1.376,0,0,1,1.1-.092c.288.113.457.528.683.814" transform="translate(-22.652 -30.548)" fill="#0f0e10"/>
        <path id="Path_1031453" data-name="Path 1031453" d="M69.248,68.433c-.177.232-.342.654-.632.773a1.355,1.355,0,0,1-1.1-.091,6.756,6.756,0,0,1-1.276-1.239.93.93,0,0,1,0-1.282.844.844,0,0,1,1.181-.289,16.292,16.292,0,0,1,1.66,1.634c.079.082.084.234.169.494" transform="translate(-30.356 -30.436)" fill="#0f0e10"/>
        <path id="Path_1031454" data-name="Path 1031454" d="M60.712,47.443a8.889,8.889,0,0,1-.005.89.98.98,0,0,1-1.056.878.923.923,0,0,1-.967-.9,14.088,14.088,0,0,1,0-1.78.954.954,0,0,1,1.022-.909.971.971,0,0,1,1.01.928c.022.3,0,.593,0,.89h0" transform="translate(-26.983 -20.99)" fill="#09090b"/>
        <path id="Path_1031455" data-name="Path 1031455" d="M58.679,71.117c0-.3-.019-.6,0-.89a1.021,1.021,0,0,1,2.031,0,16.326,16.326,0,0,1,0,1.781.953.953,0,0,1-1.046.884.934.934,0,0,1-.978-.888,7.085,7.085,0,0,1-.008-.89" transform="translate(-26.99 -31.885)" fill="#09090b"/>
        <path id="Path_1031456" data-name="Path 1031456" d="M47.212,60.929c-.3,0-.6.019-.89,0a.969.969,0,0,1-.908-1.028.956.956,0,0,1,.929-1c.572-.026,1.146-.025,1.718,0a.968.968,0,0,1,.941.995.983.983,0,0,1-.963,1.04c-.275.017-.551,0-.827,0" transform="translate(-20.893 -27.085)" fill="#09090a"/>
        <path id="Path_1031457" data-name="Path 1031457" d="M70.893,60.929c-.276,0-.552.015-.827,0A.981.981,0,0,1,69.1,59.89a.964.964,0,0,1,.937-1c.572-.025,1.146-.025,1.718,0a.955.955,0,0,1,.933,1,.969.969,0,0,1-.9,1.031c-.295.024-.593,0-.89,0" transform="translate(-31.789 -27.085)" fill="#09090a"/>
        <path id="Path_1031458" data-name="Path 1031458" d="M84.089,17.839a29.746,29.746,0,0,0-3.9,1.05A5.617,5.617,0,0,0,76.7,23.694c-.129-.549-.229-1.107-.39-1.647a5.784,5.784,0,0,0-5.054-4.21,13.916,13.916,0,0,0-4.489.293,1.149,1.149,0,0,0-1.036,1.05c-.05.537.287.847.709,1.174A15.806,15.806,0,0,1,68.3,22.14c.876.946,1.636,2.012,2.581,2.88a4.513,4.513,0,0,0,3.687,1.042c.461-.052.721.057.862.5.263.82.543,1.634.849,2.55-1.647,0-3.152.007-4.656-.012-.135,0-.29-.151-.4-.267A11.149,11.149,0,0,0,65.7,25.5c-.052-.014-.091-.08-.136-.122V7.741a28.964,28.964,0,0,1,19.127,9.9l-.6.195" transform="translate(-30.162 -3.561)" fill="#79bae8"/>
        <path id="Path_1031459" data-name="Path 1031459" d="M98.863,43.841c-.712-1.119-1.488-2.2-2.117-3.367A2.122,2.122,0,0,0,94.5,39.221c-1.606.087-3.221.023-4.848.023.011-.2.017-.349.029-.5a1.138,1.138,0,0,1,1.117-1.2,4.861,4.861,0,0,0,3.6-2.658c.495-.928.874-1.92,1.277-2.9a4.709,4.709,0,0,1,1.509-2.223,1.862,1.862,0,0,1,.37.335c.569.894,1.163,1.775,1.673,2.7a29.611,29.611,0,0,1,3.2,9.533c.077.467.075.946.116,1.5Z" transform="translate(-41.246 -13.695)" fill="#79bae8"/>
        <path id="Path_1031460" data-name="Path 1031460" d="M87.711,32.915H91.4c-.04-.555-.038-1.034-.116-1.5a29.61,29.61,0,0,0-3.2-9.533c-.51-.928-1.1-1.809-1.673-2.7a1.862,1.862,0,0,0-.37-.335c.478-1.2-.024-1.885-1.322-1.809-.231.014-.464.009-.7.013l.6-.195a28.959,28.959,0,0,0-19.127-9.9V24.581a2.35,2.35,0,0,1-.076-.421q-.006-8.809,0-17.618c0-.145.024-.29.044-.523a29.631,29.631,0,0,1,26.917,26.9Z" transform="translate(-30.094 -2.769)" fill="#4f9bd2"/>
        <path id="Path_1031461" data-name="Path 1031461" d="M91.588,53.694H85.928c-1.765,0-3.529-.009-5.294.008a.551.551,0,0,1-.654-.491c-.184-.686-.473-1.342-.734-2.057.214-.01.377-.024.54-.024,3.232,0,6.463,0,9.695-.009a.8.8,0,0,1,.814.444c.379.683.808,1.338,1.292,2.128" transform="translate(-36.457 -23.518)" fill="#e5a55f"/>
        <path id="Path_1031462" data-name="Path 1031462" d="M72.183,30.091c3.4-.217,5.187,1.1,5.473,4.16a2.827,2.827,0,0,1-2.624-.667,19.949,19.949,0,0,1-1.742-2.01c-.371-.452-.7-.937-1.108-1.482" transform="translate(-33.208 -13.833)" fill="#bbc73e"/>
        <path id="Path_1031463" data-name="Path 1031463" d="M90.258,36c-.549-2.789.589-4.828,4.192-5.424-.525,1.231-.986,2.447-1.558,3.608A3.227,3.227,0,0,1,90.258,36" transform="translate(-41.463 -14.066)" fill="#bcc73e"/>
        <path id="Path_1031464" data-name="Path 1031464" d="M65.5,91.663c-.011-.765-.031-1.529-.031-2.294,0-4.892.005-9.783-.012-14.675,0-.492.1-.722.621-.887a11.069,11.069,0,0,0,7.561-7.625c.1-.329.194-.5.581-.5q8.551.02,17.1.014a.635.635,0,0,1,.125.025c-.237,1.411-.4,2.84-.726,4.232a27.813,27.813,0,0,1-3.558,8.381,16.882,16.882,0,0,1-1.277,1.6l-2.1-4.5c-.915-1.961-1.819-3.927-2.747-5.881a1.048,1.048,0,0,0-1.948-.18c-.138.188-.263.386-.4.579l-2.286,3.327c-.535-1.065-1.033-2.05-1.523-3.038-.232-.468-.463-.923-1.08-.948s-.887.408-1.146.862q-2.166,3.788-4.335,7.574c-.359.626-.729,1.247-1.068,1.883a1.038,1.038,0,0,0,.871,1.646,5.7,5.7,0,0,0,.638.011l16.157.019a2.373,2.373,0,0,1-.292.489c-1.027,1.042-2,2.144-3.113,3.092a28.435,28.435,0,0,1-8.2,4.925,28.931,28.931,0,0,1-7.82,1.86" transform="translate(-30.115 -30.218)" fill="#f8a230"/>
        <path id="Path_1031465" data-name="Path 1031465" d="M65.541,91.7a28.931,28.931,0,0,0,7.82-1.86,28.435,28.435,0,0,0,8.2-4.925c1.109-.948,2.086-2.05,3.113-3.092a2.374,2.374,0,0,0,.292-.489c.824-.3,1.016-.573.959-1.36a16.88,16.88,0,0,0,1.277-1.6,27.813,27.813,0,0,0,3.558-8.381c.324-1.391.489-2.82.726-4.232h.924A29.614,29.614,0,0,1,65.541,92.638Z" transform="translate(-30.152 -30.251)" fill="#dc9359"/>
        <path id="Path_1031466" data-name="Path 1031466" d="M33.523,7.789c.012.147.035.3.035.443q0,8.334.008,16.668a.6.6,0,0,1-.508.7,11.094,11.094,0,0,0-7.679,7.667c-.1.317-.166.51-.569.509q-8.527-.022-17.054-.013a1.085,1.085,0,0,1-.188-.032c.228-1.394.373-2.807.7-4.177a28.467,28.467,0,0,1,4.988-10.493,7.7,7.7,0,0,1,.981-.929c-.221.659-.431,1.322-.67,1.975a1.775,1.775,0,0,1-.394.727A3.952,3.952,0,0,0,11.95,25.16a3.832,3.832,0,0,0,3.661,2.574q5.681.027,11.362,0a3.858,3.858,0,0,0,3.816-2.8,3.911,3.911,0,0,0-1.744-4.414,1.221,1.221,0,0,1-.438-.559,4.967,4.967,0,0,0-4.727-3.529,5.913,5.913,0,0,1-2.565-.6,5.508,5.508,0,0,0-5.655.67c.074-.163.106-.373.229-.48,1.036-.9,2.058-1.822,3.144-2.658a27.128,27.128,0,0,1,7.225-3.934,28.019,28.019,0,0,1,7.265-1.644" transform="translate(-3.482 -3.583)" fill="#cfe5f6"/>
        <path id="Path_1031467" data-name="Path 1031467" d="M13.434,17.318a7.7,7.7,0,0,0-.98.928A28.475,28.475,0,0,0,7.466,28.739c-.327,1.37-.471,2.783-.7,4.177l-.941.052A29.067,29.067,0,0,1,13.058,16,29.4,29.4,0,0,1,32.766,6.014c-.017.381-.031.67-.044.958a28.029,28.029,0,0,0-7.264,1.644,27.125,27.125,0,0,0-7.225,3.934c-1.087.836-2.108,1.759-3.145,2.658-.123.107-.154.317-.229.48v0l-.158.132-1.266,1.5" transform="translate(-2.68 -2.767)" fill="#b5d7f1"/>
        <path id="Path_1031468" data-name="Path 1031468" d="M25.161,65.769c.292.736.535,1.5.884,2.2a11.178,11.178,0,0,0,7.12,5.963,2.245,2.245,0,0,1,.323.155V91.714a28.581,28.581,0,0,1-19-9.775,28.332,28.332,0,0,1-6.95-16.17ZM15.153,68.55a3.336,3.336,0,0,0-2.41,1.036,2.6,2.6,0,0,1-1.045.506,1.058,1.058,0,0,0-.951,1.079,1.012,1.012,0,0,0,1.109.976,3.27,3.27,0,0,0,2.22-.968c.9-.826,1.3-.82,2.231-.009a3.174,3.174,0,0,0,4.573.049c1.039-.88,1.312-.887,2.322,0a3.174,3.174,0,0,0,2.3.92.939.939,0,0,0,.969-.907,1.07,1.07,0,0,0-.81-1.132,4.361,4.361,0,0,1-1.364-.689,3.236,3.236,0,0,0-4.545.065c-.961.874-1.319.882-2.272,0a3.072,3.072,0,0,0-2.326-.926m5.141,11.243a3.287,3.287,0,0,0-2.408,1.018,2.526,2.526,0,0,1-1.039.523c-.636.146-1.033.532-.988,1.113a1.031,1.031,0,0,0,1.147.943,3.3,3.3,0,0,0,2.211-.989c.864-.8,1.273-.771,2.193-.02a4.7,4.7,0,0,0,1.449.87,3.13,3.13,0,0,0,3.35-.979,1.224,1.224,0,0,1,1.384-.364,3.28,3.28,0,0,1,.849.658,2.983,2.983,0,0,0,2.208.817.93.93,0,0,0,.939-.936,1.062,1.062,0,0,0-.845-1.1,3.845,3.845,0,0,1-1.307-.665,3.243,3.243,0,0,0-4.546.025c-1,.9-1.331.908-2.319,0a3.051,3.051,0,0,0-2.279-.9m-2.6-5.621a3.278,3.278,0,0,0-2.356,1.012,2.566,2.566,0,0,1-1.04.527c-.641.148-1.036.527-.993,1.111a1.028,1.028,0,0,0,1.146.946,3.262,3.262,0,0,0,2.165-.951c.937-.856,1.3-.827,2.293-.009a4.434,4.434,0,0,0,1.4.825,3.117,3.117,0,0,0,3.3-.954,1.225,1.225,0,0,1,1.254-.429,2.217,2.217,0,0,1,.783.5,3.288,3.288,0,0,0,2.4,1.011.939.939,0,0,0,.973-.905,1.061,1.061,0,0,0-.81-1.133,3.976,3.976,0,0,1-1.316-.652,3.237,3.237,0,0,0-4.6.037c-.959.865-1.316.87-2.276-.021a3.068,3.068,0,0,0-2.334-.917" transform="translate(-3.468 -30.257)" fill="#79bae8"/>
        <path id="Path_1031469" data-name="Path 1031469" d="M24.43,65.712H6.807a28.337,28.337,0,0,0,6.95,16.17,28.583,28.583,0,0,0,19,9.775V74.034a3.074,3.074,0,0,1,.077.484q.006,8.75,0,17.5c0,.166-.022.332-.033.5C19.134,91.716,6.839,80,5.948,65.688a4.157,4.157,0,0,1,.425-.042q8.814,0,17.629,0a2.661,2.661,0,0,1,.427.067" transform="translate(-2.736 -30.199)" fill="#4f9cd3"/>
        <path id="Path_1031470" data-name="Path 1031470" d="M60.808,59.477a1.532,1.532,0,1,1-1.555-1.525,1.574,1.574,0,0,1,1.555,1.525" transform="translate(-26.565 -26.661)" fill="#ffd55e"/>
        <path id="Path_1031471" data-name="Path 1031471" d="M87.276,82.591c.056.787-.136,1.059-.96,1.36L70.16,83.932a5.846,5.846,0,0,1-.638-.011,1.038,1.038,0,0,1-.87-1.646c.339-.637.709-1.257,1.067-1.884q2.167-3.787,4.335-7.574c.259-.454.527-.888,1.146-.862s.849.48,1.08.948c.49.989.988,1.973,1.523,3.038l2.286-3.327c.132-.193.258-.39.4-.579a1.048,1.048,0,0,1,1.948.18c.928,1.954,1.833,3.92,2.747,5.881l2.1,4.5m-15.967-.805H84.618c-1.131-2.424-2.226-4.769-3.364-7.207-.661.962-1.263,1.833-1.862,2.706-.625.911-1.239,1.83-1.874,2.734-.467.664-1.042.807-1.57.422a1.069,1.069,0,0,1-.146-1.577,7.2,7.2,0,0,0,.464-.685.693.693,0,0,0,.063-.52c-.371-.8-.78-1.584-1.233-2.486-1.287,2.246-2.513,4.388-3.787,6.613" transform="translate(-31.499 -32.871)" fill="#0e0b09"/>
        <path id="Path_1031472" data-name="Path 1031472" d="M17.782,24.562l1.266-1.5.158-.132h0a5.508,5.508,0,0,1,5.654-.67,5.915,5.915,0,0,0,2.565.6A4.966,4.966,0,0,1,32.153,26.4a1.226,1.226,0,0,0,.439.559,3.911,3.911,0,0,1,1.744,4.414,3.858,3.858,0,0,1-3.816,2.8q-5.681.019-11.362,0A3.832,3.832,0,0,1,15.5,31.587a3.952,3.952,0,0,1,1.222-4.324,1.777,1.777,0,0,0,.394-.726c.239-.653.448-1.316.669-1.975m7.07,7.554c1.873,0,3.747,0,5.62,0a1.82,1.82,0,0,0,.693-3.55,1.259,1.259,0,0,1-.876-1.057,3.067,3.067,0,0,0-3.935-2.493,1.4,1.4,0,0,1-1.4-.322,3.268,3.268,0,0,0-2.714-.827,3.457,3.457,0,0,0-3.1,3.531,1.277,1.277,0,0,1-.663,1.207,1.832,1.832,0,0,0-1.07,2.2,1.885,1.885,0,0,0,2.019,1.312q2.714,0,5.428,0" transform="translate(-7.028 -10.01)" fill="#080a0b"/>
        <path id="Path_1031473" data-name="Path 1031473" d="M22.419,23.928l-.158.132.158-.132" transform="translate(-10.241 -11.008)" fill="#cfe5f6"/>
        <path id="Path_1031474" data-name="Path 1031474" d="M17.886,70.889a3.069,3.069,0,0,1,2.326.927c.954.884,1.312.875,2.272,0a3.236,3.236,0,0,1,4.545-.064,4.371,4.371,0,0,0,1.364.688,1.07,1.07,0,0,1,.81,1.132.939.939,0,0,1-.969.908,3.175,3.175,0,0,1-2.3-.921c-1.01-.889-1.283-.882-2.322,0a3.174,3.174,0,0,1-4.573-.048c-.932-.812-1.333-.816-2.231.009a3.27,3.27,0,0,1-2.22.968,1.013,1.013,0,0,1-1.11-.976,1.059,1.059,0,0,1,.952-1.079,2.593,2.593,0,0,0,1.045-.506,3.34,3.34,0,0,1,2.41-1.036" transform="translate(-6.201 -32.596)" fill="#06090b"/>
        <path id="Path_1031475" data-name="Path 1031475" d="M27.383,91.713a3.052,3.052,0,0,1,2.279.9c.988.91,1.315.9,2.319,0a3.243,3.243,0,0,1,4.546-.024,3.845,3.845,0,0,0,1.307.665,1.063,1.063,0,0,1,.845,1.1.93.93,0,0,1-.94.936,2.982,2.982,0,0,1-2.208-.817,3.289,3.289,0,0,0-.849-.658,1.224,1.224,0,0,0-1.384.364,3.13,3.13,0,0,1-3.35.979A4.7,4.7,0,0,1,28.5,94.3c-.921-.751-1.329-.78-2.194.019a3.3,3.3,0,0,1-2.211.99,1.03,1.03,0,0,1-1.147-.944c-.046-.581.353-.967.988-1.113a2.531,2.531,0,0,0,1.039-.522,3.286,3.286,0,0,1,2.408-1.018" transform="translate(-10.556 -42.177)" fill="#05080b"/>
        <path id="Path_1031476" data-name="Path 1031476" d="M22.6,81.3a3.068,3.068,0,0,1,2.334.917c.959.891,1.316.886,2.276.021a3.237,3.237,0,0,1,4.6-.037,3.976,3.976,0,0,0,1.316.652,1.061,1.061,0,0,1,.81,1.133.939.939,0,0,1-.973.906,3.288,3.288,0,0,1-2.4-1.011,2.217,2.217,0,0,0-.783-.5,1.225,1.225,0,0,0-1.254.429,3.117,3.117,0,0,1-3.3.954,4.435,4.435,0,0,1-1.4-.825c-.995-.817-1.356-.847-2.293.009a3.262,3.262,0,0,1-2.165.951,1.028,1.028,0,0,1-1.146-.946c-.043-.584.352-.962.993-1.111a2.566,2.566,0,0,0,1.04-.527A3.278,3.278,0,0,1,22.6,81.3" transform="translate(-8.378 -37.384)" fill="#05080b"/>
        <path id="Path_1031477" data-name="Path 1031477" d="M73.729,84.449c1.274-2.225,2.5-4.368,3.787-6.613.452.9.861,1.686,1.233,2.486a.693.693,0,0,1-.063.52,7.2,7.2,0,0,1-.464.685,1.069,1.069,0,0,0,.146,1.577c.528.385,1.1.242,1.57-.422.634-.9,1.249-1.823,1.874-2.734.6-.873,1.2-1.744,1.862-2.706,1.139,2.438,2.234,4.783,3.364,7.207Z" transform="translate(-33.919 -35.535)" fill="#6e6270"/>
        <path id="Path_1031478" data-name="Path 1031478" d="M26.6,33.876q-2.714,0-5.428,0a1.885,1.885,0,0,1-2.019-1.312,1.832,1.832,0,0,1,1.07-2.2,1.277,1.277,0,0,0,.663-1.207,3.457,3.457,0,0,1,3.1-3.531,3.267,3.267,0,0,1,2.714.827,1.4,1.4,0,0,0,1.4.322,3.067,3.067,0,0,1,3.935,2.493,1.259,1.259,0,0,0,.876,1.057,1.82,1.82,0,0,1-.693,3.55c-1.873.007-3.747,0-5.62,0" transform="translate(-8.774 -11.771)" fill="#b7d9f4"/>
      </g>
    </g>
  </g>
</svg>
