<svg xmlns="http://www.w3.org/2000/svg" xmlns:xlink="http://www.w3.org/1999/xlink" width="108.914" height="108.914" viewBox="0 0 108.914 108.914">
  <defs>
    <filter id="Path_874925" x="0" y="0" width="108.914" height="108.914" filterUnits="userSpaceOnUse">
      <feOffset dy="3" input="SourceAlpha"/>
      <feGaussianBlur stdDeviation="3" result="blur"/>
      <feFlood flood-opacity="0.161"/>
      <feComposite operator="in" in2="blur"/>
      <feComposite in="SourceGraphic"/>
    </filter>
    <clipPath id="clip-path">
      <rect id="Rectangle_415708" data-name="Rectangle 415708" width="53.629" height="53.629" fill="none"/>
    </clipPath>
  </defs>
  <g id="Group_1181038" data-name="Group 1181038" transform="translate(-1112.708 -2511.157)">
    <g id="Group_1109819" data-name="Group 1109819" transform="translate(1121.708 2517.157)">
      <g transform="matrix(1, 0, 0, 1, -9, -6)" filter="url(#Path_874925)">
        <g id="Path_874925-2" data-name="Path 874925" transform="translate(9 6)" fill="#dcd7ba" opacity="0.859">
          <path d="M 45.45676803588867 89.41407012939453 C 39.52198028564453 89.41407012939453 33.76551818847656 88.25206756591797 28.34726715087891 85.96034240722656 C 23.11311721801758 83.74648284912109 18.41204261779785 80.57682800292969 14.37464332580566 76.5394287109375 C 10.33724308013916 72.50202941894531 7.167593002319336 67.80095672607422 4.953730583190918 62.56679534912109 C 2.662005424499512 57.14855575561523 1.500005483627319 51.39208221435547 1.500005483627319 45.45729446411133 C 1.500005483627319 39.52198028564453 2.662005424499512 33.76551818847656 4.953730583190918 28.34726905822754 C 7.167593002319336 23.11310577392578 10.33724308013916 18.41203117370605 14.37464332580566 14.37464332580566 C 18.41204261779785 10.33724403381348 23.11311721801758 7.167593955993652 28.34726715087891 4.953731060028076 C 33.76551818847656 2.662006139755249 39.52198028564453 1.500006198883057 45.45676803588867 1.500006198883057 C 51.39155578613281 1.500006198883057 57.14802932739258 2.662006139755249 62.56626892089844 4.953731060028076 C 67.80043029785156 7.167593955993652 72.50150299072266 10.33724403381348 76.53890228271484 14.37464332580566 C 80.57630920410156 18.41203117370605 83.74595642089844 23.11310577392578 85.95981597900391 28.34726905822754 C 88.25154113769531 33.76551818847656 89.41354370117188 39.52198028564453 89.41354370117188 45.45676803588867 C 89.41354370117188 51.39208221435547 88.25154113769531 57.14855575561523 85.95981597900391 62.56679534912109 C 83.74595642089844 67.80095672607422 80.57630920410156 72.50202941894531 76.53890228271484 76.5394287109375 C 72.50150299072266 80.57682800292969 67.80043029785156 83.74648284912109 62.56626892089844 85.96034240722656 C 57.14802932739258 88.25206756591797 51.39155578613281 89.41407012939453 45.45676803588867 89.41407012939453 Z" stroke="none"/>
          <path d="M 45.45676803588867 3 C 39.72381210327148 3 34.1639404296875 4.12213134765625 28.93159484863281 6.335227966308594 C 23.87622833251953 8.473472595214844 19.33542633056641 11.53517150878906 15.43529510498047 15.435302734375 C 11.53517150878906 19.33543395996094 8.473464965820312 23.87622833251953 6.335227966308594 28.93160247802734 C 4.122123718261719 34.16394424438477 3 39.72381591796875 3 45.4572868347168 C 3 51.19024658203125 4.122123718261719 56.75011825561523 6.335227966308594 61.98246002197266 C 8.473464965820312 67.03782653808594 11.53517150878906 71.57862854003906 15.43529510498047 75.478759765625 C 19.33542633056641 79.37889099121094 23.87622833251953 82.44058990478516 28.93159484863281 84.57883453369141 C 34.1639404296875 86.79193115234375 39.72381210327148 87.9140625 45.45676803588867 87.9140625 C 51.18972396850586 87.9140625 56.74959564208984 86.79193115234375 61.98194122314453 84.57883453369141 C 67.03730773925781 82.44058990478516 71.57810974121094 79.37889099121094 75.47824096679688 75.478759765625 C 79.37837219238281 71.57862854003906 82.44007110595703 67.03782653808594 84.57830810546875 61.98246002197266 C 86.79141235351562 56.75011825561523 87.91353607177734 51.19024658203125 87.91353607177734 45.4567756652832 C 87.91353607177734 39.72381591796875 86.79141235351562 34.16394424438477 84.57830810546875 28.93160247802734 C 82.44007110595703 23.87622833251953 79.37837219238281 19.33543395996094 75.47824096679688 15.435302734375 C 71.57810974121094 11.53517150878906 67.03730773925781 8.473472595214844 61.98194122314453 6.335227966308594 C 56.74959564208984 4.12213134765625 51.18972396850586 3 45.45676803588867 3 M 45.45676803588867 0 C 70.56185150146484 0 90.91353607177734 20.35169219970703 90.91353607177734 45.4567756652832 L 90.91353607177734 45.4572868347168 C 90.91353607177734 70.5623779296875 70.56185150146484 90.9140625 45.45676803588867 90.9140625 C 20.3516845703125 90.9140625 0 70.5623779296875 0 45.4572868347168 L 0 45.4567756652832 C 0 20.35169219970703 20.3516845703125 0 45.45676803588867 0 Z" stroke="none" fill="#fff"/>
        </g>
      </g>
      <g id="Path_874923" data-name="Path 874923" transform="translate(0 0)" fill="none">
        <path d="M45.457,0A45.457,45.457,0,0,1,90.914,45.457h0A45.457,45.457,0,0,1,0,45.457H0A45.457,45.457,0,0,1,45.457,0Z" stroke="none"/>
        <path d="M 45.45676803588867 3 C 39.72381210327148 3 34.1639404296875 4.12213134765625 28.93159484863281 6.335227966308594 C 23.87622833251953 8.473472595214844 19.33542633056641 11.53517150878906 15.43529510498047 15.435302734375 C 11.53517150878906 19.33543395996094 8.473464965820312 23.87622833251953 6.335227966308594 28.93160247802734 C 4.122123718261719 34.16394424438477 3 39.72381591796875 3 45.4572868347168 C 3 51.19024658203125 4.122123718261719 56.75011825561523 6.335227966308594 61.98246002197266 C 8.473464965820312 67.03782653808594 11.53517150878906 71.57862854003906 15.43529510498047 75.478759765625 C 19.33542633056641 79.37889099121094 23.87622833251953 82.44058990478516 28.93159484863281 84.57883453369141 C 34.1639404296875 86.79193115234375 39.72381210327148 87.9140625 45.45676803588867 87.9140625 C 51.18972396850586 87.9140625 56.74959564208984 86.79193115234375 61.98194122314453 84.57883453369141 C 67.03730773925781 82.44058990478516 71.57810974121094 79.37889099121094 75.47824096679688 75.478759765625 C 79.37837219238281 71.57862854003906 82.44007110595703 67.03782653808594 84.57830810546875 61.98246002197266 C 86.79141235351562 56.75011825561523 87.91353607177734 51.19024658203125 87.91353607177734 45.4567756652832 C 87.91353607177734 39.72381591796875 86.79141235351562 34.16394424438477 84.57830810546875 28.93160247802734 C 82.44007110595703 23.87622833251953 79.37837219238281 19.33543395996094 75.47824096679688 15.435302734375 C 71.57810974121094 11.53517150878906 67.03730773925781 8.473472595214844 61.98194122314453 6.335227966308594 C 56.74959564208984 4.12213134765625 51.18972396850586 3 45.45676803588867 3 M 45.45676803588867 0 C 70.56185150146484 0 90.91353607177734 20.35169219970703 90.91353607177734 45.4567756652832 L 90.91353607177734 45.4572868347168 C 90.91353607177734 70.5623779296875 70.56185150146484 90.9140625 45.45676803588867 90.9140625 C 20.3516845703125 90.9140625 0 70.5623779296875 0 45.4572868347168 L 0 45.4567756652832 C 0 20.35169219970703 20.3516845703125 0 45.45676803588867 0 Z" stroke="none" fill="#fff"/>
      </g>
    </g>
    <g id="Group_1181192" data-name="Group 1181192" transform="translate(1140.35 2535.8)">
      <g id="Group_1181191" data-name="Group 1181191" clip-path="url(#clip-path)">
        <path id="Path_1032053" data-name="Path 1032053" d="M0,53.629V0M26.753,42.459a15.7,15.7,0,1,0-15.689-15.72,15.681,15.681,0,0,0,15.689,15.72m17.27-25.016a3.837,3.837,0,0,0,.528-.193Q46.51,16.13,48.461,15c.46-.268.575-.629.352-.988s-.559-.406-1.04-.13c-.8.455-1.588.917-2.382,1.376-.524.3-1.049.6-1.573.907a.6.6,0,0,0-.295.8c.09.2.339.335.5.483M14.5,48.917a1.33,1.33,0,0,0,.412-.337q1.221-2.054,2.394-4.137a.649.649,0,0,0-1.119-.657c-.813,1.39-1.624,2.781-2.408,4.187-.249.446.1.959.722.944m22.444-5.431c-.7-.011-.981.5-.682,1.032.755,1.341,1.529,2.672,2.3,4a.623.623,0,0,0,.915.307.639.639,0,0,0,.214-.982c-.762-1.338-1.531-2.672-2.32-3.994a1.482,1.482,0,0,0-.432-.365M17.444,9.481a4.306,4.306,0,0,0-.2-.528q-1.109-1.936-2.231-3.864c-.277-.475-.608-.6-.973-.387-.389.224-.439.562-.146,1.072q1.02,1.777,2.048,3.549c.1.179.184.413.342.508a.98.98,0,0,0,.7.151c.2-.063.325-.34.464-.5M39.913,5.186c-.193-.185-.378-.51-.588-.527a.96.96,0,0,0-.751.375C37.791,6.3,37.061,7.606,36.317,8.9c-.272.473-.224.834.124,1.052.365.229.722.093,1.011-.4q1.1-1.89,2.188-3.787c.085-.147.147-.308.273-.575M5.167,13.611c-.182.2-.5.391-.512.6a.97.97,0,0,0,.391.741c1.266.781,2.563,1.511,3.852,2.253.484.279.882.215,1.08-.158.191-.358.053-.7-.416-.97q-1.906-1.109-3.819-2.205c-.146-.084-.308-.141-.576-.262M44.042,36.065c-.17.16-.437.3-.524.517-.15.368.053.649.4.846,1.278.726,2.547,1.468,3.822,2.2.515.3.851.248,1.077-.135s.087-.708-.422-1Q46.51,37.4,44.62,36.315c-.147-.084-.312-.137-.578-.25m-34.008.892c.022-.678-.476-1-.97-.724C7.689,37,6.329,37.79,4.972,38.588a.6.6,0,0,0-.277.882.611.611,0,0,0,.926.249c1.352-.77,2.7-1.543,4.042-2.336a1.505,1.505,0,0,0,.37-.427m17.373-32.6c0-.749,0-1.5,0-2.247,0-.53-.256-.858-.656-.82-.461.044-.638.339-.635.793q.015,2.247,0,4.494c0,.452.168.75.635.791.406.035.651-.282.656-.817.006-.732,0-1.463,0-2.195M4.329,27.4c.766,0,1.533-.007,2.3,0,.441.006.727-.2.736-.628s-.253-.66-.7-.659q-2.326,0-4.651,0c-.448,0-.717.23-.712.652s.286.641.73.636c.766-.009,1.533,0,2.3,0m44.839,0c.749,0,1.5,0,2.247,0,.527,0,.858-.259.816-.658-.049-.46-.343-.633-.8-.629-1.5.012-3,0-4.494.006-.5,0-.786.24-.793.631s.284.645.775.649c.749.008,1.5,0,2.247,0M26.119,49.158c0,.784,0,1.568,0,2.351,0,.445.227.718.651.714s.64-.287.639-.728q-.007-2.3,0-4.6a.649.649,0,0,0-.628-.744c-.4-.038-.654.264-.66.759-.009.749,0,1.5,0,2.247" fill="#fefeff"/>
        <path id="Path_1032054" data-name="Path 1032054" d="M53.688,69.4A15.7,15.7,0,1,1,69.4,53.7,15.683,15.683,0,0,1,53.688,69.4m0-30.121A14.425,14.425,0,1,0,68.122,53.709,14.45,14.45,0,0,0,53.691,39.277" transform="translate(-26.935 -26.94)" fill="#0d0c0c"/>
        <path id="Path_1032055" data-name="Path 1032055" d="M149.844,50.8c-.16-.148-.409-.28-.5-.482a.6.6,0,0,1,.295-.8c.523-.3,1.049-.6,1.573-.907.794-.459,1.586-.921,2.382-1.376.482-.275.816-.229,1.04.13s.108.72-.352.988q-1.949,1.136-3.91,2.252a3.836,3.836,0,0,1-.528.193" transform="translate(-105.821 -33.357)" fill="#0e0e0f"/>
        <path id="Path_1032056" data-name="Path 1032056" d="M47.843,154.725c-.625.014-.97-.5-.722-.944.784-1.406,1.6-2.8,2.408-4.187a.649.649,0,0,1,1.119.657q-1.169,2.085-2.394,4.137a1.33,1.33,0,0,1-.412.337" transform="translate(-33.344 -105.809)" fill="#0d0d0f"/>
        <path id="Path_1032057" data-name="Path 1032057" d="M124.934,149.356a1.476,1.476,0,0,1,.432.365c.789,1.322,1.558,2.656,2.32,3.994a.639.639,0,0,1-.214.982.622.622,0,0,1-.915-.307c-.776-1.329-1.55-2.66-2.3-4-.3-.533-.017-1.044.682-1.032" transform="translate(-87.991 -105.869)" fill="#0e0d0f"/>
        <path id="Path_1032058" data-name="Path 1032058" d="M50.8,20.687c-.139.161-.267.439-.464.5a.98.98,0,0,1-.7-.151c-.159-.1-.239-.329-.342-.508q-1.027-1.773-2.048-3.549c-.293-.51-.243-.848.146-1.072.365-.211.7-.089.973.387q1.123,1.927,2.231,3.864a4.307,4.307,0,0,1,.2.528" transform="translate(-33.358 -11.206)" fill="#0e0d0f"/>
        <path id="Path_1032059" data-name="Path 1032059" d="M127.9,16.527c-.126.268-.188.428-.273.575q-1.09,1.9-2.188,3.787c-.288.5-.645.632-1.011.4-.348-.218-.4-.579-.124-1.052.743-1.294,1.474-2.6,2.256-3.865a.961.961,0,0,1,.751-.375c.209.016.4.342.588.527" transform="translate(-87.99 -11.341)" fill="#0e0e0f"/>
        <path id="Path_1032060" data-name="Path 1032060" d="M16.5,46.749c.268.121.43.178.576.262q1.912,1.1,3.819,2.205c.469.273.607.612.416.97-.2.374-.6.437-1.08.158-1.29-.742-2.587-1.473-3.853-2.253a.971.971,0,0,1-.391-.741c.011-.21.331-.4.512-.6" transform="translate(-11.33 -33.138)" fill="#0d0d0f"/>
        <path id="Path_1032061" data-name="Path 1032061" d="M149.866,123.867c.266.114.431.167.578.251q1.89,1.081,3.774,2.174c.509.3.644.628.422,1s-.562.43-1.077.135c-1.275-.731-2.544-1.473-3.822-2.2-.347-.2-.549-.479-.4-.847.088-.215.354-.357.524-.517" transform="translate(-105.824 -87.802)" fill="#0e0e10"/>
        <path id="Path_1032062" data-name="Path 1032062" d="M21.223,124.927a1.519,1.519,0,0,1-.37.427c-1.339.793-2.69,1.566-4.043,2.336a.611.611,0,0,1-.926-.249.6.6,0,0,1,.277-.882c1.356-.8,2.717-1.59,4.092-2.356.494-.275.991.046.97.724" transform="translate(-11.189 -87.97)" fill="#0e0d0f"/>
        <path id="Path_1032063" data-name="Path 1032063" d="M90.983,7.5c0,.732,0,1.463,0,2.195,0,.535-.25.852-.656.817-.466-.041-.638-.339-.635-.791q.014-2.247,0-4.494c0-.454.174-.749.635-.793.4-.038.651.289.656.82.006.749,0,1.5,0,2.247" transform="translate(-63.576 -3.14)" fill="#08080a"/>
        <path id="Path_1032064" data-name="Path 1032064" d="M7.493,90.992c-.766,0-1.533-.006-2.3,0-.444.005-.725-.212-.73-.636s.264-.653.712-.652q2.326.007,4.651,0c.449,0,.711.234.7.659s-.3.633-.736.628c-.766-.01-1.533,0-2.3,0" transform="translate(-3.164 -63.588)" fill="#08080a"/>
        <path id="Path_1032065" data-name="Path 1032065" d="M161.514,90.985c-.749,0-1.5.005-2.247,0-.491,0-.781-.257-.775-.649s.293-.63.793-.631c1.5,0,3,.006,4.494-.006.455,0,.75.17.8.629.042.4-.289.654-.816.658-.749.006-1.5,0-2.247,0" transform="translate(-112.346 -63.58)" fill="#08080a"/>
        <path id="Path_1032066" data-name="Path 1032066" d="M89.7,161.512c0-.749-.007-1.5,0-2.247.006-.5.263-.8.659-.759a.649.649,0,0,1,.628.744q-.009,2.3,0,4.6c0,.441-.214.724-.639.728s-.654-.269-.651-.714c0-.784,0-1.568,0-2.351" transform="translate(-63.58 -112.354)" fill="#08080a"/>
        <path id="Path_1032067" data-name="Path 1032067" d="M56.791,42.373A14.425,14.425,0,1,1,42.372,56.764,14.446,14.446,0,0,1,56.791,42.373" transform="translate(-30.035 -30.036)" fill="#ffc242"/>
      </g>
    </g>
  </g>
</svg>
