<svg xmlns="http://www.w3.org/2000/svg" xmlns:xlink="http://www.w3.org/1999/xlink" width="108.914" height="108.914" viewBox="0 0 108.914 108.914">
  <defs>
    <filter id="Path_874925" x="0" y="0" width="108.914" height="108.914" filterUnits="userSpaceOnUse">
      <feOffset dy="3" input="SourceAlpha"/>
      <feGaussianBlur stdDeviation="3" result="blur"/>
      <feFlood flood-opacity="0.161"/>
      <feComposite operator="in" in2="blur"/>
      <feComposite in="SourceGraphic"/>
    </filter>
  </defs>
  <g id="Group_1181037" data-name="Group 1181037" transform="translate(-1112.708 -2511.157)">
    <g id="Group_1109819" data-name="Group 1109819" transform="translate(1121.708 2517.157)">
      <g transform="matrix(1, 0, 0, 1, -9, -6)" filter="url(#Path_874925)">
        <g id="Path_874925-2" data-name="Path 874925" transform="translate(9 6)" fill="#dcd7ba" opacity="0.859">
          <path d="M 45.45676803588867 89.41407012939453 C 39.52198028564453 89.41407012939453 33.76551818847656 88.25206756591797 28.34726715087891 85.96034240722656 C 23.11311721801758 83.74648284912109 18.41204261779785 80.57682800292969 14.37464332580566 76.5394287109375 C 10.33724308013916 72.50202941894531 7.167593002319336 67.80095672607422 4.953730583190918 62.56679534912109 C 2.662005424499512 57.14855575561523 1.500005483627319 51.39208221435547 1.500005483627319 45.45729446411133 C 1.500005483627319 39.52198028564453 2.662005424499512 33.76551818847656 4.953730583190918 28.34726905822754 C 7.167593002319336 23.11310577392578 10.33724308013916 18.41203117370605 14.37464332580566 14.37464332580566 C 18.41204261779785 10.33724403381348 23.11311721801758 7.167593955993652 28.34726715087891 4.953731060028076 C 33.76551818847656 2.662006139755249 39.52198028564453 1.500006198883057 45.45676803588867 1.500006198883057 C 51.39155578613281 1.500006198883057 57.14802932739258 2.662006139755249 62.56626892089844 4.953731060028076 C 67.80043029785156 7.167593955993652 72.50150299072266 10.33724403381348 76.53890228271484 14.37464332580566 C 80.57630920410156 18.41203117370605 83.74595642089844 23.11310577392578 85.95981597900391 28.34726905822754 C 88.25154113769531 33.76551818847656 89.41354370117188 39.52198028564453 89.41354370117188 45.45676803588867 C 89.41354370117188 51.39208221435547 88.25154113769531 57.14855575561523 85.95981597900391 62.56679534912109 C 83.74595642089844 67.80095672607422 80.57630920410156 72.50202941894531 76.53890228271484 76.5394287109375 C 72.50150299072266 80.57682800292969 67.80043029785156 83.74648284912109 62.56626892089844 85.96034240722656 C 57.14802932739258 88.25206756591797 51.39155578613281 89.41407012939453 45.45676803588867 89.41407012939453 Z" stroke="none"/>
          <path d="M 45.45676803588867 3 C 39.72381210327148 3 34.1639404296875 4.12213134765625 28.93159484863281 6.335227966308594 C 23.87622833251953 8.473472595214844 19.33542633056641 11.53517150878906 15.43529510498047 15.435302734375 C 11.53517150878906 19.33543395996094 8.473464965820312 23.87622833251953 6.335227966308594 28.93160247802734 C 4.122123718261719 34.16394424438477 3 39.72381591796875 3 45.4572868347168 C 3 51.19024658203125 4.122123718261719 56.75011825561523 6.335227966308594 61.98246002197266 C 8.473464965820312 67.03782653808594 11.53517150878906 71.57862854003906 15.43529510498047 75.478759765625 C 19.33542633056641 79.37889099121094 23.87622833251953 82.44058990478516 28.93159484863281 84.57883453369141 C 34.1639404296875 86.79193115234375 39.72381210327148 87.9140625 45.45676803588867 87.9140625 C 51.18972396850586 87.9140625 56.74959564208984 86.79193115234375 61.98194122314453 84.57883453369141 C 67.03730773925781 82.44058990478516 71.57810974121094 79.37889099121094 75.47824096679688 75.478759765625 C 79.37837219238281 71.57862854003906 82.44007110595703 67.03782653808594 84.57830810546875 61.98246002197266 C 86.79141235351562 56.75011825561523 87.91353607177734 51.19024658203125 87.91353607177734 45.4567756652832 C 87.91353607177734 39.72381591796875 86.79141235351562 34.16394424438477 84.57830810546875 28.93160247802734 C 82.44007110595703 23.87622833251953 79.37837219238281 19.33543395996094 75.47824096679688 15.435302734375 C 71.57810974121094 11.53517150878906 67.03730773925781 8.473472595214844 61.98194122314453 6.335227966308594 C 56.74959564208984 4.12213134765625 51.18972396850586 3 45.45676803588867 3 M 45.45676803588867 0 C 70.56185150146484 0 90.91353607177734 20.35169219970703 90.91353607177734 45.4567756652832 L 90.91353607177734 45.4572868347168 C 90.91353607177734 70.5623779296875 70.56185150146484 90.9140625 45.45676803588867 90.9140625 C 20.3516845703125 90.9140625 0 70.5623779296875 0 45.4572868347168 L 0 45.4567756652832 C 0 20.35169219970703 20.3516845703125 0 45.45676803588867 0 Z" stroke="none" fill="#fff"/>
        </g>
      </g>
      <g id="Path_874923" data-name="Path 874923" transform="translate(0 0)" fill="none">
        <path d="M45.457,0A45.457,45.457,0,0,1,90.914,45.457h0A45.457,45.457,0,0,1,0,45.457H0A45.457,45.457,0,0,1,45.457,0Z" stroke="none"/>
        <path d="M 45.45676803588867 3 C 39.72381210327148 3 34.1639404296875 4.12213134765625 28.93159484863281 6.335227966308594 C 23.87622833251953 8.473472595214844 19.33542633056641 11.53517150878906 15.43529510498047 15.435302734375 C 11.53517150878906 19.33543395996094 8.473464965820312 23.87622833251953 6.335227966308594 28.93160247802734 C 4.122123718261719 34.16394424438477 3 39.72381591796875 3 45.4572868347168 C 3 51.19024658203125 4.122123718261719 56.75011825561523 6.335227966308594 61.98246002197266 C 8.473464965820312 67.03782653808594 11.53517150878906 71.57862854003906 15.43529510498047 75.478759765625 C 19.33542633056641 79.37889099121094 23.87622833251953 82.44058990478516 28.93159484863281 84.57883453369141 C 34.1639404296875 86.79193115234375 39.72381210327148 87.9140625 45.45676803588867 87.9140625 C 51.18972396850586 87.9140625 56.74959564208984 86.79193115234375 61.98194122314453 84.57883453369141 C 67.03730773925781 82.44058990478516 71.57810974121094 79.37889099121094 75.47824096679688 75.478759765625 C 79.37837219238281 71.57862854003906 82.44007110595703 67.03782653808594 84.57830810546875 61.98246002197266 C 86.79141235351562 56.75011825561523 87.91353607177734 51.19024658203125 87.91353607177734 45.4567756652832 C 87.91353607177734 39.72381591796875 86.79141235351562 34.16394424438477 84.57830810546875 28.93160247802734 C 82.44007110595703 23.87622833251953 79.37837219238281 19.33543395996094 75.47824096679688 15.435302734375 C 71.57810974121094 11.53517150878906 67.03730773925781 8.473472595214844 61.98194122314453 6.335227966308594 C 56.74959564208984 4.12213134765625 51.18972396850586 3 45.45676803588867 3 M 45.45676803588867 0 C 70.56185150146484 0 90.91353607177734 20.35169219970703 90.91353607177734 45.4567756652832 L 90.91353607177734 45.4572868347168 C 90.91353607177734 70.5623779296875 70.56185150146484 90.9140625 45.45676803588867 90.9140625 C 20.3516845703125 90.9140625 0 70.5623779296875 0 45.4572868347168 L 0 45.4567756652832 C 0 20.35169219970703 20.3516845703125 0 45.45676803588867 0 Z" stroke="none" fill="#fff"/>
      </g>
    </g>
    <g id="Group_1181189" data-name="Group 1181189" transform="translate(1137.676 2533.229)">
      <g id="Group_1181190" data-name="Group 1181190">
        <path id="Path_1032050" data-name="Path 1032050" d="M55.322,33.989a6.048,6.048,0,0,0,4.011-2.313,13.423,13.423,0,0,0,2.545-5.681c.038-.167.071-.335.111-.5.177-.742.657-1,1.242-.51A16.461,16.461,0,0,1,65.8,27.475a15.752,15.752,0,0,1,2.931,7.409,38.093,38.093,0,0,1,.467,5.527,20.412,20.412,0,0,1-40.281,4.834,24.927,24.927,0,0,1,1.207-14.326A37.4,37.4,0,0,1,35.58,21.5a54.626,54.626,0,0,0,4.8-7.1,16.016,16.016,0,0,0,1.893-7.224,1.3,1.3,0,0,1,.4-.868c.327-.281.676-.02.97.208A28.214,28.214,0,0,1,54.487,23.428a51.956,51.956,0,0,1,.834,9.8c0,.228,0,.456,0,.756m7.893-7.354A14.782,14.782,0,0,1,60.463,32.5a7.256,7.256,0,0,1-5.75,2.939.675.675,0,0,1-.782-.755c-.026-1.281,0-2.567-.1-3.843a69.891,69.891,0,0,0-.728-7.1A26.516,26.516,0,0,0,45.052,9.5c-.426-.417-.9-.788-1.411-1.236a16.885,16.885,0,0,1-2.506,7.628c-1.479,2.33-3.074,4.592-4.716,6.812-3.387,4.579-5.991,9.457-6.5,15.269a20.5,20.5,0,0,0,.47,7.37,18.911,18.911,0,0,0,11.461,12.93c.275.116.554.223.873.351a.715.715,0,0,0-.027-.145c-.055-.078-.11-.156-.171-.229a10.475,10.475,0,0,1-1.989-10.285,19.086,19.086,0,0,1,3.024-5.528c1.137-1.614,2.176-3.263,2.154-5.358a.685.685,0,0,1,1.167-.5,12.593,12.593,0,0,1,4.778,8.6c.124,1.092.177,2.191.266,3.329a5.384,5.384,0,0,0,1.918-3.362c.145-.683.674-.905,1.223-.471a5.138,5.138,0,0,1,1.027,1.068,9.635,9.635,0,0,1,1.46,4.907,9.768,9.768,0,0,1-1.818,6.676c-.29.409-.591.809-.989,1.354.376-.148.582-.227.787-.31a19.1,19.1,0,0,0,10.292-9.362,19.367,19.367,0,0,0,1.95-10.185,26.462,26.462,0,0,0-1.187-6.717,13.164,13.164,0,0,0-3.37-5.476M47,38.5a12.893,12.893,0,0,1-2.2,4.568,31.7,31.7,0,0,0-1.758,2.673,10.453,10.453,0,0,0-1.243,8.6,7.33,7.33,0,0,0,7.935,5.179,7.228,7.228,0,0,0,5.692-4.277,9.187,9.187,0,0,0,.656-5.584,9.009,9.009,0,0,0-1.078-3.158c-.224.457-.4.852-.606,1.23a3.757,3.757,0,0,1-2.914,2.144c-.623.077-.945-.184-.977-.8-.068-1.315-.092-2.635-.237-3.942A11.489,11.489,0,0,0,47,38.5" transform="translate(-19.29 -4.208)" fill="#0d0b0a"/>
        <path id="Path_1032051" data-name="Path 1032051" d="M66.27,31.063a13.164,13.164,0,0,1,3.37,5.476,26.462,26.462,0,0,1,1.187,6.717,19.37,19.37,0,0,1-1.95,10.185A19.1,19.1,0,0,1,58.586,62.8c-.2.083-.411.162-.787.31.4-.545.7-.945.989-1.354a9.767,9.767,0,0,0,1.818-6.677,9.631,9.631,0,0,0-1.46-4.906,5.146,5.146,0,0,0-1.027-1.068c-.55-.434-1.078-.212-1.223.471a5.388,5.388,0,0,1-1.918,3.362c-.089-1.138-.142-2.237-.266-3.329a12.593,12.593,0,0,0-4.778-8.6.685.685,0,0,0-1.167.5c.021,2.1-1.017,3.745-2.155,5.358a19.085,19.085,0,0,0-3.024,5.528A10.474,10.474,0,0,0,45.578,62.68c.061.073.116.152.171.229a.715.715,0,0,1,.027.145c-.319-.128-.6-.235-.873-.351a18.91,18.91,0,0,1-11.461-12.93,20.5,20.5,0,0,1-.47-7.37c.51-5.812,3.114-10.69,6.5-15.269,1.641-2.22,3.237-4.482,4.716-6.812A16.881,16.881,0,0,0,46.7,12.694c.514.448.985.819,1.411,1.236a26.51,26.51,0,0,1,8.05,14.234,69.8,69.8,0,0,1,.729,7.1c.1,1.276.075,2.562.1,3.843a.675.675,0,0,0,.782.755,7.257,7.257,0,0,0,5.75-2.939,14.782,14.782,0,0,0,2.751-5.862" transform="translate(-22.346 -8.635)" fill="#fca121"/>
        <path id="Path_1032052" data-name="Path 1032052" d="M74.651,107.246a11.489,11.489,0,0,1,3.268,6.633c.145,1.307.168,2.627.237,3.942.032.613.354.874.977.8a3.757,3.757,0,0,0,2.914-2.144c.208-.378.382-.773.606-1.23a9.009,9.009,0,0,1,1.078,3.158,9.187,9.187,0,0,1-.656,5.584,7.228,7.228,0,0,1-5.692,4.277,7.33,7.33,0,0,1-7.935-5.179,10.453,10.453,0,0,1,1.243-8.6,31.7,31.7,0,0,1,1.758-2.673,12.893,12.893,0,0,0,2.2-4.568" transform="translate(-46.939 -72.958)" fill="#ea6518"/>
      </g>
    </g>
  </g>
</svg>
