<svg xmlns="http://www.w3.org/2000/svg" xmlns:xlink="http://www.w3.org/1999/xlink" width="108.914" height="108.914" viewBox="0 0 108.914 108.914">
  <defs>
    <filter id="Path_874925" x="0" y="0" width="108.914" height="108.914" filterUnits="userSpaceOnUse">
      <feOffset dy="3" input="SourceAlpha"/>
      <feGaussianBlur stdDeviation="3" result="blur"/>
      <feFlood flood-opacity="0.161"/>
      <feComposite operator="in" in2="blur"/>
      <feComposite in="SourceGraphic"/>
    </filter>
  </defs>
  <g id="Group_1181034" data-name="Group 1181034" transform="translate(-798.427 -2511.157)">
    <g id="Group_1109818" data-name="Group 1109818" transform="translate(807.427 2517.157)">
      <g transform="matrix(1, 0, 0, 1, -9, -6)" filter="url(#Path_874925)">
        <g id="Path_874925-2" data-name="Path 874925" transform="translate(9 6)" fill="#dcd7ba" opacity="0.859">
          <path d="M 45.45676803588867 89.41407012939453 C 39.52198028564453 89.41407012939453 33.76551818847656 88.25206756591797 28.34726715087891 85.96034240722656 C 23.11311721801758 83.74648284912109 18.41204261779785 80.57682800292969 14.37464332580566 76.5394287109375 C 10.33724308013916 72.50202941894531 7.167593002319336 67.80095672607422 4.953730583190918 62.56679534912109 C 2.662005424499512 57.14855575561523 1.500005483627319 51.39208221435547 1.500005483627319 45.45729446411133 C 1.500005483627319 39.52198028564453 2.662005424499512 33.76551818847656 4.953730583190918 28.34726905822754 C 7.167593002319336 23.11310577392578 10.33724308013916 18.41203117370605 14.37464332580566 14.37464332580566 C 18.41204261779785 10.33724403381348 23.11311721801758 7.167593955993652 28.34726715087891 4.953731060028076 C 33.76551818847656 2.662006139755249 39.52198028564453 1.500006198883057 45.45676803588867 1.500006198883057 C 51.39155578613281 1.500006198883057 57.14802932739258 2.662006139755249 62.56626892089844 4.953731060028076 C 67.80043029785156 7.167593955993652 72.50150299072266 10.33724403381348 76.53890228271484 14.37464332580566 C 80.57630920410156 18.41203117370605 83.74595642089844 23.11310577392578 85.95981597900391 28.34726905822754 C 88.25154113769531 33.76551818847656 89.41354370117188 39.52198028564453 89.41354370117188 45.45676803588867 C 89.41354370117188 51.39208221435547 88.25154113769531 57.14855575561523 85.95981597900391 62.56679534912109 C 83.74595642089844 67.80095672607422 80.57630920410156 72.50202941894531 76.53890228271484 76.5394287109375 C 72.50150299072266 80.57682800292969 67.80043029785156 83.74648284912109 62.56626892089844 85.96034240722656 C 57.14802932739258 88.25206756591797 51.39155578613281 89.41407012939453 45.45676803588867 89.41407012939453 Z" stroke="none"/>
          <path d="M 45.45676803588867 3 C 39.72381210327148 3 34.1639404296875 4.12213134765625 28.93159484863281 6.335227966308594 C 23.87622833251953 8.473472595214844 19.33542633056641 11.53517150878906 15.43529510498047 15.435302734375 C 11.53517150878906 19.33543395996094 8.473464965820312 23.87622833251953 6.335227966308594 28.93160247802734 C 4.122123718261719 34.16394424438477 3 39.72381591796875 3 45.4572868347168 C 3 51.19024658203125 4.122123718261719 56.75011825561523 6.335227966308594 61.98246002197266 C 8.473464965820312 67.03782653808594 11.53517150878906 71.57862854003906 15.43529510498047 75.478759765625 C 19.33542633056641 79.37889099121094 23.87622833251953 82.44058990478516 28.93159484863281 84.57883453369141 C 34.1639404296875 86.79193115234375 39.72381210327148 87.9140625 45.45676803588867 87.9140625 C 51.18972396850586 87.9140625 56.74959564208984 86.79193115234375 61.98194122314453 84.57883453369141 C 67.03730773925781 82.44058990478516 71.57810974121094 79.37889099121094 75.47824096679688 75.478759765625 C 79.37837219238281 71.57862854003906 82.44007110595703 67.03782653808594 84.57830810546875 61.98246002197266 C 86.79141235351562 56.75011825561523 87.91353607177734 51.19024658203125 87.91353607177734 45.4567756652832 C 87.91353607177734 39.72381591796875 86.79141235351562 34.16394424438477 84.57830810546875 28.93160247802734 C 82.44007110595703 23.87622833251953 79.37837219238281 19.33543395996094 75.47824096679688 15.435302734375 C 71.57810974121094 11.53517150878906 67.03730773925781 8.473472595214844 61.98194122314453 6.335227966308594 C 56.74959564208984 4.12213134765625 51.18972396850586 3 45.45676803588867 3 M 45.45676803588867 0 C 70.56185150146484 0 90.91353607177734 20.35169219970703 90.91353607177734 45.4567756652832 L 90.91353607177734 45.4572868347168 C 90.91353607177734 70.5623779296875 70.56185150146484 90.9140625 45.45676803588867 90.9140625 C 20.3516845703125 90.9140625 0 70.5623779296875 0 45.4572868347168 L 0 45.4567756652832 C 0 20.35169219970703 20.3516845703125 0 45.45676803588867 0 Z" stroke="none" fill="#fff"/>
        </g>
      </g>
      <g id="Path_874923" data-name="Path 874923" transform="translate(0 0)" fill="none">
        <path d="M45.457,0A45.457,45.457,0,0,1,90.914,45.457h0A45.457,45.457,0,0,1,0,45.457H0A45.457,45.457,0,0,1,45.457,0Z" stroke="none"/>
        <path d="M 45.45676803588867 3 C 39.72381210327148 3 34.1639404296875 4.12213134765625 28.93159484863281 6.335227966308594 C 23.87622833251953 8.473472595214844 19.33542633056641 11.53517150878906 15.43529510498047 15.435302734375 C 11.53517150878906 19.33543395996094 8.473464965820312 23.87622833251953 6.335227966308594 28.93160247802734 C 4.122123718261719 34.16394424438477 3 39.72381591796875 3 45.4572868347168 C 3 51.19024658203125 4.122123718261719 56.75011825561523 6.335227966308594 61.98246002197266 C 8.473464965820312 67.03782653808594 11.53517150878906 71.57862854003906 15.43529510498047 75.478759765625 C 19.33542633056641 79.37889099121094 23.87622833251953 82.44058990478516 28.93159484863281 84.57883453369141 C 34.1639404296875 86.79193115234375 39.72381210327148 87.9140625 45.45676803588867 87.9140625 C 51.18972396850586 87.9140625 56.74959564208984 86.79193115234375 61.98194122314453 84.57883453369141 C 67.03730773925781 82.44058990478516 71.57810974121094 79.37889099121094 75.47824096679688 75.478759765625 C 79.37837219238281 71.57862854003906 82.44007110595703 67.03782653808594 84.57830810546875 61.98246002197266 C 86.79141235351562 56.75011825561523 87.91353607177734 51.19024658203125 87.91353607177734 45.4567756652832 C 87.91353607177734 39.72381591796875 86.79141235351562 34.16394424438477 84.57830810546875 28.93160247802734 C 82.44007110595703 23.87622833251953 79.37837219238281 19.33543395996094 75.47824096679688 15.435302734375 C 71.57810974121094 11.53517150878906 67.03730773925781 8.473472595214844 61.98194122314453 6.335227966308594 C 56.74959564208984 4.12213134765625 51.18972396850586 3 45.45676803588867 3 M 45.45676803588867 0 C 70.56185150146484 0 90.91353607177734 20.35169219970703 90.91353607177734 45.4567756652832 L 90.91353607177734 45.4572868347168 C 90.91353607177734 70.5623779296875 70.56185150146484 90.9140625 45.45676803588867 90.9140625 C 20.3516845703125 90.9140625 0 70.5623779296875 0 45.4572868347168 L 0 45.4567756652832 C 0 20.35169219970703 20.3516845703125 0 45.45676803588867 0 Z" stroke="none" fill="#fff"/>
      </g>
    </g>
    <g id="Group_1181184" data-name="Group 1181184" transform="translate(821.964 2530.504)">
      <g id="Group_1181185" data-name="Group 1181185" transform="translate(2.524 13.283)">
        <path id="Path_1032019" data-name="Path 1032019" d="M64.034,71.972l.028,9.235a6.881,6.881,0,0,0-5.455,2.446,5.346,5.346,0,0,1-7.965.054,9.568,9.568,0,0,0-1.259-1.177,6.689,6.689,0,0,0-9.076,1.01,5.355,5.355,0,0,1-8.13.095,8.907,8.907,0,0,0-.9-.869c-2.949-2.375-6.777-2.019-9.495.872a5.336,5.336,0,0,1-8.045-.026,6.834,6.834,0,0,0-5.467-2.4q.014-4.617.028-9.234c.394.04.793.054,1.181.124a6.109,6.109,0,0,1,3.341,2.017,6.516,6.516,0,0,0,6.112,1.991A7.178,7.178,0,0,0,23,73.714a5.348,5.348,0,0,1,7.885.023,9.631,9.631,0,0,0,1.305,1.212A6.725,6.725,0,0,0,41.3,73.83a5.24,5.24,0,0,1,5.275-1.686,6.272,6.272,0,0,1,3.183,2.06,6.674,6.674,0,0,0,9.549.032,6.426,6.426,0,0,1,4.726-2.265" transform="translate(-7.77 -59.886)" fill="#1f8fae"/>
        <path id="Path_1032020" data-name="Path 1032020" d="M64.059,104.058q0,4.6,0,9.205a6.888,6.888,0,0,0-5.4,2.412,5.224,5.224,0,0,1-5.44,1.648,6.5,6.5,0,0,1-3.015-2.011,6.512,6.512,0,0,0-6.546-1.8,6.948,6.948,0,0,0-3.458,2.2,5.19,5.19,0,0,1-4.761,1.733,5.308,5.308,0,0,1-3.313-1.806,6.672,6.672,0,0,0-10.121-.129,5.5,5.5,0,0,1-8.392.045,6.552,6.552,0,0,0-5.329-2.3q0-4.6.006-9.2a5.932,5.932,0,0,1,4.532,2.106,6.68,6.68,0,0,0,9.921-.115,7.4,7.4,0,0,1,.809-.788,5.34,5.34,0,0,1,7.391.608,6.806,6.806,0,0,0,10.429-.034,5.15,5.15,0,0,1,4.058-1.769,5.78,5.78,0,0,1,4.232,2.085,6.684,6.684,0,0,0,9.844-.025,5.951,5.951,0,0,1,4.554-2.07" transform="translate(-7.778 -81.315)" fill="#2aa6d3"/>
        <path id="Path_1032021" data-name="Path 1032021" d="M64.061,39.9q0,4.631,0,9.262a13.544,13.544,0,0,0-1.421.094,7.25,7.25,0,0,0-4.117,2.424,5.34,5.34,0,0,1-7.958-.128,6.764,6.764,0,0,0-10.351,0,5.217,5.217,0,0,1-5.621,1.576,6.723,6.723,0,0,1-2.882-2.018,6.5,6.5,0,0,0-5.941-1.838,7.279,7.279,0,0,0-4.115,2.426,5.335,5.335,0,0,1-7.915-.151,6.665,6.665,0,0,0-5.467-2.391q0-4.631,0-9.262A5.969,5.969,0,0,1,12.7,41.868a6.722,6.722,0,0,0,10.265-.1A6.138,6.138,0,0,1,24.876,40.4,5.276,5.276,0,0,1,31,41.766a6.66,6.66,0,0,0,6.407,2.293A7.019,7.019,0,0,0,41.435,41.7a5.162,5.162,0,0,1,6.079-1.291A8.787,8.787,0,0,1,49.8,42.17a6.733,6.733,0,0,0,9.776-.179,5.961,5.961,0,0,1,4.49-2.087" transform="translate(-7.769 -38.467)" fill="#1a7f99"/>
        <path id="Path_1032022" data-name="Path 1032022" d="M63.079,37.013a5.96,5.96,0,0,0-4.49,2.087,6.733,6.733,0,0,1-9.776.179,8.787,8.787,0,0,0-2.281-1.76,5.162,5.162,0,0,0-6.079,1.291,7.019,7.019,0,0,1-4.026,2.357,6.66,6.66,0,0,1-6.407-2.293,5.276,5.276,0,0,0-6.127-1.367,6.138,6.138,0,0,0-1.913,1.369,6.722,6.722,0,0,1-10.265.1,5.969,5.969,0,0,0-4.428-1.964c-.364-.206-.6-.5-.438-.924a.834.834,0,0,1,.971-.506,6.6,6.6,0,0,1,4.693,2.25,5.484,5.484,0,0,0,8.379.075,6.661,6.661,0,0,1,10.153.032,5.329,5.329,0,0,0,8.264-.07,6.712,6.712,0,0,1,10.084.014,5.49,5.49,0,0,0,3.978,1.963,5.127,5.127,0,0,0,4.174-1.777,7.019,7.019,0,0,1,4.6-2.447c.157-.018.316-.029.474-.041a.788.788,0,0,1,.906.511.721.721,0,0,1-.448.92" transform="translate(-6.787 -35.575)" fill="#070b0d"/>
        <path id="Path_1032023" data-name="Path 1032023" d="M7.271,131.758a6.553,6.553,0,0,1,5.329,2.3,5.5,5.5,0,0,0,8.392-.045,6.673,6.673,0,0,1,10.121.129,5.307,5.307,0,0,0,3.313,1.806,5.19,5.19,0,0,0,4.761-1.733,6.946,6.946,0,0,1,3.458-2.2,6.512,6.512,0,0,1,6.546,1.8,6.5,6.5,0,0,0,3.016,2.011,5.223,5.223,0,0,0,5.439-1.648,6.889,6.889,0,0,1,5.4-2.412c.334.22.651.529.436.913a1.187,1.187,0,0,1-.824.5,6.335,6.335,0,0,0-4.1,2.033,6.73,6.73,0,0,1-10.138-.125,5.341,5.341,0,0,0-8.193.021,6.724,6.724,0,0,1-10.215.008,5.325,5.325,0,0,0-8.227.033,6.706,6.706,0,0,1-10.129.015,6.057,6.057,0,0,0-3.993-1.987,1.211,1.211,0,0,1-.827-.5c-.217-.384.093-.7.432-.915" transform="translate(-6.765 -99.812)" fill="#070c0e"/>
        <path id="Path_1032024" data-name="Path 1032024" d="M63.046,101.191a5.952,5.952,0,0,0-4.554,2.07,6.684,6.684,0,0,1-9.844.025,5.78,5.78,0,0,0-4.232-2.085,5.15,5.15,0,0,0-4.058,1.769A6.806,6.806,0,0,1,29.93,103a5.34,5.34,0,0,0-7.391-.608,7.4,7.4,0,0,0-.809.788,6.68,6.68,0,0,1-9.921.115,5.932,5.932,0,0,0-4.532-2.106c-.676-.5-.679-.89-.01-1.421a6.834,6.834,0,0,1,5.467,2.405,5.336,5.336,0,0,0,8.045.026c2.717-2.892,6.545-3.248,9.495-.872a8.9,8.9,0,0,1,.9.868,5.355,5.355,0,0,0,8.13-.095,6.69,6.69,0,0,1,9.077-1.009,9.568,9.568,0,0,1,1.259,1.177,5.347,5.347,0,0,0,7.965-.054,6.879,6.879,0,0,1,5.455-2.445c.665.53.662.92-.011,1.421" transform="translate(-6.765 -78.448)" fill="#050a0c"/>
        <path id="Path_1032025" data-name="Path 1032025" d="M7.264,67.766a6.664,6.664,0,0,1,5.467,2.391,5.335,5.335,0,0,0,7.915.151,7.281,7.281,0,0,1,4.115-2.425A6.5,6.5,0,0,1,30.7,69.72a6.721,6.721,0,0,0,2.882,2.018,5.217,5.217,0,0,0,5.621-1.576,6.764,6.764,0,0,1,10.351,0,5.34,5.34,0,0,0,7.958.128,7.247,7.247,0,0,1,4.116-2.424,13.551,13.551,0,0,1,1.421-.094c.676.506.668.919-.027,1.387A6.425,6.425,0,0,0,58.3,71.417a6.675,6.675,0,0,1-9.549-.032,6.268,6.268,0,0,0-3.183-2.06,5.24,5.24,0,0,0-5.275,1.685,6.725,6.725,0,0,1-9.112,1.119,9.653,9.653,0,0,1-1.305-1.212,5.348,5.348,0,0,0-7.885-.024,7.175,7.175,0,0,1-4.064,2.392,6.514,6.514,0,0,1-6.112-1.991,6.111,6.111,0,0,0-3.341-2.017c-.389-.069-.788-.084-1.182-.124-.7-.474-.7-.884-.027-1.388" transform="translate(-6.761 -57.066)" fill="#050a0b"/>
      </g>
    </g>
  </g>
</svg>
