<svg xmlns="http://www.w3.org/2000/svg" xmlns:xlink="http://www.w3.org/1999/xlink" width="108.914" height="108.914" viewBox="0 0 108.914 108.914">
  <defs>
    <filter id="Path_874925" x="0" y="0" width="108.914" height="108.914" filterUnits="userSpaceOnUse">
      <feOffset dy="3" input="SourceAlpha"/>
      <feGaussianBlur stdDeviation="3" result="blur"/>
      <feFlood flood-opacity="0.161"/>
      <feComposite operator="in" in2="blur"/>
      <feComposite in="SourceGraphic"/>
    </filter>
  </defs>
  <g id="Group_1181035" data-name="Group 1181035" transform="translate(-1112.708 -2511.157)">
    <g id="Group_1109819" data-name="Group 1109819" transform="translate(1121.708 2517.157)">
      <g transform="matrix(1, 0, 0, 1, -9, -6)" filter="url(#Path_874925)">
        <g id="Path_874925-2" data-name="Path 874925" transform="translate(9 6)" fill="#dcd7ba" opacity="0.859">
          <path d="M 45.45676803588867 89.41407012939453 C 39.52198028564453 89.41407012939453 33.76551818847656 88.25206756591797 28.34726715087891 85.96034240722656 C 23.11311721801758 83.74648284912109 18.41204261779785 80.57682800292969 14.37464332580566 76.5394287109375 C 10.33724308013916 72.50202941894531 7.167593002319336 67.80095672607422 4.953730583190918 62.56679534912109 C 2.662005424499512 57.14855575561523 1.500005483627319 51.39208221435547 1.500005483627319 45.45729446411133 C 1.500005483627319 39.52198028564453 2.662005424499512 33.76551818847656 4.953730583190918 28.34726905822754 C 7.167593002319336 23.11310577392578 10.33724308013916 18.41203117370605 14.37464332580566 14.37464332580566 C 18.41204261779785 10.33724403381348 23.11311721801758 7.167593955993652 28.34726715087891 4.953731060028076 C 33.76551818847656 2.662006139755249 39.52198028564453 1.500006198883057 45.45676803588867 1.500006198883057 C 51.39155578613281 1.500006198883057 57.14802932739258 2.662006139755249 62.56626892089844 4.953731060028076 C 67.80043029785156 7.167593955993652 72.50150299072266 10.33724403381348 76.53890228271484 14.37464332580566 C 80.57630920410156 18.41203117370605 83.74595642089844 23.11310577392578 85.95981597900391 28.34726905822754 C 88.25154113769531 33.76551818847656 89.41354370117188 39.52198028564453 89.41354370117188 45.45676803588867 C 89.41354370117188 51.39208221435547 88.25154113769531 57.14855575561523 85.95981597900391 62.56679534912109 C 83.74595642089844 67.80095672607422 80.57630920410156 72.50202941894531 76.53890228271484 76.5394287109375 C 72.50150299072266 80.57682800292969 67.80043029785156 83.74648284912109 62.56626892089844 85.96034240722656 C 57.14802932739258 88.25206756591797 51.39155578613281 89.41407012939453 45.45676803588867 89.41407012939453 Z" stroke="none"/>
          <path d="M 45.45676803588867 3 C 39.72381210327148 3 34.1639404296875 4.12213134765625 28.93159484863281 6.335227966308594 C 23.87622833251953 8.473472595214844 19.33542633056641 11.53517150878906 15.43529510498047 15.435302734375 C 11.53517150878906 19.33543395996094 8.473464965820312 23.87622833251953 6.335227966308594 28.93160247802734 C 4.122123718261719 34.16394424438477 3 39.72381591796875 3 45.4572868347168 C 3 51.19024658203125 4.122123718261719 56.75011825561523 6.335227966308594 61.98246002197266 C 8.473464965820312 67.03782653808594 11.53517150878906 71.57862854003906 15.43529510498047 75.478759765625 C 19.33542633056641 79.37889099121094 23.87622833251953 82.44058990478516 28.93159484863281 84.57883453369141 C 34.1639404296875 86.79193115234375 39.72381210327148 87.9140625 45.45676803588867 87.9140625 C 51.18972396850586 87.9140625 56.74959564208984 86.79193115234375 61.98194122314453 84.57883453369141 C 67.03730773925781 82.44058990478516 71.57810974121094 79.37889099121094 75.47824096679688 75.478759765625 C 79.37837219238281 71.57862854003906 82.44007110595703 67.03782653808594 84.57830810546875 61.98246002197266 C 86.79141235351562 56.75011825561523 87.91353607177734 51.19024658203125 87.91353607177734 45.4567756652832 C 87.91353607177734 39.72381591796875 86.79141235351562 34.16394424438477 84.57830810546875 28.93160247802734 C 82.44007110595703 23.87622833251953 79.37837219238281 19.33543395996094 75.47824096679688 15.435302734375 C 71.57810974121094 11.53517150878906 67.03730773925781 8.473472595214844 61.98194122314453 6.335227966308594 C 56.74959564208984 4.12213134765625 51.18972396850586 3 45.45676803588867 3 M 45.45676803588867 0 C 70.56185150146484 0 90.91353607177734 20.35169219970703 90.91353607177734 45.4567756652832 L 90.91353607177734 45.4572868347168 C 90.91353607177734 70.5623779296875 70.56185150146484 90.9140625 45.45676803588867 90.9140625 C 20.3516845703125 90.9140625 0 70.5623779296875 0 45.4572868347168 L 0 45.4567756652832 C 0 20.35169219970703 20.3516845703125 0 45.45676803588867 0 Z" stroke="none" fill="#fff"/>
        </g>
      </g>
      <g id="Path_874923" data-name="Path 874923" transform="translate(0 0)" fill="none">
        <path d="M45.457,0A45.457,45.457,0,0,1,90.914,45.457h0A45.457,45.457,0,0,1,0,45.457H0A45.457,45.457,0,0,1,45.457,0Z" stroke="none"/>
        <path d="M 45.45676803588867 3 C 39.72381210327148 3 34.1639404296875 4.12213134765625 28.93159484863281 6.335227966308594 C 23.87622833251953 8.473472595214844 19.33542633056641 11.53517150878906 15.43529510498047 15.435302734375 C 11.53517150878906 19.33543395996094 8.473464965820312 23.87622833251953 6.335227966308594 28.93160247802734 C 4.122123718261719 34.16394424438477 3 39.72381591796875 3 45.4572868347168 C 3 51.19024658203125 4.122123718261719 56.75011825561523 6.335227966308594 61.98246002197266 C 8.473464965820312 67.03782653808594 11.53517150878906 71.57862854003906 15.43529510498047 75.478759765625 C 19.33542633056641 79.37889099121094 23.87622833251953 82.44058990478516 28.93159484863281 84.57883453369141 C 34.1639404296875 86.79193115234375 39.72381210327148 87.9140625 45.45676803588867 87.9140625 C 51.18972396850586 87.9140625 56.74959564208984 86.79193115234375 61.98194122314453 84.57883453369141 C 67.03730773925781 82.44058990478516 71.57810974121094 79.37889099121094 75.47824096679688 75.478759765625 C 79.37837219238281 71.57862854003906 82.44007110595703 67.03782653808594 84.57830810546875 61.98246002197266 C 86.79141235351562 56.75011825561523 87.91353607177734 51.19024658203125 87.91353607177734 45.4567756652832 C 87.91353607177734 39.72381591796875 86.79141235351562 34.16394424438477 84.57830810546875 28.93160247802734 C 82.44007110595703 23.87622833251953 79.37837219238281 19.33543395996094 75.47824096679688 15.435302734375 C 71.57810974121094 11.53517150878906 67.03730773925781 8.473472595214844 61.98194122314453 6.335227966308594 C 56.74959564208984 4.12213134765625 51.18972396850586 3 45.45676803588867 3 M 45.45676803588867 0 C 70.56185150146484 0 90.91353607177734 20.35169219970703 90.91353607177734 45.4567756652832 L 90.91353607177734 45.4572868347168 C 90.91353607177734 70.5623779296875 70.56185150146484 90.9140625 45.45676803588867 90.9140625 C 20.3516845703125 90.9140625 0 70.5623779296875 0 45.4572868347168 L 0 45.4567756652832 C 0 20.35169219970703 20.3516845703125 0 45.45676803588867 0 Z" stroke="none" fill="#fff"/>
      </g>
    </g>
    <g id="Group_1181181" data-name="Group 1181181" transform="translate(1139.684 2535.133)">
      <g id="Group_1181182" data-name="Group 1181182">
        <path id="Path_1032007" data-name="Path 1032007" d="M19.436,56.879V49.545a12.893,12.893,0,0,1-9.849-5.273,12.552,12.552,0,0,1-2.514-9.42A13.129,13.129,0,0,1,23.058,23.879c.043-.851.057-1.706.134-2.554A17.593,17.593,0,0,1,28.991,9.6c.912-.838,1.988-1.5,2.985-2.244a.78.78,0,0,1,.981.005,17.779,17.779,0,0,1,8.556,12.509c.258,1.48.264,3,.383,4.473a8.3,8.3,0,0,1,11.115,9.37,8.691,8.691,0,0,1,4.546,5.569,8.78,8.78,0,0,1-5.79,10.658c-2.182.7-3.36.592-6.926-.576v7.515H56.89c.161,0,.361-.055.473.02.195.13.462.342.463.52s-.263.39-.453.533c-.092.069-.277.014-.42.014H7.928c-.143,0-.331.055-.419-.016-.187-.149-.425-.353-.444-.554-.014-.154.248-.38.436-.493.133-.08.348-.025.527-.026H19.436M33.181,37.084a14.977,14.977,0,0,0,3.357-2.961,1.251,1.251,0,0,0,.187-.755c0-.426-.1-.853-.093-1.277a8.155,8.155,0,0,1,3.525-6.737,1.026,1.026,0,0,0,.5-.925,35.43,35.43,0,0,0-.22-4.258A16.674,16.674,0,0,0,32.781,8.538a.509.509,0,0,0-.658,0A16.857,16.857,0,0,0,24.5,26.085a16.8,16.8,0,0,0,5.675,9.839c.515.451,1.087.837,1.689,1.3.023-.174.04-.24.04-.306,0-2.5.009-5-.012-7.5a1.037,1.037,0,0,0-.307-.631c-1.2-1.225-2.418-2.43-3.628-3.644-.27-.27-.4-.575-.075-.882s.574-.127.826.128q1.4,1.407,2.8,2.8c.1.1.218.189.393.338,0-3.267,0-6.426,0-9.585a3.648,3.648,0,0,1,.007-.482c.045-.336.194-.577.588-.544.364.031.466.264.465.591,0,1.268,0,2.535,0,3.8V22.87c.855-.856,1.612-1.6,2.358-2.362.288-.293.605-.434.922-.108s.09.6-.17.864c-1.009,1.01-2.008,2.028-3.011,3.044a3,3,0,0,0-.1.551q-.009,5.9,0,11.807c0,.142.011.284.016.426l.209-.008m11.565,3c.228-.211.357-.323.477-.443.948-.946,1.887-1.9,2.851-2.831a.788.788,0,0,1,.6-.173.535.535,0,0,1,.331.408.994.994,0,0,1-.286.587c-1.213,1.237-2.45,2.45-3.658,3.691a1.1,1.1,0,0,0-.3.679c-.024,1.857-.005,3.714-.022,5.571a.628.628,0,0,0,.366.63,7.927,7.927,0,0,0,5.181,1,7.7,7.7,0,0,0,2.058-14.576c-.437-.214-.534-.454-.474-.963a10.8,10.8,0,0,0,.041-2.8,7.036,7.036,0,0,0-8.051-5.86,7.161,7.161,0,0,0-5.548,9.986c.32.751.25.9-.541,1.132a6.741,6.741,0,1,0,5.388,12.245.878.878,0,0,0,.538-.924,8.365,8.365,0,0,1,0-1.391,1.24,1.24,0,0,0-.437-1.073c-1.133-1.089-2.232-2.213-3.345-3.322-.248-.247-.333-.52-.067-.791a.533.533,0,0,1,.807.032c.134.117.253.252.379.378L43.683,43.9v-.634q0-3.16,0-6.321c0-.372.112-.712.539-.721s.532.313.527.7c-.013,1,0,2,0,3.153m-24.2,8.346a3.949,3.949,0,0,0,.52,0,14.68,14.68,0,0,0,1.628-.266,11.705,11.705,0,0,0,9.034-9.39.69.69,0,0,0-.243-.537c-.918-.76-1.918-1.43-2.78-2.246a17.611,17.611,0,0,1-5.373-10.41c-.057-.374-.175-.532-.511-.6A13.228,13.228,0,0,0,18,24.829c-6.211.96-11.042,7.485-9.709,13.69a11.89,11.89,0,0,0,8.41,9.44,23.227,23.227,0,0,0,2.8.555v-.728c0-2.482-.017-4.964.013-7.446a1.7,1.7,0,0,0-.569-1.4c-.99-.927-1.933-1.9-2.886-2.871-.368-.373-.337-.8.1-.931a.838.838,0,0,1,.67.226c.867.839,1.7,1.711,2.643,2.671.017-.325.033-.494.033-.663,0-1.161,0-2.321,0-3.482,0-.359.062-.7.54-.693s.5.35.5.715q0,3.911,0,7.821v.62c.214-.2.343-.311.465-.432q1.631-1.627,3.259-3.256c.113-.113.226-.289.357-.307a1,1,0,0,1,.7.088c.108.092.039.437-.013.654-.029.119-.185.209-.286.31q-2.065,2.065-4.126,4.132c-.144.145-.334.34-.338.514-.027,1.441-.015,2.883-.015,4.37m11.348,8.436V43.072a.466.466,0,0,0,0-.16c-.039-.1-.1-.195-.145-.291a1.5,1.5,0,0,0-.315.191,1.591,1.591,0,0,0-.2.316,12.76,12.76,0,0,1-7.486,5.836c-1.013.3-2.07.448-3.1.665v7.233Zm1.16-10.1V56.851h10.6V49.408c-4.2,1.877-7.709,1.015-10.6-2.645" transform="translate(-4.876 -5.04)" fill="#0b0c0b"/>
        <path id="Path_1032008" data-name="Path 1032008" d="M145.952,19.738a2.846,2.846,0,0,1,1.79,4.5,2.567,2.567,0,0,1-2.1,1.1c-2.982.013-5.965.024-8.948,0a2.736,2.736,0,0,1-2.555-2,2.877,2.877,0,0,1,1.112-3.117,1.035,1.035,0,0,0,.379-.554,2.882,2.882,0,0,1,3.786-2.132.675.675,0,0,0,.556-.059,3.631,3.631,0,0,1,5.981,2.268M140.6,18.165c.218.685.427,1.273.59,1.874.081.3-.084.589-.395.545a.741.741,0,0,1-.446-.523,1.979,1.979,0,0,0-1.914-1.8A1.937,1.937,0,0,0,136.51,20.1a.758.758,0,0,1-.5.756,1.875,1.875,0,0,0-1.022,2.142,1.952,1.952,0,0,0,1.815,1.47q4.393.025,8.784,0a1.889,1.889,0,0,0,1.824-1.634,1.731,1.731,0,0,0-1.178-2.025c-.921-.164-1.165-.6-1.336-1.442a2.366,2.366,0,0,0-2.017-1.825,2.42,2.42,0,0,0-2.278.628" transform="translate(-94.039 -11.625)" fill="#0b0b0d"/>
        <path id="Path_1032009" data-name="Path 1032009" d="M11.87,25.385c-1.411,0-2.822.016-4.233,0a2.82,2.82,0,0,1-1.66-5.133,1.114,1.114,0,0,0,.384-.557,2.86,2.86,0,0,1,3.83-2.109.691.691,0,0,0,.549-.113,3.626,3.626,0,0,1,5.894,2,.748.748,0,0,0,.441.4,2.976,2.976,0,0,1,1.988,2.764,2.825,2.825,0,0,1-2.116,2.646,4.1,4.1,0,0,1-1.006.1c-1.357.01-2.714,0-4.072,0m-.535-7.169c.209.657.417,1.246.58,1.848.081.3-.077.591-.39.549a.743.743,0,0,1-.454-.519,1.968,1.968,0,0,0-1.957-1.8,1.945,1.945,0,0,0-1.872,1.889.706.706,0,0,1-.457.683,1.881,1.881,0,0,0-1.071,2.159A1.964,1.964,0,0,0,7.635,24.5q4.283.011,8.567,0a1.9,1.9,0,0,0,1.936-1.687,1.876,1.876,0,0,0-1.677-2.139c-.546-.048-.659-.269-.709-.76a2.572,2.572,0,0,0-1.781-2.246,2.466,2.466,0,0,0-2.637.553" transform="translate(-3.34 -11.654)" fill="#0b0b0d"/>
        <path id="Path_1032010" data-name="Path 1032010" d="M105.912,81.776c0-1.157-.008-2.155,0-3.153,0-.388-.09-.71-.527-.7s-.539.349-.539.722q0,3.16,0,6.321V85.6L102.2,82.956c-.126-.126-.245-.261-.379-.378a.534.534,0,0,0-.807-.032c-.266.272-.181.545.067.792,1.113,1.109,2.212,2.233,3.345,3.322a1.241,1.241,0,0,1,.437,1.073,8.333,8.333,0,0,0,0,1.391.878.878,0,0,1-.538.924A6.741,6.741,0,1,1,98.935,77.8c.791-.234.861-.381.54-1.131a7.161,7.161,0,0,1,5.548-9.985,7.036,7.036,0,0,1,8.051,5.86,10.786,10.786,0,0,1-.041,2.8c-.06.508.037.749.474.963a7.7,7.7,0,0,1-2.058,14.576,7.926,7.926,0,0,1-5.181-1,.628.628,0,0,1-.366-.63c.017-1.857,0-3.714.022-5.571a1.1,1.1,0,0,1,.3-.679c1.208-1.241,2.445-2.454,3.658-3.691a.993.993,0,0,0,.286-.587.534.534,0,0,0-.331-.409.787.787,0,0,0-.6.173c-.965.929-1.9,1.885-2.851,2.831-.121.12-.249.232-.477.443" transform="translate(-66.042 -46.737)" fill="#75ac3a"/>
        <path id="Path_1032011" data-name="Path 1032011" d="M23.161,89.545c0-1.487-.012-2.929.016-4.37,0-.175.194-.369.338-.514q2.055-2.073,4.126-4.132c.1-.1.258-.19.286-.31.052-.217.121-.562.013-.654a1,1,0,0,0-.7-.088c-.131.018-.244.194-.357.307q-1.631,1.627-3.259,3.256c-.121.121-.25.233-.464.432v-.62q0-3.911,0-7.821c0-.364-.023-.7-.5-.715s-.538.335-.54.693c-.007,1.161,0,2.321,0,3.482,0,.169-.016.338-.033.663-.942-.96-1.777-1.832-2.643-2.671a.838.838,0,0,0-.67-.226c-.433.13-.464.559-.1.932.953.966,1.9,1.943,2.886,2.871a1.7,1.7,0,0,1,.57,1.4c-.03,2.482-.013,4.964-.013,7.446v.728a23.215,23.215,0,0,1-2.8-.555,11.89,11.89,0,0,1-8.41-9.44c-1.332-6.2,3.5-12.729,9.709-13.69a13.222,13.222,0,0,1,4.82.141c.336.071.454.229.511.6A17.61,17.61,0,0,0,31.32,77.1c.862.816,1.863,1.486,2.78,2.246a.689.689,0,0,1,.243.537,11.7,11.7,0,0,1-9.034,9.389,14.744,14.744,0,0,1-1.628.266,4.006,4.006,0,0,1-.52,0" transform="translate(-7.496 -46.16)" fill="#75ac3a"/>
        <path id="Path_1032012" data-name="Path 1032012" d="M73.581,27.208c1-1.015,2-2.034,3.011-3.044.26-.26.489-.537.17-.865s-.634-.185-.922.108c-.746.759-1.5,1.507-2.358,2.362V24.211c0-1.268,0-2.535,0-3.8,0-.327-.1-.559-.465-.591-.394-.034-.543.208-.588.544a3.647,3.647,0,0,0-.007.482c0,3.159,0,6.318,0,9.585-.175-.149-.291-.237-.393-.338q-1.4-1.4-2.8-2.8c-.252-.254-.515-.426-.826-.127s-.195.611.076.882c1.211,1.213,2.43,2.419,3.628,3.644a1.037,1.037,0,0,1,.307.63c.021,2.5.013,5,.012,7.5,0,.066-.017.132-.04.306-.6-.459-1.174-.845-1.689-1.3a16.8,16.8,0,0,1-5.675-9.839,17.028,17.028,0,0,1,7.624-17.547.509.509,0,0,1,.659,0,16.673,16.673,0,0,1,7.66,11.632,35.313,35.313,0,0,1,.22,4.258,1.025,1.025,0,0,1-.5.925,8.155,8.155,0,0,0-3.525,6.737c-.012.424.1.851.093,1.277a1.251,1.251,0,0,1-.187.755A14.977,14.977,0,0,1,73.7,39.984a2.666,2.666,0,0,1-.115-.547q-.009-6.115,0-12.229" transform="translate(-45.395 -7.941)" fill="#3b7c26"/>
        <path id="Path_1032015" data-name="Path 1032015" d="M94.2,64.57q0,6.114,0,12.229a2.667,2.667,0,0,0,.115.547l-.209.008c-.006-.142-.016-.284-.016-.426q0-5.9,0-11.807a3.007,3.007,0,0,1,.1-.551" transform="translate(-66.02 -45.303)" fill="#5b7642"/>
        <path id="Path_1032016" data-name="Path 1032016" d="M142.744,20.309a2.42,2.42,0,0,1,2.278-.628,2.366,2.366,0,0,1,2.017,1.825c.171.838.415,1.279,1.336,1.442a1.731,1.731,0,0,1,1.178,2.025,1.889,1.889,0,0,1-1.824,1.634q-4.392.026-8.784,0a1.952,1.952,0,0,1-1.815-1.47,1.875,1.875,0,0,1,1.022-2.142.758.758,0,0,0,.5-.756A1.937,1.937,0,0,1,140.58,20.4a1.979,1.979,0,0,1,1.914,1.8.741.741,0,0,0,.446.523c.311.044.476-.244.395-.545-.163-.6-.372-1.189-.59-1.874" transform="translate(-96.18 -13.768)" fill="#0c9cda"/>
        <path id="Path_1032017" data-name="Path 1032017" d="M13.456,20.312a2.466,2.466,0,0,1,2.637-.553,2.572,2.572,0,0,1,1.781,2.246c.05.492.162.712.709.76A1.876,1.876,0,0,1,20.259,24.9a1.9,1.9,0,0,1-1.936,1.687q-4.283.01-8.567,0a1.964,1.964,0,0,1-1.922-1.475,1.881,1.881,0,0,1,1.071-2.159.706.706,0,0,0,.457-.683,1.945,1.945,0,0,1,1.872-1.889,1.968,1.968,0,0,1,1.957,1.8.743.743,0,0,0,.454.519c.314.043.471-.251.39-.549-.163-.6-.371-1.19-.58-1.848" transform="translate(-5.461 -13.749)" fill="#0c9cda"/>
      </g>
    </g>
  </g>
</svg>
