<svg xmlns="http://www.w3.org/2000/svg" xmlns:xlink="http://www.w3.org/1999/xlink" width="113" height="113" viewBox="0 0 113 113">
  <defs>
    <filter id="Path_896985" x="0" y="0" width="113" height="113" filterUnits="userSpaceOnUse">
      <feOffset dy="3" input="SourceAlpha"/>
      <feGaussianBlur stdDeviation="3" result="blur"/>
      <feFlood flood-opacity="0.161"/>
      <feComposite operator="in" in2="blur"/>
      <feComposite in="SourceGraphic"/>
    </filter>
    <clipPath id="clip-path">
      <rect id="Rectangle_415710" data-name="Rectangle 415710" width="63.346" height="63.346" fill="none"/>
    </clipPath>
  </defs>
  <g id="Group_1111349" data-name="Group 1111349" transform="translate(-325.891 -3846)">
    <g id="Group_1111318" data-name="Group 1111318" transform="translate(-5.891)">
      <g id="Group_1109826" data-name="Group 1109826" transform="translate(340.781 3852)">
        <g id="Group_1098742" data-name="Group 1098742">
          <g transform="matrix(1, 0, 0, 1, -9, -6)" filter="url(#Path_896985)">
            <g id="Path_896985-2" data-name="Path 896985" transform="translate(9 6)" fill="#fd9826" opacity="0.859">
              <path d="M 47.49993515014648 93.5 C 41.28932189941406 93.5 35.26528167724609 92.28397369384766 29.59514808654785 89.88571929931641 C 24.1176815032959 87.56894683837891 19.1981086730957 84.25197601318359 14.97306823730469 80.02693176269531 C 10.74802875518799 75.80189514160156 7.431055068969727 70.88231658935547 5.11428165435791 65.40485382080078 C 2.716028451919556 59.73471832275391 1.500001788139343 53.71067810058594 1.500001788139343 47.50006484985352 C 1.500001788139343 41.28932189941406 2.716028451919556 35.26528167724609 5.11428165435791 29.59514617919922 C 7.431055068969727 24.11767959594727 10.74802875518799 19.19810676574707 14.97306823730469 14.97306632995605 C 19.1981086730957 10.74802684783936 24.1176815032959 7.431053161621094 29.59514808654785 5.114280223846436 C 35.26528167724609 2.716026782989502 41.28932189941406 1.5 47.49993515014648 1.5 C 53.71054840087891 1.5 59.73458862304688 2.716026782989502 65.40472412109375 5.114280223846436 C 70.88218688964844 7.431053161621094 75.80176544189453 10.74802684783936 80.02680206298828 14.97306632995605 C 84.25183868408203 19.19810676574707 87.56881713867188 24.11767959594727 89.88558959960938 29.59514617919922 C 92.28384399414062 35.26528167724609 93.49987030029297 41.28932189941406 93.49987030029297 47.49993515014648 C 93.49987030029297 53.71067810058594 92.28384399414062 59.73471832275391 89.88558959960938 65.40485382080078 C 87.56881713867188 70.88231658935547 84.25183868408203 75.80189514160156 80.02680206298828 80.02693176269531 C 75.80176544189453 84.25197601318359 70.88218688964844 87.56894683837891 65.40472412109375 89.88571929931641 C 59.73458862304688 92.28397369384766 53.71054840087891 93.5 47.49993515014648 93.5 Z" stroke="none"/>
              <path d="M 47.49993515014648 3 C 41.49116516113281 3 35.66371917724609 4.176155090332031 30.17947387695312 6.495796203613281 C 24.88081359863281 8.7369384765625 20.12149047851562 11.94596862792969 16.03372192382812 16.03372192382812 C 11.94596862792969 20.12149047851562 8.7369384765625 24.88081359863281 6.495796203613281 30.17947387695312 C 4.1761474609375 35.66372299194336 3 41.49116897583008 3 47.50006103515625 C 3 53.50883102416992 4.1761474609375 59.33627700805664 6.495796203613281 64.82052612304688 C 8.7369384765625 70.11918640136719 11.94596862792969 74.87850952148438 16.03372192382812 78.96627807617188 C 20.12149047851562 83.05403137207031 24.88081359863281 86.2630615234375 30.17947387695312 88.50419616699219 C 35.66371917724609 90.82384490966797 41.49116516113281 92 47.49993515014648 92 C 53.50870513916016 92 59.33615112304688 90.82384490966797 64.82039642333984 88.50419616699219 C 70.11905670166016 86.2630615234375 74.87837982177734 83.05403137207031 78.96614837646484 78.96627807617188 C 83.05390167236328 74.87850952148438 86.26293182373047 70.11918640136719 88.50407409667969 64.82052612304688 C 90.82372283935547 59.33627700805664 91.99987030029297 53.50883102416992 91.99987030029297 47.49993896484375 C 91.99987030029297 41.49116897583008 90.82372283935547 35.66372299194336 88.50407409667969 30.17947387695312 C 86.26293182373047 24.88081359863281 83.05390167236328 20.12149047851562 78.96614837646484 16.03372192382812 C 74.87837982177734 11.94596862792969 70.11905670166016 8.7369384765625 64.82039642333984 6.495796203613281 C 59.33615112304688 4.176155090332031 53.50870513916016 3 47.49993515014648 3 M 47.49993515014648 0 C 73.73342895507812 0 94.99987030029297 21.26644897460938 94.99987030029297 47.49993896484375 L 94.99987030029297 47.50006103515625 C 94.99987030029297 73.73355102539062 73.73342895507812 95 47.49993515014648 95 C 21.26644134521484 95 0 73.73355102539062 0 47.50006103515625 L 0 47.49993896484375 C 0 21.26644897460938 21.26644134521484 0 47.49993515014648 0 Z" stroke="none" fill="#fff"/>
            </g>
          </g>
          <g id="Rectangle_400907" data-name="Rectangle 400907" transform="translate(0 0)" fill="none" stroke="#fff" stroke-width="3">
            <rect width="95" height="95" rx="47.5" stroke="none"/>
            <rect x="1.5" y="1.5" width="92" height="92" rx="46" fill="none"/>
          </g>
        </g>
      </g>
    </g>
    <g id="Group_1181202" data-name="Group 1181202" transform="translate(350.717 3867.827)">
      <g id="Group_1181201" data-name="Group 1181201" clip-path="url(#clip-path)">
        <path id="Path_1032083" data-name="Path 1032083" d="M0,63.27V30.3a7.032,7.032,0,0,0,1.615,2.629,16.514,16.514,0,0,0,7.312,4.246c.376.1.491.224.48.61a65.477,65.477,0,0,0,.7,11.247A14.475,14.475,0,0,0,20.618,60.905,43.792,43.792,0,0,0,30.268,62a57.742,57.742,0,0,0,10.444-.7A14.417,14.417,0,0,0,50.94,54.826a15.834,15.834,0,0,0,2.384-7.159.935.935,0,0,0-.831-1.1l.247-2.532c.739-.108.944-.314,1.014-1.06.038-.409.07-.821.072-1.232.008-1.46,0-2.919,0-4.265,1.442-.635,2.859-1.169,4.191-1.867A10.839,10.839,0,0,0,62.6,31.6a4.476,4.476,0,0,0-2.588-6.6,12.688,12.688,0,0,0-3.4-.474c-1.526-.007-3.054.2-4.641.323l-.8-2.539c.792-.7,1.626-1.371,2.39-2.117a8.213,8.213,0,0,0,2.478-8.478c-.862-3.085-2.032-6.086-3.123-9.1a2.582,2.582,0,0,0-2.69-1.562A2.609,2.609,0,0,0,47.912,3.2q-.353,2-.609,4.014a6.061,6.061,0,0,1-1.691,3.983c-1.5,1.369-3.049,2.692-4.568,4.027-2.019-1.2-2.6-1.268-4.987-.772a1.318,1.318,0,0,1-1.006-.277,5.141,5.141,0,0,0-6.856.007,1.348,1.348,0,0,1-1.254.232,8.852,8.852,0,0,0-2.6-.122,10.472,10.472,0,0,0-2.228.858c-1.373-1.2-2.8-2.436-4.223-3.686a5.058,5.058,0,0,1-1.746-3.029c-.254-1.558-.5-3.118-.706-4.682a2.815,2.815,0,0,0-2.429-2.691,2.715,2.715,0,0,0-2.895,2.067c-.267.751-.544,1.5-.8,2.252-.238.691-.132.967.5,1.392L9.113,8.976c-.873-.087-1.062.031-1.365.866-.126.345-.255.69-.364,1.041a8.641,8.641,0,0,0,2.54,9.56c.706.656,1.447,1.274,2.132,1.873L11.2,25.008A18.242,18.242,0,0,0,5.217,24.6C2.684,24.834.77,25.79.056,28.426c0,.012-.036.015-.056.022" transform="translate(0 0.077)" fill="#fffefe"/>
        <path id="Path_1032084" data-name="Path 1032084" d="M52.492,47.909a.935.935,0,0,1,.831,1.1A15.842,15.842,0,0,1,50.94,56.17a14.417,14.417,0,0,1-10.228,6.476,57.742,57.742,0,0,1-10.444.7,43.827,43.827,0,0,1-9.651-1.1A14.474,14.474,0,0,1,10.107,50.377a65.477,65.477,0,0,1-.7-11.247c.011-.386-.1-.51-.48-.61a16.514,16.514,0,0,1-7.312-4.246A7.032,7.032,0,0,1,0,31.645V29.793c.019-.007.052-.011.056-.022.714-2.636,2.629-3.592,5.161-3.825a18.244,18.244,0,0,1,5.983.407l.854-2.692c-.684-.6-1.425-1.217-2.132-1.873a8.642,8.642,0,0,1-2.54-9.56c.109-.351.239-.7.365-1.041.3-.835.492-.953,1.365-.866a1.1,1.1,0,0,1,.395,1.5c-.141.339-.26.689-.368,1.041a6.781,6.781,0,0,0,1.87,7.371c.723.7,1.508,1.332,2.251,1.983,2.14-1.5,4.714-1.581,7.039-2.265.222-.671.434-1.308.657-1.98-1.38-1.2-2.788-2.432-4.2-3.659a7,7,0,0,1-2.45-4.153c-.292-1.7-.535-3.4-.79-5.107a.8.8,0,0,0-1.587-.126c-.271.816-.559,1.625-.854,2.432a.991.991,0,0,1-1.273.752c-.63-.425-.735-.7-.5-1.392.259-.754.537-1.5.8-2.252A2.714,2.714,0,0,1,13.006,2.4a2.815,2.815,0,0,1,2.428,2.691c.2,1.565.452,3.125.706,4.682a5.061,5.061,0,0,0,1.746,3.029c1.42,1.25,2.85,2.489,4.223,3.686a10.472,10.472,0,0,1,2.228-.858,8.868,8.868,0,0,1,2.6.121,1.347,1.347,0,0,0,1.254-.232,5.141,5.141,0,0,1,6.856-.007,1.316,1.316,0,0,0,1.006.277c2.39-.5,2.967-.428,4.986.772,1.519-1.335,3.065-2.658,4.568-4.027A6.06,6.06,0,0,0,47.3,8.555q.256-2.013.61-4.014A2.609,2.609,0,0,1,50.23,2.4a2.583,2.583,0,0,1,2.69,1.562c1.091,3.018,2.261,6.018,3.123,9.1a8.213,8.213,0,0,1-2.478,8.478c-.764.745-1.6,1.419-2.39,2.116.281.9.559,1.782.8,2.539,1.588-.121,3.115-.33,4.642-.323a12.672,12.672,0,0,1,3.4.474,4.476,4.476,0,0,1,2.588,6.6,10.842,10.842,0,0,1-4.58,4.005c-1.332.7-2.75,1.232-4.191,1.867,0,1.346.005,2.805,0,4.265,0,.411-.034.823-.073,1.232-.07.746-.274.952-1.013,1.06-.665-.135-.876-.571-.87-1.212.017-1.994.067-3.99,0-5.982a55.2,55.2,0,0,0-2.107-12.854A2.9,2.9,0,0,0,47.947,23.2c-1.641-.539-3.332-.923-5.1-1.4.1,2.108.172,4.06-1.366,5.588a5.1,5.1,0,0,1-5.367,1.274,5.023,5.023,0,0,1-4.51,2.721,4.936,4.936,0,0,1-4.429-2.6H23.964c-3.226-1.209-3.931-3.776-3.562-6.96-1.618.407-3.09.76-4.552,1.149a3.247,3.247,0,0,0-2.4,2.413A58.73,58.73,0,0,0,11.262,39.91a60.819,60.819,0,0,0,.6,9.529,12.941,12.941,0,0,0,3.93,8.018,11.232,11.232,0,0,0,3.073,2.112c.011-.1.031-.148.017-.176a10.053,10.053,0,0,1-.384-7.272,13.01,13.01,0,0,1,5.09-7.129c.14-.084.283-.163.42-.251a13.952,13.952,0,0,1,18.029,2.446,11.886,11.886,0,0,1,3.028,9.854,20.426,20.426,0,0,1-.671,2.519c.123-.055.254-.1.375-.17a12.56,12.56,0,0,0,5.364-5.606,13.8,13.8,0,0,0,1.247-4.541c.114-.995.31-1.226,1.116-1.335M24.579,26.938a10.28,10.28,0,0,0,1.864-.081,1.876,1.876,0,0,1,2.347.93,3.171,3.171,0,0,0,5.656.022,2.526,2.526,0,0,1,1.131-.949,2.273,2.273,0,0,1,1.3.069A3.171,3.171,0,0,0,41,23.82c.006-1.089.007-2.179,0-3.269A3.115,3.115,0,0,0,37,17.5a3.406,3.406,0,0,1-3.426-.717,2.8,2.8,0,0,0-3-.5,11.551,11.551,0,0,0-1.8,1.163,4.179,4.179,0,0,1-2.585.043,3.117,3.117,0,0,0-3.963,3.1q-.008,1.666,0,3.332a3.119,3.119,0,0,0,2.354,3.014m5.8,34.48c1.661-.017,3.326.035,4.981-.072a25.034,25.034,0,0,0,4.193-.583,4.41,4.41,0,0,0,3.656-3.833A10.146,10.146,0,0,0,40.526,48.3a11.7,11.7,0,0,0-10.683-3.788,10.932,10.932,0,0,0-5.918,2.633,10.381,10.381,0,0,0-3.995,9.032c.161,2.614,1.3,3.921,3.85,4.619a24.8,24.8,0,0,0,6.6.619M49.967,22.229c.77-.68,1.572-1.328,2.3-2.047A6.63,6.63,0,0,0,54.1,12.969c-.863-2.666-1.839-5.3-2.761-7.943-.153-.44-.378-.794-.91-.744s-.688.449-.753.905c-.178,1.239-.39,2.475-.527,3.719a8.058,8.058,0,0,1-2.924,5.629c-1.364,1.12-2.667,2.314-3.953,3.437l.647,1.972c2.362.7,4.9.772,7.048,2.283M53.71,36.681c2.164-.25,6.227-2.845,7.242-4.627a9.3,9.3,0,0,0,.495-1.293c-.289,0-.429-.005-.569,0a25.407,25.407,0,0,0-6.443,1.2c-1.2.373-1.21.384-1.085,1.626.1,1.034.238,2.065.359,3.1m-44.215,0c.045-.278.1-.554.134-.832.112-.955.181-1.917.336-2.864.075-.461-.023-.693-.476-.8-1.75-.416-3.49-.88-5.249-1.25a18.17,18.17,0,0,0-2.358-.193c.25,2.195,4.263,5.279,7.613,5.941m43.36-6.364,7.571-1.584c-.8-1.084-5.942-1.45-7.986-.444l.415,2.028m-50.088-1.6,7.6,1.6c.126-.63.269-1.344.417-2.082a4.294,4.294,0,0,0-.455-.161,14.306,14.306,0,0,0-5.2-.225,3.575,3.575,0,0,0-2.365.865" transform="translate(0 -1.268)" fill="#0c0a09"/>
        <path id="Path_1032085" data-name="Path 1032085" d="M78.654,70.049c-.806.109-1,.34-1.116,1.335a13.8,13.8,0,0,1-1.247,4.541,12.563,12.563,0,0,1-5.364,5.606c-.121.067-.252.115-.375.17a20.592,20.592,0,0,0,.671-2.519A11.886,11.886,0,0,0,68.2,69.328a13.951,13.951,0,0,0-18.028-2.446c-.138.088-.28.168-.421.251q-.182-.858-.366-1.717c.727-.2.9-.429.879-1.154a3.445,3.445,0,0,0-1.13-2.347c0-1.386-.039-2.773.015-4.156a27.063,27.063,0,0,1,.32-2.913c.2-1.309.439-2.61.662-3.914h3.21a4.936,4.936,0,0,0,4.429,2.6,5.024,5.024,0,0,0,4.51-2.721,5.1,5.1,0,0,0,5.367-1.274c1.538-1.529,1.468-3.481,1.365-5.588,1.767.475,3.459.86,5.1,1.4a2.9,2.9,0,0,1,1.812,2.127,55.171,55.171,0,0,1,2.106,12.853c.071,1.991.021,3.987,0,5.982-.005.641.206,1.077.871,1.212q-.123,1.266-.247,2.532m-6.676-5.725a3.347,3.347,0,0,0-6.688-.033c-.016.655.275,1.051.81,1.1.579.055.963-.293,1.051-.951a1.487,1.487,0,0,1,2.972.028.923.923,0,0,0,1.008.925c.543-.035.851-.425.847-1.07" transform="translate(-26.162 -23.408)" fill="#e5976e"/>
        <path id="Path_1032086" data-name="Path 1032086" d="M19.782,10.28a.991.991,0,0,0,1.273-.751c.295-.807.583-1.617.854-2.432a.8.8,0,0,1,1.586.126c.255,1.7.5,3.409.79,5.106a7,7,0,0,0,2.45,4.153c1.409,1.227,2.817,2.456,4.2,3.659l-.657,1.98c-2.325.684-4.9.77-7.039,2.266-.744-.652-1.528-1.286-2.251-1.983a6.782,6.782,0,0,1-1.87-7.372c.108-.351.227-.7.369-1.041a1.105,1.105,0,0,0-.4-1.5l.693-2.207" transform="translate(-9.977 -3.434)" fill="#ffe3a7"/>
        <path id="Path_1032087" data-name="Path 1032087" d="M36.036,65.448q.183.858.365,1.717a13.013,13.013,0,0,0-5.09,7.129,10.055,10.055,0,0,0,.384,7.272c.014.028-.006.073-.017.176a11.239,11.239,0,0,1-3.073-2.112,12.937,12.937,0,0,1-3.929-8.018,60.82,60.82,0,0,1-.6-9.529,58.733,58.733,0,0,1,2.193-14.514,3.247,3.247,0,0,1,2.4-2.413c1.463-.389,2.935-.743,4.552-1.149-.369,3.184.336,5.751,3.562,6.96-.223,1.3-.467,2.6-.662,3.914a26.828,26.828,0,0,0-.32,2.913c-.055,1.383-.015,2.77-.015,4.156-.135-.093-.265-.192-.4-.276a3.233,3.233,0,0,0-3.344-.146,3.193,3.193,0,0,0-1.8,2.692c-.06.747.248,1.163.824,1.209.594.047.916-.277,1.026-1.033a1.463,1.463,0,0,1,1.5-1.349,1.413,1.413,0,0,1,1.463,1.363,1,1,0,0,0,.993,1.042" transform="translate(-12.817 -23.439)" fill="#d87543"/>
        <path id="Path_1032088" data-name="Path 1032088" d="M51.192,95.028A10.937,10.937,0,0,1,57.11,92.4a11.7,11.7,0,0,1,10.683,3.789,10.144,10.144,0,0,1,2.685,8.627,4.411,4.411,0,0,1-3.656,3.833,25.027,25.027,0,0,1-4.193.582c-1.655.107-3.32.055-4.981.072l-.317-.515-1.422-2.321a3.3,3.3,0,0,0,1.507-1.941c.884-2.993-1.886-6.782-5.2-6.33a2.291,2.291,0,0,1-.3-.505c-.255-.882-.484-1.771-.722-2.658m16.881,6.7a3.239,3.239,0,0,0-4.6-3.274,5.425,5.425,0,0,0-3.254,5.371,3.117,3.117,0,0,0,4.3,2.761,5.4,5.4,0,0,0,3.562-4.858" transform="translate(-27.268 -49.148)" fill="#fff2df"/>
        <path id="Path_1032089" data-name="Path 1032089" d="M56.786,33.024a11.563,11.563,0,0,1,1.8-1.163,2.8,2.8,0,0,1,3,.5,3.4,3.4,0,0,0,3.425.717,3.115,3.115,0,0,1,4,3.052c.008,1.089.007,2.179,0,3.269a3.171,3.171,0,0,1-4.124,3.11,2.272,2.272,0,0,0-1.3-.07,2.526,2.526,0,0,0-1.131.949,3.171,3.171,0,0,1-5.656-.022,1.875,1.875,0,0,0-2.347-.93,10.325,10.325,0,0,1-1.864.081c.671-1.795,1.272-3.62,2.036-5.374.617-1.417,1.431-2.749,2.157-4.119" transform="translate(-28.014 -16.846)" fill="#bb5623"/>
        <path id="Path_1032090" data-name="Path 1032090" d="M98.147,24.391C96,22.879,93.461,22.81,91.1,22.107c-.2-.61-.415-1.266-.647-1.972,1.287-1.123,2.589-2.318,3.953-3.437a8.057,8.057,0,0,0,2.924-5.63c.136-1.244.349-2.479.527-3.719.065-.457.218-.855.753-.906s.757.3.91.744c.923,2.647,1.9,5.277,2.761,7.943a6.63,6.63,0,0,1-1.828,7.212c-.733.719-1.535,1.367-2.3,2.047" transform="translate(-48.18 -3.43)" fill="#fff3df"/>
        <path id="Path_1032091" data-name="Path 1032091" d="M51.328,109.606l1.422,2.321.317.515a24.78,24.78,0,0,1-6.6-.619c-2.546-.7-3.69-2.005-3.85-4.619a10.38,10.38,0,0,1,3.994-9.032c.238.887.468,1.776.722,2.658a2.262,2.262,0,0,0,.3.5,3.316,3.316,0,0,0-2.531,3.4,5.193,5.193,0,0,0,.9,2.887,4.361,4.361,0,0,0,5.324,1.981" transform="translate(-22.688 -52.292)" fill="#ffe2a6"/>
        <path id="Path_1032092" data-name="Path 1032092" d="M54.1,34.533c-.726,1.37-1.54,2.7-2.157,4.119-.764,1.754-1.365,3.579-2.036,5.374a3.119,3.119,0,0,1-2.354-3.014q-.01-1.666,0-3.333a3.117,3.117,0,0,1,3.963-3.1,4.176,4.176,0,0,0,2.585-.043" transform="translate(-25.326 -18.355)" fill="#8f4119"/>
        <path id="Path_1032093" data-name="Path 1032093" d="M114.457,69.026c-.121-1.031-.254-2.063-.359-3.1-.126-1.242-.118-1.252,1.085-1.626a25.407,25.407,0,0,1,6.443-1.2c.14-.006.28,0,.569,0A9.294,9.294,0,0,1,121.7,64.4c-1.016,1.782-5.079,4.376-7.242,4.627" transform="translate(-60.747 -33.613)" fill="#ba5623"/>
        <path id="Path_1032094" data-name="Path 1032094" d="M11.639,69c-3.351-.663-7.363-3.747-7.613-5.941a18.157,18.157,0,0,1,2.358.193c1.76.37,3.5.834,5.249,1.25.454.108.551.34.476.8-.155.948-.225,1.91-.336,2.864-.033.279-.088.554-.134.832" transform="translate(-2.144 -33.59)" fill="#8f4118"/>
        <path id="Path_1032095" data-name="Path 1032095" d="M112.623,59.172l-.415-2.028c2.044-1.006,7.19-.64,7.986.444l-7.571,1.584" transform="translate(-59.768 -30.123)" fill="#d47342"/>
        <path id="Path_1032096" data-name="Path 1032096" d="M5.92,57.587a3.575,3.575,0,0,1,2.365-.865,14.306,14.306,0,0,1,5.2.225,4.293,4.293,0,0,1,.455.161c-.148.737-.291,1.452-.417,2.082l-7.6-1.6" transform="translate(-3.153 -30.137)" fill="#b85523"/>
        <path id="Path_1032097" data-name="Path 1032097" d="M43.061,84.963a1,1,0,0,1-.993-1.042A1.413,1.413,0,0,0,40.6,82.559a1.463,1.463,0,0,0-1.5,1.349c-.11.756-.433,1.08-1.026,1.033-.577-.045-.884-.461-.824-1.209a3.193,3.193,0,0,1,1.8-2.692,3.233,3.233,0,0,1,3.344.146c.14.084.27.184.4.276a3.445,3.445,0,0,1,1.13,2.347c.021.726-.152.958-.879,1.155" transform="translate(-19.842 -42.955)" fill="#0e0906"/>
        <path id="Path_1032098" data-name="Path 1032098" d="M90.411,83.877c0,.645-.3,1.035-.847,1.07a.923.923,0,0,1-1.008-.925,1.487,1.487,0,0,0-2.972-.028c-.088.658-.472,1.006-1.051.951-.535-.05-.826-.446-.81-1.1a3.347,3.347,0,0,1,6.688.033" transform="translate(-44.595 -42.961)" fill="#0d0a08"/>
        <path id="Path_1032099" data-name="Path 1032099" d="M54.193,113.17a4.361,4.361,0,0,1-5.324-1.981,5.188,5.188,0,0,1-.9-2.887,3.315,3.315,0,0,1,2.53-3.4c3.313-.452,6.082,3.336,5.2,6.33a3.3,3.3,0,0,1-1.508,1.941m-.222-3.1a3.417,3.417,0,0,0-2.311-3.223,1.277,1.277,0,0,0-1.786,1.169,3.543,3.543,0,0,0,1.964,3.408c1.219.567,2.134-.014,2.133-1.354" transform="translate(-25.553 -55.855)" fill="#0a0a09"/>
        <path id="Path_1032100" data-name="Path 1032100" d="M78.329,108.445a5.4,5.4,0,0,1-3.562,4.857,3.116,3.116,0,0,1-4.3-2.76,5.426,5.426,0,0,1,3.254-5.371,3.24,3.24,0,0,1,4.6,3.274m-1.888-.059c.016-1.4-.87-1.978-2.15-1.412a3.557,3.557,0,0,0-1.946,3.6,1.267,1.267,0,0,0,1.538,1.042,3.443,3.443,0,0,0,2.558-3.231" transform="translate(-37.524 -55.868)" fill="#090a0a"/>
        <path id="Path_1032101" data-name="Path 1032101" d="M56.124,112.224c0,1.34-.914,1.921-2.133,1.354a3.542,3.542,0,0,1-1.964-3.408A1.277,1.277,0,0,1,53.813,109a3.418,3.418,0,0,1,2.311,3.223" transform="translate(-27.705 -58.013)" fill="#354054"/>
        <path id="Path_1032102" data-name="Path 1032102" d="M78.559,110.522A3.443,3.443,0,0,1,76,113.753a1.267,1.267,0,0,1-1.538-1.042,3.557,3.557,0,0,1,1.946-3.6c1.28-.566,2.166.015,2.15,1.412" transform="translate(-39.642 -58.004)" fill="#495872"/>
      </g>
    </g>
  </g>
</svg>
