<svg xmlns="http://www.w3.org/2000/svg" xmlns:xlink="http://www.w3.org/1999/xlink" width="108.914" height="108.914" viewBox="0 0 108.914 108.914">
  <defs>
    <filter id="Path_874925" x="0" y="0" width="108.914" height="108.914" filterUnits="userSpaceOnUse">
      <feOffset dy="3" input="SourceAlpha"/>
      <feGaussianBlur stdDeviation="3" result="blur"/>
      <feFlood flood-opacity="0.161"/>
      <feComposite operator="in" in2="blur"/>
      <feComposite in="SourceGraphic"/>
    </filter>
    <clipPath id="clip-path">
      <rect id="Rectangle_415546" data-name="Rectangle 415546" width="56.279" height="56.279" fill="none"/>
    </clipPath>
  </defs>
  <g id="Group_1181011" data-name="Group 1181011" transform="translate(-1113.825 -1946.211)">
    <g id="Group_1107928" data-name="Group 1107928" transform="translate(1122.824 1952.211)">
      <g transform="matrix(1, 0, 0, 1, -9, -6)" filter="url(#Path_874925)">
        <g id="Path_874925-2" data-name="Path 874925" transform="translate(9 6)" fill="#dcd7ba" opacity="0.859">
          <path d="M 45.45676803588867 89.41407012939453 C 39.52198028564453 89.41407012939453 33.76551818847656 88.25206756591797 28.34726715087891 85.96034240722656 C 23.11311721801758 83.74648284912109 18.41204261779785 80.57682800292969 14.37464332580566 76.5394287109375 C 10.33724308013916 72.50202941894531 7.167593002319336 67.80095672607422 4.953730583190918 62.56679534912109 C 2.662005424499512 57.14855575561523 1.500005483627319 51.39208221435547 1.500005483627319 45.45729446411133 C 1.500005483627319 39.52198028564453 2.662005424499512 33.76551818847656 4.953730583190918 28.34726905822754 C 7.167593002319336 23.11310577392578 10.33724308013916 18.41203117370605 14.37464332580566 14.37464332580566 C 18.41204261779785 10.33724403381348 23.11311721801758 7.167593955993652 28.34726715087891 4.953731060028076 C 33.76551818847656 2.662006139755249 39.52198028564453 1.500006198883057 45.45676803588867 1.500006198883057 C 51.39155578613281 1.500006198883057 57.14802932739258 2.662006139755249 62.56626892089844 4.953731060028076 C 67.80043029785156 7.167593955993652 72.50150299072266 10.33724403381348 76.53890228271484 14.37464332580566 C 80.57630920410156 18.41203117370605 83.74595642089844 23.11310577392578 85.95981597900391 28.34726905822754 C 88.25154113769531 33.76551818847656 89.41354370117188 39.52198028564453 89.41354370117188 45.45676803588867 C 89.41354370117188 51.39208221435547 88.25154113769531 57.14855575561523 85.95981597900391 62.56679534912109 C 83.74595642089844 67.80095672607422 80.57630920410156 72.50202941894531 76.53890228271484 76.5394287109375 C 72.50150299072266 80.57682800292969 67.80043029785156 83.74648284912109 62.56626892089844 85.96034240722656 C 57.14802932739258 88.25206756591797 51.39155578613281 89.41407012939453 45.45676803588867 89.41407012939453 Z" stroke="none"/>
          <path d="M 45.45676803588867 3 C 39.72381210327148 3 34.1639404296875 4.12213134765625 28.93159484863281 6.335227966308594 C 23.87622833251953 8.473472595214844 19.33542633056641 11.53517150878906 15.43529510498047 15.435302734375 C 11.53517150878906 19.33543395996094 8.473464965820312 23.87622833251953 6.335227966308594 28.93160247802734 C 4.122123718261719 34.16394424438477 3 39.72381591796875 3 45.4572868347168 C 3 51.19024658203125 4.122123718261719 56.75011825561523 6.335227966308594 61.98246002197266 C 8.473464965820312 67.03782653808594 11.53517150878906 71.57862854003906 15.43529510498047 75.478759765625 C 19.33542633056641 79.37889099121094 23.87622833251953 82.44058990478516 28.93159484863281 84.57883453369141 C 34.1639404296875 86.79193115234375 39.72381210327148 87.9140625 45.45676803588867 87.9140625 C 51.18972396850586 87.9140625 56.74959564208984 86.79193115234375 61.98194122314453 84.57883453369141 C 67.03730773925781 82.44058990478516 71.57810974121094 79.37889099121094 75.47824096679688 75.478759765625 C 79.37837219238281 71.57862854003906 82.44007110595703 67.03782653808594 84.57830810546875 61.98246002197266 C 86.79141235351562 56.75011825561523 87.91353607177734 51.19024658203125 87.91353607177734 45.4567756652832 C 87.91353607177734 39.72381591796875 86.79141235351562 34.16394424438477 84.57830810546875 28.93160247802734 C 82.44007110595703 23.87622833251953 79.37837219238281 19.33543395996094 75.47824096679688 15.435302734375 C 71.57810974121094 11.53517150878906 67.03730773925781 8.473472595214844 61.98194122314453 6.335227966308594 C 56.74959564208984 4.12213134765625 51.18972396850586 3 45.45676803588867 3 M 45.45676803588867 0 C 70.56185150146484 0 90.91353607177734 20.35169219970703 90.91353607177734 45.4567756652832 L 90.91353607177734 45.4572868347168 C 90.91353607177734 70.5623779296875 70.56185150146484 90.9140625 45.45676803588867 90.9140625 C 20.3516845703125 90.9140625 0 70.5623779296875 0 45.4572868347168 L 0 45.4567756652832 C 0 20.35169219970703 20.3516845703125 0 45.45676803588867 0 Z" stroke="none" fill="#fff"/>
        </g>
      </g>
      <g id="Path_874923" data-name="Path 874923" transform="translate(0 0)" fill="none">
        <path d="M45.457,0A45.457,45.457,0,0,1,90.914,45.457h0A45.457,45.457,0,0,1,0,45.457H0A45.457,45.457,0,0,1,45.457,0Z" stroke="none"/>
        <path d="M 45.45676803588867 3 C 39.72381210327148 3 34.1639404296875 4.12213134765625 28.93159484863281 6.335227966308594 C 23.87622833251953 8.473472595214844 19.33542633056641 11.53517150878906 15.43529510498047 15.435302734375 C 11.53517150878906 19.33543395996094 8.473464965820312 23.87622833251953 6.335227966308594 28.93160247802734 C 4.122123718261719 34.16394424438477 3 39.72381591796875 3 45.4572868347168 C 3 51.19024658203125 4.122123718261719 56.75011825561523 6.335227966308594 61.98246002197266 C 8.473464965820312 67.03782653808594 11.53517150878906 71.57862854003906 15.43529510498047 75.478759765625 C 19.33542633056641 79.37889099121094 23.87622833251953 82.44058990478516 28.93159484863281 84.57883453369141 C 34.1639404296875 86.79193115234375 39.72381210327148 87.9140625 45.45676803588867 87.9140625 C 51.18972396850586 87.9140625 56.74959564208984 86.79193115234375 61.98194122314453 84.57883453369141 C 67.03730773925781 82.44058990478516 71.57810974121094 79.37889099121094 75.47824096679688 75.478759765625 C 79.37837219238281 71.57862854003906 82.44007110595703 67.03782653808594 84.57830810546875 61.98246002197266 C 86.79141235351562 56.75011825561523 87.91353607177734 51.19024658203125 87.91353607177734 45.4567756652832 C 87.91353607177734 39.72381591796875 86.79141235351562 34.16394424438477 84.57830810546875 28.93160247802734 C 82.44007110595703 23.87622833251953 79.37837219238281 19.33543395996094 75.47824096679688 15.435302734375 C 71.57810974121094 11.53517150878906 67.03730773925781 8.473472595214844 61.98194122314453 6.335227966308594 C 56.74959564208984 4.12213134765625 51.18972396850586 3 45.45676803588867 3 M 45.45676803588867 0 C 70.56185150146484 0 90.91353607177734 20.35169219970703 90.91353607177734 45.4567756652832 L 90.91353607177734 45.4572868347168 C 90.91353607177734 70.5623779296875 70.56185150146484 90.9140625 45.45676803588867 90.9140625 C 20.3516845703125 90.9140625 0 70.5623779296875 0 45.4572868347168 L 0 45.4567756652832 C 0 20.35169219970703 20.3516845703125 0 45.45676803588867 0 Z" stroke="none" fill="#fff"/>
      </g>
    </g>
    <g id="Group_1181022" data-name="Group 1181022" transform="translate(1140.142 1969.528)">
      <g id="Group_1175642" data-name="Group 1175642">
        <g id="Group_1175641" data-name="Group 1175641" clip-path="url(#clip-path)">
          <path id="Path_1031090" data-name="Path 1031090" d="M19.471,33.478s-3.009-11.2-16.825-6.9c0,0,1.08,14.906,13.317,12.074Z" transform="translate(-1.822 -17.621)" fill="#fcd59f"/>
          <path id="Path_1031091" data-name="Path 1031091" d="M124.011,33.478s3.009-11.2,16.825-6.9c0,0-1.08,14.906-13.317,12.074Z" transform="translate(-85.381 -17.621)" fill="#fcd59f"/>
          <path id="Path_1031092" data-name="Path 1031092" d="M142.027,25.759a22.367,22.367,0,0,1,3.586.819s-.763,10.534-8.277,12.208c11.632,2.17,12.674-12.208,12.674-12.208a17.544,17.544,0,0,0-7.983-.819" transform="translate(-94.555 -17.623)" fill="#f7c783"/>
          <path id="Path_1031093" data-name="Path 1031093" d="M107.011,9.46s6.156-4.2,7.672-6.813a11.2,11.2,0,0,1-.274,9.09L107.011,13l-.116-2.915" transform="translate(-73.596 -1.822)" fill="#cad4e6"/>
          <path id="Path_1031094" data-name="Path 1031094" d="M56.348,9.46s-6.156-4.2-7.672-6.813a11.2,11.2,0,0,0,.274,9.09L56.348,13l.115-2.915" transform="translate(-32.959 -1.822)" fill="#cad4e6"/>
          <path id="Path_1031095" data-name="Path 1031095" d="M57.54,72.335H45.4a9.061,9.061,0,0,1-9.022-8.2L33.9,38.05A12.369,12.369,0,0,1,46.221,24.518h10.5A12.368,12.368,0,0,1,69.035,38.05L66.562,64.131a9.061,9.061,0,0,1-9.022,8.2" transform="translate(-23.304 -16.88)" fill="#fff1ec"/>
          <path id="Path_1031096" data-name="Path 1031096" d="M97.548,24.519h-4.4a12.368,12.368,0,0,1,12.318,13.532L103,64.132a9.061,9.061,0,0,1-9.022,8.2h4.4a9.062,9.062,0,0,0,9.022-8.2l2.473-26.081A12.368,12.368,0,0,0,97.548,24.519" transform="translate(-64.134 -16.881)" fill="#fce2c5"/>
          <path id="Path_1031097" data-name="Path 1031097" d="M41.908,137.545a9.061,9.061,0,0,0,9.023,8.2h12.14a9.061,9.061,0,0,0,9.023-8.2,5.848,5.848,0,0,0-5.823-6.4H47.731a5.847,5.847,0,0,0-5.823,6.4" transform="translate(-28.835 -90.294)" fill="#ff8093"/>
          <path id="Path_1031098" data-name="Path 1031098" d="M79.9,31.56c.006,3.936,2.324,6.121,5.31,7.72,5.174,2.771,3.117,6.438,5.419,9.865,2.365,3.52,5.645,3.562,8.825,2.482l1.287-13.577A12.368,12.368,0,0,0,88.427,24.518H82.418A10.115,10.115,0,0,0,79.9,31.56" transform="translate(-55.013 -16.88)" fill="#8f5a46"/>
        </g>
      </g>
      <g id="Group_1175644" data-name="Group 1175644">
        <g id="Group_1175643" data-name="Group 1175643" clip-path="url(#clip-path)">
          <path id="Path_1031099" data-name="Path 1031099" d="M97.548,24.519h-4.4a12.368,12.368,0,0,1,12.318,13.532l-1.288,13.577c-.332.113-.666.213-1,.3a8.436,8.436,0,0,0,5.4-.3l1.287-13.577A12.368,12.368,0,0,0,97.548,24.519" transform="translate(-64.134 -16.881)" fill="#7d4f3d"/>
          <path id="Path_1031100" data-name="Path 1031100" d="M55.7,8.168c-7.061-2.2-11.428-.432-13.937,1.623l-.006-.005A11.842,11.842,0,0,0,41.819.447.824.824,0,0,0,40.373.412c-1.12,1.932-5.4,5.145-7.215,6.4H23.645c-1.813-1.258-6.095-4.47-7.215-6.4a.824.824,0,0,0-1.446.036,11.773,11.773,0,0,0-.047,9.05q-.2.153-.4.314C10.206,6.228,4.587,6.921.579,8.168A.824.824,0,0,0,0,9.014c.017.24.463,5.915,3.733,9.76a.825.825,0,0,0,1.256-1.068c-2.31-2.714-3.057-6.623-3.269-8.157,4.817-1.36,8.713-.889,11.6,1.4a13.064,13.064,0,0,0-3.6,9.5,7.755,7.755,0,0,1-1.8-.519A.825.825,0,0,0,7.28,21.44a9.5,9.5,0,0,0,2.582.689l2.39,25.2a9.979,9.979,0,0,0,9.844,8.95h12.14a9.977,9.977,0,0,0,9.843-8.95l2.39-25.206c3.662-.473,6.514-2.878,8.26-6.972a21.214,21.214,0,0,0,1.548-6.137.823.823,0,0,0-.577-.847M44.91,21.093,43.675,34.126c-4.66,1.384-7.735-1.374-8.6-5.893-.417-2.173-.891-4.637-4.481-6.56-3.412-1.827-4.87-3.919-4.875-6.994a9.771,9.771,0,0,1,2.056-6.216h5.644a11.544,11.544,0,0,1,11.5,12.63M40.8,2.563a9.71,9.71,0,0,1,.183,1.022,11.242,11.242,0,0,1-.621,5.21,13.243,13.243,0,0,0-4.672-1.782A37.21,37.21,0,0,0,40.8,2.563m-24.8,0a36.862,36.862,0,0,0,5.02,4.382,13.135,13.135,0,0,0-4.667,1.608A11.026,11.026,0,0,1,16,2.568M15.1,11.512a11.51,11.51,0,0,1,7.821-3.05h2.832a11.7,11.7,0,0,0-1.682,6.218c.007,3.91,2.449,6.68,5.745,8.446,2.9,1.552,3.242,3.343,3.641,5.418.761,3.959,3.208,7.642,7.65,7.642a10.244,10.244,0,0,0,2.407-.31l-.657,6.929a6.763,6.763,0,0,0-5.416-2.776.825.825,0,0,0,0,1.649,5.073,5.073,0,0,1,5,5.5,8.324,8.324,0,0,1-8.2,7.457H22.1a8.326,8.326,0,0,1-8.2-7.457,5.074,5.074,0,0,1,5-5.5H33.078a.825.825,0,0,0,0-1.649H18.9a6.764,6.764,0,0,0-5.416,2.776L11.421,21.093a11.458,11.458,0,0,1,3.675-9.58m38.1,3.03c-1.468,3.417-3.684,5.4-6.594,5.895a13.312,13.312,0,0,0-3.618-9.514c2.885-2.268,6.772-2.73,11.573-1.374A20.056,20.056,0,0,1,53.2,14.542" transform="translate(0 0)" fill="#060606"/>
        </g>
      </g>
      <g id="Group_1175646" data-name="Group 1175646">
        <g id="Group_1175645" data-name="Group 1175645" clip-path="url(#clip-path)">
          <path id="Path_1031101" data-name="Path 1031101" d="M65.14,142.826a3.668,3.668,0,0,0-3.664,3.663.825.825,0,0,0,1.649,0A2.015,2.015,0,1,1,65.14,148.5a.825.825,0,0,0,0,1.649,3.663,3.663,0,1,0,0-7.326" transform="translate(-42.326 -98.335)" fill="#060606"/>
          <path id="Path_1031102" data-name="Path 1031102" d="M95.833,146.49a3.668,3.668,0,0,0,3.664,3.663.825.825,0,0,0,0-1.649,2.014,2.014,0,1,1,2.016-2.014.825.825,0,0,0,1.649,0,3.664,3.664,0,0,0-7.329,0" transform="translate(-65.98 -98.335)" fill="#060606"/>
          <path id="Path_1031103" data-name="Path 1031103" d="M54.308,64.23a.824.824,0,0,0,.824-.824,3.345,3.345,0,0,1,3.342-3.34.824.824,0,1,0,0-1.649,5,5,0,0,0-4.991,4.988.824.824,0,0,0,.825.824" transform="translate(-36.823 -40.22)" fill="#060606"/>
          <path id="Path_1031104" data-name="Path 1031104" d="M110.287,58.418a.825.825,0,0,0,0,1.649,3.344,3.344,0,0,1,3.342,3.339.825.825,0,0,0,1.649,0,5,5,0,0,0-4.991-4.988" transform="translate(-75.381 -40.22)" fill="#060606"/>
        </g>
      </g>
    </g>
  </g>
</svg>
