<svg xmlns="http://www.w3.org/2000/svg" xmlns:xlink="http://www.w3.org/1999/xlink" width="108.914" height="108.914" viewBox="0 0 108.914 108.914">
  <defs>
    <filter id="Path_874925" x="0" y="0" width="108.914" height="108.914" filterUnits="userSpaceOnUse">
      <feOffset dy="3" input="SourceAlpha"/>
      <feGaussianBlur stdDeviation="3" result="blur"/>
      <feFlood flood-opacity="0.161"/>
      <feComposite operator="in" in2="blur"/>
      <feComposite in="SourceGraphic"/>
    </filter>
  </defs>
  <g id="Group_1181037" data-name="Group 1181037" transform="translate(-1112.708 -2511.157)">
    <g id="Group_1109819" data-name="Group 1109819" transform="translate(1121.708 2517.157)">
      <g transform="matrix(1, 0, 0, 1, -9, -6)" filter="url(#Path_874925)">
        <g id="Path_874925-2" data-name="Path 874925" transform="translate(9 6)" fill="#efdb59" opacity="0.859">
          <path d="M 45.45676803588867 89.41407012939453 C 39.52198028564453 89.41407012939453 33.76551818847656 88.25206756591797 28.34726715087891 85.96034240722656 C 23.11311721801758 83.74648284912109 18.41204261779785 80.57682800292969 14.37464332580566 76.5394287109375 C 10.33724308013916 72.50202941894531 7.167593002319336 67.80095672607422 4.953730583190918 62.56679534912109 C 2.662005424499512 57.14855575561523 1.500005483627319 51.39208221435547 1.500005483627319 45.45729446411133 C 1.500005483627319 39.52198028564453 2.662005424499512 33.76551818847656 4.953730583190918 28.34726905822754 C 7.167593002319336 23.11310577392578 10.33724308013916 18.41203117370605 14.37464332580566 14.37464332580566 C 18.41204261779785 10.33724403381348 23.11311721801758 7.167593955993652 28.34726715087891 4.953731060028076 C 33.76551818847656 2.662006139755249 39.52198028564453 1.500006198883057 45.45676803588867 1.500006198883057 C 51.39155578613281 1.500006198883057 57.14802932739258 2.662006139755249 62.56626892089844 4.953731060028076 C 67.80043029785156 7.167593955993652 72.50150299072266 10.33724403381348 76.53890228271484 14.37464332580566 C 80.57630920410156 18.41203117370605 83.74595642089844 23.11310577392578 85.95981597900391 28.34726905822754 C 88.25154113769531 33.76551818847656 89.41354370117188 39.52198028564453 89.41354370117188 45.45676803588867 C 89.41354370117188 51.39208221435547 88.25154113769531 57.14855575561523 85.95981597900391 62.56679534912109 C 83.74595642089844 67.80095672607422 80.57630920410156 72.50202941894531 76.53890228271484 76.5394287109375 C 72.50150299072266 80.57682800292969 67.80043029785156 83.74648284912109 62.56626892089844 85.96034240722656 C 57.14802932739258 88.25206756591797 51.39155578613281 89.41407012939453 45.45676803588867 89.41407012939453 Z" stroke="none"/>
          <path d="M 45.45676803588867 3 C 39.72381210327148 3 34.1639404296875 4.12213134765625 28.93159484863281 6.335227966308594 C 23.87622833251953 8.473472595214844 19.33542633056641 11.53517150878906 15.43529510498047 15.435302734375 C 11.53517150878906 19.33543395996094 8.473464965820312 23.87622833251953 6.335227966308594 28.93160247802734 C 4.122123718261719 34.16394424438477 3 39.72381591796875 3 45.4572868347168 C 3 51.19024658203125 4.122123718261719 56.75011825561523 6.335227966308594 61.98246002197266 C 8.473464965820312 67.03782653808594 11.53517150878906 71.57862854003906 15.43529510498047 75.478759765625 C 19.33542633056641 79.37889099121094 23.87622833251953 82.44058990478516 28.93159484863281 84.57883453369141 C 34.1639404296875 86.79193115234375 39.72381210327148 87.9140625 45.45676803588867 87.9140625 C 51.18972396850586 87.9140625 56.74959564208984 86.79193115234375 61.98194122314453 84.57883453369141 C 67.03730773925781 82.44058990478516 71.57810974121094 79.37889099121094 75.47824096679688 75.478759765625 C 79.37837219238281 71.57862854003906 82.44007110595703 67.03782653808594 84.57830810546875 61.98246002197266 C 86.79141235351562 56.75011825561523 87.91353607177734 51.19024658203125 87.91353607177734 45.4567756652832 C 87.91353607177734 39.72381591796875 86.79141235351562 34.16394424438477 84.57830810546875 28.93160247802734 C 82.44007110595703 23.87622833251953 79.37837219238281 19.33543395996094 75.47824096679688 15.435302734375 C 71.57810974121094 11.53517150878906 67.03730773925781 8.473472595214844 61.98194122314453 6.335227966308594 C 56.74959564208984 4.12213134765625 51.18972396850586 3 45.45676803588867 3 M 45.45676803588867 0 C 70.56185150146484 0 90.91353607177734 20.35169219970703 90.91353607177734 45.4567756652832 L 90.91353607177734 45.4572868347168 C 90.91353607177734 70.5623779296875 70.56185150146484 90.9140625 45.45676803588867 90.9140625 C 20.3516845703125 90.9140625 0 70.5623779296875 0 45.4572868347168 L 0 45.4567756652832 C 0 20.35169219970703 20.3516845703125 0 45.45676803588867 0 Z" stroke="none" fill="#fff"/>
        </g>
      </g>
      <g id="Path_874923" data-name="Path 874923" transform="translate(0 0)" fill="none">
        <path d="M45.457,0A45.457,45.457,0,0,1,90.914,45.457h0A45.457,45.457,0,0,1,0,45.457H0A45.457,45.457,0,0,1,45.457,0Z" stroke="none"/>
        <path d="M 45.45676803588867 3 C 39.72381210327148 3 34.1639404296875 4.12213134765625 28.93159484863281 6.335227966308594 C 23.87622833251953 8.473472595214844 19.33542633056641 11.53517150878906 15.43529510498047 15.435302734375 C 11.53517150878906 19.33543395996094 8.473464965820312 23.87622833251953 6.335227966308594 28.93160247802734 C 4.122123718261719 34.16394424438477 3 39.72381591796875 3 45.4572868347168 C 3 51.19024658203125 4.122123718261719 56.75011825561523 6.335227966308594 61.98246002197266 C 8.473464965820312 67.03782653808594 11.53517150878906 71.57862854003906 15.43529510498047 75.478759765625 C 19.33542633056641 79.37889099121094 23.87622833251953 82.44058990478516 28.93159484863281 84.57883453369141 C 34.1639404296875 86.79193115234375 39.72381210327148 87.9140625 45.45676803588867 87.9140625 C 51.18972396850586 87.9140625 56.74959564208984 86.79193115234375 61.98194122314453 84.57883453369141 C 67.03730773925781 82.44058990478516 71.57810974121094 79.37889099121094 75.47824096679688 75.478759765625 C 79.37837219238281 71.57862854003906 82.44007110595703 67.03782653808594 84.57830810546875 61.98246002197266 C 86.79141235351562 56.75011825561523 87.91353607177734 51.19024658203125 87.91353607177734 45.4567756652832 C 87.91353607177734 39.72381591796875 86.79141235351562 34.16394424438477 84.57830810546875 28.93160247802734 C 82.44007110595703 23.87622833251953 79.37837219238281 19.33543395996094 75.47824096679688 15.435302734375 C 71.57810974121094 11.53517150878906 67.03730773925781 8.473472595214844 61.98194122314453 6.335227966308594 C 56.74959564208984 4.12213134765625 51.18972396850586 3 45.45676803588867 3 M 45.45676803588867 0 C 70.56185150146484 0 90.91353607177734 20.35169219970703 90.91353607177734 45.4567756652832 L 90.91353607177734 45.4572868347168 C 90.91353607177734 70.5623779296875 70.56185150146484 90.9140625 45.45676803588867 90.9140625 C 20.3516845703125 90.9140625 0 70.5623779296875 0 45.4572868347168 L 0 45.4567756652832 C 0 20.35169219970703 20.3516845703125 0 45.45676803588867 0 Z" stroke="none" fill="#fff"/>
      </g>
    </g>
    <g id="Group_1181039" data-name="Group 1181039" transform="translate(1139.202 2534.657)">
      <g id="Group_1175603" data-name="Group 1175603" transform="translate(0 1.205)">
        <path id="Path_1030960" data-name="Path 1030960" d="M0,6.116c.086-.247.18-.491.258-.741A5.957,5.957,0,0,1,5.7,1.212l.109,0q17.446,0,34.892.009a5.784,5.784,0,0,1,5.647,4.51,7.633,7.633,0,0,1,.177,1.781q.017,12.969.008,25.938v.624c.526.105,1.043.185,1.547.312a10.307,10.307,0,0,1-.857,20.192,10.035,10.035,0,0,1-9.719-3.814.936.936,0,0,0-.816-.386q-12.641.012-25.282.006c-1.147,0-1.35-.207-1.35-1.375V14.673H9.427c-2.749,0-5.5-.01-8.245.008A1.2,1.2,0,0,1,0,14.09V6.116m42.709,46.3a7.407,7.407,0,0,0,4.387.406,8.253,8.253,0,0,0,6.786-6.315A8.535,8.535,0,0,0,42.706,36.368a2.958,2.958,0,0,0-.31.085,8.526,8.526,0,0,0-4.743,11.1,8.127,8.127,0,0,0,5.056,4.865M10.1,2.957A6.506,6.506,0,0,1,11.819,7.7q-.033,20.123-.012,40.247V48.6H36.162a10.391,10.391,0,0,1,8.624-14.521v-.409q0-13.188,0-26.377a4.153,4.153,0,0,0-4.376-4.337q-14.881,0-29.763,0ZM1.758,12.88h8.288c0-1.988.021-3.934-.006-5.88A4.139,4.139,0,0,0,1.775,6.8c-.08,2.015-.017,4.035-.017,6.085" transform="translate(0 -1.205)" fill="#020302"/>
        <path id="Path_1030961" data-name="Path 1030961" d="M10.092,2.957h.547q14.881,0,29.763,0a4.154,4.154,0,0,1,4.376,4.338q.008,13.188,0,26.377v.408A10.392,10.392,0,0,0,36.156,48.6H11.8V47.95q0-20.124.012-40.248a6.5,6.5,0,0,0-1.721-4.745M27.24,20.392c-.409-.686-.783-1.265-1.1-1.87a2.034,2.034,0,0,1-.263-.95,8.306,8.306,0,0,0-8.493-8.641.986.986,0,0,0-.973.467.948.948,0,0,0,.2,1.106,4.962,4.962,0,0,1,.994,2.386c.161,1,.317,2.011.54,3a3.981,3.981,0,0,0,3.439,3.2c.823.117,1.669.066,2.5.133a.883.883,0,0,1,.6.3,13.072,13.072,0,0,1,1.859,4.036c.164.646.24,1.319.345,1.98a.922.922,0,0,0,.94.871.88.88,0,0,0,.805-.982c0-.636-.033-1.275-.008-1.91a15.6,15.6,0,0,1,1.629-6.5.693.693,0,0,1,.7-.443A9.7,9.7,0,0,0,40.217,5.793a.978.978,0,0,0-.609-.941.957.957,0,0,0-1.033.319,6.3,6.3,0,0,1-2.867,1.49c-1.214.31-2.44.583-3.624.983a4.446,4.446,0,0,0-3.063,3.335,10.641,10.641,0,0,0-.03,3.85,1.724,1.724,0,0,1-.055.942,18.032,18.032,0,0,0-1.7,4.622M18.915,37.564c-1.165,0-2.329,0-3.493,0-.833,0-1.124.286-1.125,1.1q0,3.521,0,7.041c0,.769.286,1.082,1.036,1.085q3.575.014,7.15,0c.746,0,1.047-.313,1.049-1.078q.011-3.548,0-7.1c0-.755-.314-1.052-1.07-1.055-1.183-.006-2.365,0-3.548,0m-4.618-6.8c0,1.2-.006,2.4,0,3.6a.886.886,0,0,0,1,1.015q3.6.011,7.206,0c.685,0,1.023-.314,1.027-.993q.018-3.631,0-7.261a.876.876,0,0,0-.977-.992q-3.631-.023-7.261,0c-.68,0-.991.343-.995,1.025-.006,1.2,0,2.4,0,3.6m19.5-1.048q3.739,0,7.477,0c.7,0,1.107-.437.994-1.046-.086-.461-.444-.7-1.076-.7q-7.368,0-14.736,0c-.678,0-1.095.331-1.1.864-.009.555.405.883,1.132.884q3.656,0,7.312,0M30.054,39.4c-1.218,0-2.435,0-3.653,0-.649,0-1.042.329-1.05.851a.918.918,0,0,0,1.024.895q3.655.012,7.308,0a.917.917,0,0,0,1.023-.9c-.009-.52-.4-.847-1.053-.849-1.2-.005-2.4,0-3.6,0M30,33.545c1.2,0,2.4,0,3.6,0,.689,0,1.093-.322,1.1-.86s-.413-.891-1.079-.892q-3.6-.006-7.2,0c-.662,0-1.085.365-1.073.9s.406.85,1.051.853c1.2.006,2.4,0,3.6,0M28.72,43.232c-.8,0-1.6-.007-2.4,0a.877.877,0,0,0-.966.823.9.9,0,0,0,.942.918q2.428.023,4.857,0a.893.893,0,0,0,.94-.867.877.877,0,0,0-.97-.875c-.8-.009-1.6,0-2.4,0" transform="translate(0.006 -1.204)" fill="#d8e8f8"/>
        <path id="Path_1030962" data-name="Path 1030962" d="M42.684,36.347A8.534,8.534,0,0,1,53.858,46.489,8.249,8.249,0,0,1,47.072,52.8a7.406,7.406,0,0,1-4.387-.405,4.337,4.337,0,0,0-.291-.356,19.083,19.083,0,0,1-2.059-2.073,9.247,9.247,0,0,1-1.246-8.916,9.1,9.1,0,0,1,3.36-4.373,1.317,1.317,0,0,0,.234-.332m1.651,9.814-2.466-2.475c-.141-.141-.277-.289-.425-.422a.9.9,0,0,0-1.273-.032.882.882,0,0,0,.039,1.27c1.082,1.1,2.18,2.189,3.274,3.28.665.664,1.034.665,1.7,0q2.8-2.793,5.59-5.591a2.011,2.011,0,0,0,.3-.318.836.836,0,0,0-.09-1.14.812.812,0,0,0-1.094-.094,2.785,2.785,0,0,0-.441.4c-1.682,1.684-3.362,3.37-5.106,5.119" transform="translate(0.023 -1.184)" fill="#6fd840"/>
        <path id="Path_1030963" data-name="Path 1030963" d="M1.757,12.879c0-2.049-.063-4.069.017-6.085A4.139,4.139,0,0,1,10.039,7c.027,1.945.006,3.891.006,5.88Z" transform="translate(0.001 -1.204)" fill="#8ad6f9"/>
        <path id="Path_1030964" data-name="Path 1030964" d="M42.684,36.347a1.315,1.315,0,0,1-.233.332,9.087,9.087,0,0,0-3.36,4.374,9.243,9.243,0,0,0,1.246,8.916A18.984,18.984,0,0,0,42.4,52.041a4.558,4.558,0,0,1,.291.356,8.124,8.124,0,0,1-5.056-4.865,8.525,8.525,0,0,1,4.742-11.1,2.977,2.977,0,0,1,.311-.085" transform="translate(0.022 -1.184)" fill="#63c139"/>
        <path id="Path_1030965" data-name="Path 1030965" d="M27.238,20.392a18.017,18.017,0,0,1,1.7-4.624,1.715,1.715,0,0,0,.055-.942,10.636,10.636,0,0,1,.03-3.849A4.445,4.445,0,0,1,32.08,7.643c1.184-.4,2.411-.673,3.624-.984a6.288,6.288,0,0,0,2.868-1.49A.96.96,0,0,1,39.6,4.85a.977.977,0,0,1,.609.941,9.7,9.7,0,0,1-9.269,10.79.691.691,0,0,0-.7.442,15.608,15.608,0,0,0-1.629,6.5c-.025.636.008,1.274.009,1.911a.88.88,0,0,1-.805.981.921.921,0,0,1-.941-.87c-.1-.662-.181-1.333-.345-1.981a13.056,13.056,0,0,0-1.859-4.035.877.877,0,0,0-.6-.3c-.833-.066-1.678-.016-2.5-.133a3.982,3.982,0,0,1-3.44-3.2c-.223-.992-.379-2-.539-3A4.965,4.965,0,0,0,16.6,10.5.948.948,0,0,1,16.409,9.4a.986.986,0,0,1,.972-.468,8.307,8.307,0,0,1,8.494,8.641,2.011,2.011,0,0,0,.263.95c.316.606.69,1.184,1.1,1.872m4.6-5.907.111.144c2.83.211,7.011-4.387,6.453-7.028-.925.294-1.848.61-2.784.883s-1.909.453-2.837.761A3.266,3.266,0,0,0,30.7,13.4a2.462,2.462,0,0,1,.333-.422c.781-.619,1.55-1.259,2.368-1.824a.857.857,0,0,1,1.326.2c.287.472.09.925-.466,1.315-.826.579-1.619,1.21-2.425,1.818M18.958,10.848c.171.89.337,1.758.505,2.627.137.712.232,1.436.422,2.133a2.582,2.582,0,0,0,3.2,1.764c-.409-.383-.79-.737-1.17-1.095a.879.879,0,1,1,1.155-1.314c.269.222.522.462.824.732a6.358,6.358,0,0,0-4.938-4.848" transform="translate(0.01 -1.203)" fill="#020302"/>
        <path id="Path_1030966" data-name="Path 1030966" d="M18.913,37.542c1.183,0,2.365,0,3.548,0,.755,0,1.067.3,1.07,1.056q.014,3.548,0,7.1c0,.763-.3,1.075-1.049,1.078q-3.575.012-7.151,0c-.749,0-1.035-.315-1.036-1.085q0-3.521,0-7.042c0-.817.29-1.1,1.124-1.1,1.165,0,2.328,0,3.493,0m2.835,1.784H16.09v5.645h5.657Z" transform="translate(0.009 -1.183)" fill="#040504"/>
        <path id="Path_1030967" data-name="Path 1030967" d="M14.3,30.75c0-1.2-.005-2.4,0-3.6,0-.681.313-1.022.994-1.026q3.631-.02,7.261,0a.876.876,0,0,1,.977.993q.018,3.631,0,7.26c0,.678-.341.992-1.027.994q-3.6.009-7.206,0a.886.886,0,0,1-1-1.015c-.007-1.2,0-2.4,0-3.6m1.793,2.831h5.653V27.906H16.088Z" transform="translate(0.009 -1.19)" fill="#040504"/>
        <path id="Path_1030968" data-name="Path 1030968" d="M33.789,29.7q-3.658,0-7.313,0c-.726,0-1.142-.327-1.132-.883.01-.532.424-.864,1.1-.864q7.368,0,14.735,0c.632,0,.99.238,1.077.7.112.608-.29,1.044-.995,1.046q-3.739.008-7.476,0" transform="translate(0.015 -1.189)" fill="#020302"/>
        <path id="Path_1030969" data-name="Path 1030969" d="M30.045,39.379c1.2,0,2.4,0,3.6,0,.649,0,1.044.328,1.053.849a.917.917,0,0,1-1.024.9q-3.653.014-7.307,0a.917.917,0,0,1-1.024-.894c.007-.521.4-.848,1.049-.851,1.219-.006,2.436,0,3.654,0" transform="translate(0.015 -1.182)" fill="#040504"/>
        <path id="Path_1030970" data-name="Path 1030970" d="M29.995,33.528c-1.2,0-2.4,0-3.6,0-.645,0-1.041-.331-1.052-.853s.41-.9,1.073-.9q3.6-.006,7.2,0c.665,0,1.088.359,1.079.892s-.41.858-1.1.86c-1.2,0-2.4,0-3.6,0" transform="translate(0.015 -1.186)" fill="#020302"/>
        <path id="Path_1030971" data-name="Path 1030971" d="M28.711,43.208c.8,0,1.6-.007,2.4,0a.877.877,0,0,1,.97.875.893.893,0,0,1-.94.867q-2.428.023-4.857,0a.9.9,0,0,1-.942-.918.877.877,0,0,1,.966-.823c.8-.009,1.6,0,2.4,0" transform="translate(0.015 -1.18)" fill="#040504"/>
        <path id="Path_1030972" data-name="Path 1030972" d="M44.334,46.158c1.744-1.749,3.424-3.435,5.106-5.119a2.785,2.785,0,0,1,.441-.4.812.812,0,0,1,1.094.094.836.836,0,0,1,.09,1.14,2.011,2.011,0,0,1-.3.318q-2.795,2.8-5.59,5.591c-.663.663-1.032.662-1.7,0-1.094-1.091-2.192-2.177-3.274-3.28a.882.882,0,0,1-.039-1.27.9.9,0,0,1,1.273.032c.148.133.284.281.425.422l2.466,2.475" transform="translate(0.024 -1.181)" fill="#020302"/>
        <path id="Path_1030973" data-name="Path 1030973" d="M31.828,14.484c.806-.608,1.6-1.239,2.425-1.818.556-.391.753-.843.466-1.316a.857.857,0,0,0-1.326-.2c-.818.565-1.587,1.2-2.368,1.823a2.515,2.515,0,0,0-.333.423,3.265,3.265,0,0,1,2.079-4.15c.928-.308,1.9-.489,2.837-.762s1.859-.587,2.784-.883c.557,2.643-3.623,7.24-6.453,7.029l-.111-.144" transform="translate(0.018 -1.201)" fill="#6fd840"/>
        <path id="Path_1030974" data-name="Path 1030974" d="M18.956,10.844a6.358,6.358,0,0,1,4.938,4.848c-.3-.27-.555-.51-.824-.732a.879.879,0,1,0-1.155,1.314c.379.357.76.711,1.17,1.095a2.582,2.582,0,0,1-3.2-1.764c-.19-.7-.285-1.421-.422-2.133-.168-.869-.334-1.737-.505-2.627" transform="translate(0.011 -1.199)" fill="#6fd840"/>
        <path id="Path_1030975" data-name="Path 1030975" d="M21.745,44.971H16.088V39.326h5.657Zm-3.191-3.011c-.232-.279-.368-.476-.537-.639a.881.881,0,0,0-1.3-.048.867.867,0,0,0,.054,1.266q.542.575,1.121,1.116a.875.875,0,0,0,1.386,0c.587-.569,1.165-1.15,1.735-1.735a.882.882,0,1,0-1.238-1.235c-.387.38-.75.785-1.216,1.277" transform="translate(0.01 -1.182)" fill="#6fd840"/>
        <path id="Path_1030976" data-name="Path 1030976" d="M16.087,27.905H21.74v5.674H16.087ZM18.529,30.6a5.911,5.911,0,0,0-.576-.749.847.847,0,0,0-1.222-.016.869.869,0,0,0,.014,1.266c.372.4.759.78,1.156,1.155a.87.87,0,0,0,1.345,0c.6-.579,1.19-1.173,1.773-1.77a.882.882,0,0,0,.069-1.3.862.862,0,0,0-1.3.079c-.387.382-.747.79-1.261,1.337" transform="translate(0.01 -1.189)" fill="#6fd840"/>
        <path id="Path_1030977" data-name="Path 1030977" d="M18.554,41.96c.465-.491.828-.9,1.216-1.277a.882.882,0,1,1,1.238,1.235c-.57.585-1.148,1.166-1.735,1.735a.875.875,0,0,1-1.386,0q-.578-.54-1.121-1.116a.867.867,0,0,1-.054-1.266.881.881,0,0,1,1.3.048c.169.163.305.36.537.639" transform="translate(0.01 -1.181)" fill="#020302"/>
        <path id="Path_1030978" data-name="Path 1030978" d="M18.529,30.6c.513-.546.874-.955,1.261-1.337a.862.862,0,0,1,1.3-.079.882.882,0,0,1-.069,1.3c-.583.6-1.172,1.191-1.773,1.77a.87.87,0,0,1-1.345,0c-.4-.374-.783-.758-1.156-1.155a.869.869,0,0,1-.014-1.266.847.847,0,0,1,1.222.016,5.911,5.911,0,0,1,.576.749" transform="translate(0.01 -1.188)" fill="#020302"/>
      </g>
    </g>
  </g>
</svg>
