<svg xmlns="http://www.w3.org/2000/svg" xmlns:xlink="http://www.w3.org/1999/xlink" width="88.63" height="88.63" viewBox="0 0 88.63 88.63">
  <defs>
    <filter id="Rectangle_402509" x="0" y="0" width="88.63" height="88.63" filterUnits="userSpaceOnUse">
      <feOffset dy="3" input="SourceAlpha"/>
      <feGaussianBlur stdDeviation="3" result="blur"/>
      <feFlood flood-opacity="0.161"/>
      <feComposite operator="in" in2="blur"/>
      <feComposite in="SourceGraphic"/>
    </filter>
  </defs>
  <g id="Group_1109883" data-name="Group 1109883" transform="translate(-1011.73 -3087)">
    <g transform="matrix(1, 0, 0, 1, 1011.73, 3087)" filter="url(#Rectangle_402509)">
      <g id="Rectangle_402509-2" data-name="Rectangle 402509" transform="translate(9 6)" fill="#ced9c1" stroke="#6a8051" stroke-width="3" opacity="0.859">
        <rect width="70.63" height="70.63" rx="35.315" stroke="none"/>
        <rect x="1.5" y="1.5" width="67.63" height="67.63" rx="33.815" fill="none"/>
      </g>
    </g>
    <g id="cow_5880287" transform="translate(1030.821 3108.695)">
      <path id="Path_898141" data-name="Path 898141" d="M58.1,54.652A11.341,11.341,0,0,0,53.086,49.3h0a8.886,8.886,0,0,0-2.3-8.245,1.451,1.451,0,0,0-2.46.771,8.769,8.769,0,0,1-3.133,5.246,9.63,9.63,0,0,0-6.6-2.555H27.735a9.63,9.63,0,0,0-6.6,2.555,8.769,8.769,0,0,1-3.133-5.246,1.451,1.451,0,0,0-2.46-.771,8.886,8.886,0,0,0-2.3,8.245,11.343,11.343,0,0,0-5.019,5.353A2.484,2.484,0,0,0,9.232,57.8a11.615,11.615,0,0,0,9.8.951c.038-.019-.015-.048.236.387,1.9,3.294,4,6.379,3.952,10.762a7.161,7.161,0,0,0-2.265,5.294c0,11.557,24.413,11.558,24.413,0A7.157,7.157,0,0,0,43.106,69.9a13.289,13.289,0,0,1,.91-4.963,50.827,50.827,0,0,1,3.26-6.2l.02.01a11.615,11.615,0,0,0,9.8-.951A2.484,2.484,0,0,0,58.1,54.652Z" transform="translate(-7.139 -39.751)" fill="#ffebd2"/>
      <path id="Path_898142" data-name="Path 898142" d="M114.626,76.543c0,.147-.1.388-.249,1.435a.864.864,0,0,1-.837.737A9.765,9.765,0,0,0,105.4,93.335a43.378,43.378,0,0,1,2.949,5.558A.869.869,0,0,1,107.9,100a10.442,10.442,0,0,0-2.883,1.93c.048-4.383-2.057-7.468-3.952-10.762a9.761,9.761,0,0,1,8.464-14.624h5.1Z" transform="translate(-88.929 -71.779)" fill="#fff3e4"/>
      <path id="Path_898143" data-name="Path 898143" d="M13.787,122.273a.543.543,0,0,1-.157.65,11.123,11.123,0,0,0-3.237,4.171,2.441,2.441,0,0,0-.144,1.6.542.542,0,0,1-.8.593q-.11-.062-.218-.127a2.484,2.484,0,0,1-1.007-3.149,11.343,11.343,0,0,1,5.019-5.353A9.425,9.425,0,0,0,13.787,122.273Z" transform="translate(-7.139 -111.109)" fill="#fff3e4"/>
      <path id="Path_898144" data-name="Path 898144" d="M247.867,90.772a50.824,50.824,0,0,0-3.26,6.2c-8.16-3.489-13.156-11.274-11.18-20.378v-.046h5.758A9.76,9.76,0,0,1,247.867,90.772Z" transform="translate(-207.731 -71.781)" fill="#6e6f80"/>
      <path id="Path_898145" data-name="Path 898145" d="M243.68,78.707c-1.553.006-3.925.031-7.88.012a.867.867,0,0,1-.855-1c.149-.955.211-1.042.211-1.178h5.758a9.853,9.853,0,0,1,3.019.466A.868.868,0,0,1,243.68,78.707Z" transform="translate(-209.46 -71.781)" fill="#838599"/>
      <path id="Path_898146" data-name="Path 898146" d="M149.586,282.911h0c-6.056-5.857-22.148-4.088-22.148,5.294,0,11.557,24.413,11.558,24.413,0A7.157,7.157,0,0,0,149.586,282.911Z" transform="translate(-113.619 -252.761)" fill="#ffbfcb"/>
      <path id="Path_898147" data-name="Path 898147" d="M132.956,284.66a7.294,7.294,0,0,0-1.754,8,.867.867,0,0,1-1.4.954,7.177,7.177,0,0,1-2.368-5.392c0-6.4,7.429-9.154,13.864-8.6a.868.868,0,0,1,.008,1.729A13.734,13.734,0,0,0,132.956,284.66Z" transform="translate(-113.619 -252.775)" fill="#ffd9e0"/>
      <path id="Path_898148" data-name="Path 898148" d="M260.008,332.763c0-4.276,5.469-4.275,5.469,0S260.008,337.036,260.008,332.763Z" transform="translate(-231.814 -297.357)" fill="#ffa4b8"/>
      <path id="Path_898149" data-name="Path 898149" d="M169.568,332.763c0-4.275,5.469-4.276,5.469,0S169.568,337.037,169.568,332.763Z" transform="translate(-151.181 -297.357)" fill="#ffa4b8"/>
      <path id="Path_898150" data-name="Path 898150" d="M356.491,41.053a8.816,8.816,0,0,1-2.442,14.132h-.01A9.845,9.845,0,0,0,350.9,47.07a8.768,8.768,0,0,0,3.133-5.246,1.451,1.451,0,0,1,2.46-.771Z" transform="translate(-312.848 -39.751)" fill="#cbe3fa"/>
      <path id="Path_898151" data-name="Path 898151" d="M356.5,41.059a.641.641,0,0,1-.131,1,1.777,1.777,0,0,0-.853,1.23,10.678,10.678,0,0,1-2.455,5.1.646.646,0,0,1-1-.042,9.867,9.867,0,0,0-1.161-1.276,8.769,8.769,0,0,0,3.133-5.246A1.451,1.451,0,0,1,356.5,41.059Z" transform="translate(-312.847 -39.75)" fill="#eef7ff"/>
      <path id="Path_898152" data-name="Path 898152" d="M59.157,41.824A8.769,8.769,0,0,0,62.29,47.07a9.845,9.845,0,0,0-3.141,8.114h-.01A8.815,8.815,0,0,1,56.7,41.053,1.451,1.451,0,0,1,59.157,41.824Z" transform="translate(-48.289 -39.751)" fill="#cbe3fa"/>
      <path id="Path_898153" data-name="Path 898153" d="M59.145,55.184A8.4,8.4,0,0,1,54.389,49.3a8.886,8.886,0,0,1,2.3-8.245,1.451,1.451,0,0,1,2.46.771q.05.276.118.546a.873.873,0,0,1-.143.731,8.9,8.9,0,0,0-.165,10.28C59.229,53.764,59.025,53.923,59.145,55.184Z" transform="translate(-48.285 -39.751)" fill="#eef7ff"/>
      <g id="Group_1109882" data-name="Group 1109882" transform="translate(0 0)">
        <path id="Path_898154" data-name="Path 898154" d="M21.67,59.008a.867.867,0,0,0,.391,1.69c6.426-1.487,15.3.817,15.3,7.359,0,10.393-22.677,10.4-22.677,0a6.288,6.288,0,0,1,2-4.67.868.868,0,0,0,.264-.614c.05-4.558-2.057-7.709-4.069-11.2a8.866,8.866,0,0,1,1.543-10.847.857.857,0,0,0,.334-.309A8.811,8.811,0,0,1,20.6,38.244H31.455a8.911,8.911,0,0,1,8.873,9.721.874.874,0,0,0,1.244.866,9.682,9.682,0,0,0,2.691-15.523,2.319,2.319,0,0,0-3.934,1.222,7.781,7.781,0,0,1-.487,1.637.867.867,0,0,0,1.6.675,9.513,9.513,0,0,0,.6-2,.583.583,0,0,1,.987-.319,7.976,7.976,0,0,1-.941,12A10.638,10.638,0,0,0,31.455,36.509H20.6a10.542,10.542,0,0,0-6.587,2.271,7.787,7.787,0,0,1-2.286-4.25,2.319,2.319,0,0,0-3.934-1.222,9.71,9.71,0,0,0-2.652,8.406A12.294,12.294,0,0,0,.294,47.157a3.348,3.348,0,0,0,1.354,4.251,12.183,12.183,0,0,0,5.68,1.722A.868.868,0,0,0,7.416,51.4a10.468,10.468,0,0,1-4.879-1.479,1.614,1.614,0,0,1-.661-2.047,10.383,10.383,0,0,1,3.717-4.393,9.521,9.521,0,0,0,.617,1.364A.867.867,0,1,0,7.729,44a8.07,8.07,0,0,1,1.3-9.481.583.583,0,0,1,.987.319,9.639,9.639,0,0,0,2.728,5.125,10.574,10.574,0,0,0-1.364,12.468c1.879,3.266,3.771,6.054,3.836,9.974a8.042,8.042,0,0,0-2.264,5.65c0,12.712,26.147,12.712,26.147,0,0-7.779-9.816-10.811-17.429-9.049Z" transform="translate(0 -32.613)"/>
        <path id="Path_898155" data-name="Path 898155" d="M165.169,323.288c.929,0,1.867.723,1.867,2.339a.867.867,0,1,0,1.735,0c0-2.674-1.812-4.074-3.6-4.074s-3.6,1.4-3.6,4.074c0,3.084,2.479,4.62,4.68,3.9a.867.867,0,0,0-.537-1.65c-1.116.364-2.408-.393-2.408-2.253C163.3,324.011,164.24,323.288,165.169,323.288Z" transform="translate(-144.047 -290.222)"/>
        <path id="Path_898156" data-name="Path 898156" d="M255.611,328.607c-.93,0-1.867-.723-1.867-2.339a.867.867,0,0,0-1.735,0,4.188,4.188,0,0,0,1.1,3.005c2.078,2.165,6.108.981,6.108-3.005a3.844,3.844,0,0,0-2.756-3.969.867.867,0,0,0-.421,1.683,2.121,2.121,0,0,1,1.442,2.286C257.478,327.884,256.541,328.607,255.611,328.607Z" transform="translate(-224.682 -290.863)"/>
        <path id="Path_898157" data-name="Path 898157" d="M177.875,166.545a.868.868,0,0,0-.867.867v1.735a.867.867,0,0,0,1.735,0v-1.735A.868.868,0,0,0,177.875,166.545Z" transform="translate(-157.814 -152.022)"/>
        <path id="Path_898158" data-name="Path 898158" d="M287.008,167.412v1.735a.867.867,0,0,0,1.735,0v-1.735a.867.867,0,0,0-1.735,0Z" transform="translate(-255.886 -152.022)"/>
        <path id="Path_898159" data-name="Path 898159" d="M252.766,122.781a12.236,12.236,0,0,0-1.331-2.264.867.867,0,0,0-1.392,1.035,10.509,10.509,0,0,1,1.142,1.943,1.614,1.614,0,0,1-.661,2.047,10.706,10.706,0,0,1-9.042.888.867.867,0,0,0-1.106.4c-.573,1.105-1.958,3.166-2.951,5.434-5.971-2.845-9.776-8.03-10.235-14.027a.867.867,0,0,0-1.73.132c.53,6.923,5.053,12.853,12.1,15.861a.867.867,0,0,0,1.193-.64,39.616,39.616,0,0,1,2.809-5.321,12.345,12.345,0,0,0,9.85-1.237A3.348,3.348,0,0,0,252.766,122.781Z" transform="translate(-201.01 -108.237)"/>
      </g>
    </g>
  </g>
</svg>
