<svg id="Group_1098580" data-name="Group 1098580" xmlns="http://www.w3.org/2000/svg" width="85" height="84.968" viewBox="0 0 85 84.968">
  <path id="Path_824488" data-name="Path 824488" d="M28,0A28,28,0,1,1,0,28,28,28,0,0,1,28,0Z" transform="translate(14.566 14.408)" fill="#f1efe3"/>
  <g id="Group_1181106" data-name="Group 1181106">
    <g id="Group_1181107" data-name="Group 1181107" transform="translate(0 0)">
      <path id="Path_1031511" data-name="Path 1031511" d="M0,41.36V36.713c.054-.082.143-.159.159-.247q2.029-11.735,13.36-15.4a37.1,37.1,0,0,1,3.91-.821v-.877q0-8.671,0-17.341c0-1.523.3-1.828,1.834-1.828h63.9c1.519,0,1.821.306,1.821,1.842q0,40.614.015,81.229a2.339,2.339,0,0,1-.679,1.9H18.092a2.15,2.15,0,0,1-.676-1.9c.057-.742.012-1.492.012-2.237V75.211c-2.26,0-4.438.021-6.617,0a8.723,8.723,0,0,1-8.32-8.356c-.012-1.182.388-1.593,1.565-1.593q6.262,0,12.522,0h.808V57.674C9.07,56.831,2.762,51.6.61,43.781.389,42.979.2,42.167,0,41.36M34.851,29.59l.177.3c.645,1.746,1.277,3.5,1.947,5.233a1.267,1.267,0,0,0,.561.6c1.315.687,2.646,1.342,3.977,2a1.535,1.535,0,0,1,1,1.3c-.345.428-.607,1-1.051,1.256-1.26.726-2.6,1.307-3.892,1.983a1.4,1.4,0,0,0-.614.673c-.676,1.737-1.31,3.489-1.957,5.236l-1.419,2.136a19.255,19.255,0,0,1-8.244,6.161.724.724,0,0,0-.42.485c-.038,1.093-.019,2.188-.019,3.284h8.8c0-1.831.03-3.621-.012-5.41a1.455,1.455,0,0,1,1.191-1.7c1.075.261,1.309.552,1.31,1.655,0,1.814,0,3.627,0,5.452h8.751V51.484c-2.223,0-4.4,0-6.579,0-1.026,0-1.373-.3-1.548-1.312a1.322,1.322,0,0,1,1.513-1.183c2.2.019,4.4.007,6.635.007V28.914H38.451c-1.194,0-1.429-.178-1.751-1.3a1.485,1.485,0,0,1,1.705-1.2c2.174.044,4.35.014,6.534.014V17.674H36.185c0,1.919-.015,3.794.007,5.669a1.294,1.294,0,0,1-1.184,1.5c-1.022-.167-1.31-.5-1.312-1.528,0-1.87,0-3.739,0-5.619H24.9c0,1.111-.024,2.16.019,3.206a.858.858,0,0,0,.408.649,19.306,19.306,0,0,1,8.3,6.212l1.23,1.831ZM78.828,2.722H75.074v7.41h7.367V2.722ZM25.881,24.611l-.326-.167a15.259,15.259,0,0,0-10.053-1.3,16.165,16.165,0,0,0-3.337,30.646,15.362,15.362,0,0,0,13.558-.31l.337-.176,0,0a2.421,2.421,0,0,0,.376-.142,15.917,15.917,0,0,0,8.1-11.109A2.147,2.147,0,0,1,35.9,40.275c.844-.345,1.636-.816,2.534-1.274a18.589,18.589,0,0,0-1.9-.943,2.715,2.715,0,0,1-2.089-2.626,3.885,3.885,0,0,0-.263-1.037,15.847,15.847,0,0,0-8.3-9.783ZM68.726,12.676c-.166-.009-.331-.024-.5-.024q-23.843,0-47.686,0h-.569v7.722l2.434.292c0-1.287,0-2.5,0-3.714,0-1.466.339-1.811,1.784-1.811H67.815c.3,0,.607-.016.911-.024,1.016.206,1.319.551,1.319,1.552q0,22.287,0,44.573c0,1-.3,1.345-1.319,1.555-.3-.009-.607-.025-.911-.025H24.192c-1.442,0-1.783-.348-1.783-1.814,0-1.207,0-2.413,0-3.63l-2.454.349v7.584h.929q18.785,0,37.57,0c1.209,0,1.578.352,1.642,1.548a6.164,6.164,0,0,0,5.368,5.809,2.226,2.226,0,0,0,.393.1A6.249,6.249,0,0,0,72.534,66.3q.008-26.491,0-52.981c0-.211-.024-.422-.037-.646ZM57.094,72.7h3.06a9.138,9.138,0,0,1-2.468-4.922H54.1c-.165-.009-.331-.027-.5-.027q-23.9,0-47.8,0c-.212,0-.423.021-.664.034a2.806,2.806,0,0,0,.055.365,6.246,6.246,0,0,0,6.171,4.576q22.571.006,45.143,0c.193,0,.386-.017.579-.026M68.875,2.719c-.166-.009-.331-.024-.5-.024q-23.889,0-47.777,0c-.212,0-.423.028-.628.042v7.423H68.214c.22,0,.441-.016.662-.025h3.607V2.719ZM73.549,71.4a9.325,9.325,0,0,1-8.086,3.838c-14.852-.051-29.7-.022-44.555-.022h-.936v7.467H73.122c.193,0,.386-.016.579-.024h3.769V12.7H75.026v1.035q0,25.88.018,51.758A10.669,10.669,0,0,1,73.549,71.4m8.9-58.7H80.055V82.66h2.391ZM47.518,26.379h8.7V17.655h-8.7Zm20.018-8.7H58.808v8.7h8.728Zm-.042,11.3H58.822v8.7h8.672ZM47.522,48.945h8.7V40.222h-8.7Zm11.291,0H67.5V40.222H58.812ZM47.521,60.23h8.7V51.5h-8.7Zm11.268-.009H67.5V51.542H58.789ZM47.5,37.648h8.7V28.975H47.5Z" transform="translate(0 -0.204)" fill="#050607"/>
      <path id="Path_1031514" data-name="Path 1031514" d="M26.434,59.947a15.36,15.36,0,0,1-13.557.31A16.166,16.166,0,0,1,16.213,29.61a15.268,15.268,0,0,1,10.053,1.3l.326.168h0a4.283,4.283,0,0,0,.392.607,17.335,17.335,0,0,1,3.107,4.94A23.157,23.157,0,0,1,31.587,48.68a19.461,19.461,0,0,1-3.686,9.5c-.39.52-.756,1.059-1.132,1.59l0,0-.338.176m-5.8-16.938c0-1.574,0-3.147,0-4.721,0-.953-.479-1.539-1.237-1.544s-1.249.582-1.251,1.529q-.006,4.721,0,9.441c0,.954.478,1.492,1.277,1.474.762-.017,1.205-.54,1.209-1.458.007-1.574,0-3.147,0-4.721m-1.264,8.669a1.284,1.284,0,0,0-1.227,1.3,1.247,1.247,0,0,0,2.492-.037,1.283,1.283,0,0,0-1.265-1.262" transform="translate(-0.712 -6.67)" fill="#fffefe"/>
      <path id="Path_1031515" data-name="Path 1031515" d="M79.41,103.01c-.193.009-.386.024-.579.024H25.682V95.567h.936c14.852,0,29.7-.029,44.555.022a9.323,9.323,0,0,0,8.085-3.838,4.169,4.169,0,0,1,.149.779q.013,5.239,0,10.479" transform="translate(-5.709 -20.556)" fill="#99c8ee"/>
      <path id="Path_1031516" data-name="Path 1031516" d="M74.585,10.847c-.221.009-.441.025-.662.025H25.684V3.449c.2-.015.416-.043.628-.043q23.888,0,47.777,0c.166,0,.331.016.5.025v7.416" transform="translate(-5.71 -0.916)" fill="#e23d4b"/>
      <path id="Path_1031517" data-name="Path 1031517" d="M58.565,92.006c-.193.009-.386.026-.579.026q-22.572,0-45.143,0a6.246,6.246,0,0,1-6.171-4.576,2.806,2.806,0,0,1-.055-.365c.241-.013.453-.034.664-.034q23.9,0,47.8,0c.165,0,.331.019.5.028a9.816,9.816,0,0,0,.156.971,7.573,7.573,0,0,0,2.833,3.951" transform="translate(-1.471 -19.512)" fill="#bbe3f3"/>
      <path id="Path_1031518" data-name="Path 1031518" d="M94.725,86.23q0-5.24,0-10.479a4.169,4.169,0,0,0-.149-.779,10.666,10.666,0,0,0,1.495-5.905q-.047-25.878-.017-51.757V16.274h2.443V86.23Z" transform="translate(-21.024 -3.777)" fill="#7e9fd4"/>
      <path id="Path_1031519" data-name="Path 1031519" d="M71.167,88.944a6.163,6.163,0,0,1-5.367-5.81c-.065-1.2-.433-1.548-1.642-1.548H25.66V74l2.453-.349v3.629c0,1.466.341,1.814,1.783,1.814q21.812,0,43.624,0c.3,0,.607.016.911.024,0,1.518.1,3.045-.03,4.552a6.516,6.516,0,0,1-3.233,5.27" transform="translate(-5.704 -16.532)" fill="#fff"/>
      <rect id="Rectangle_415663" data-name="Rectangle 415663" width="2.391" height="69.957" transform="translate(80.055 12.499)" fill="#99c8ee"/>
      <path id="Path_1031520" data-name="Path 1031520" d="M84.176,76.181a6.516,6.516,0,0,0,3.233-5.27c.135-1.506.029-3.034.03-4.552,1.018-.209,1.319-.551,1.319-1.554q0-22.287,0-44.573c0-1-.3-1.347-1.319-1.553V16.241H91.21c.014.224.037.435.037.646q0,26.49,0,52.981a6.248,6.248,0,0,1-6.677,6.408,2.231,2.231,0,0,1-.394-.1" transform="translate(-18.713 -3.769)" fill="#bbe3f3"/>
      <path id="Path_1031521" data-name="Path 1031521" d="M74.436,16.234v2.438c-.3.009-.607.025-.911.025H29.9c-1.445,0-1.784.345-1.785,1.811v3.714l-2.434-.292V16.208h.57q23.843,0,47.686,0c.165,0,.331.016.5.024" transform="translate(-5.71 -3.762)" fill="#fff"/>
      <path id="Path_1031522" data-name="Path 1031522" d="M33.456,60.284c.377-.53.743-1.069,1.133-1.59a19.457,19.457,0,0,0,3.685-9.5,23.142,23.142,0,0,0-1.492-12.056,17.322,17.322,0,0,0-3.107-4.94,4.315,4.315,0,0,1-.391-.606,15.85,15.85,0,0,1,8.3,9.783,3.876,3.876,0,0,1,.262,1.037,2.715,2.715,0,0,0,2.089,2.626,18.589,18.589,0,0,1,1.9.943c-.9.458-1.69.929-2.534,1.274a2.146,2.146,0,0,0-1.368,1.782,15.918,15.918,0,0,1-8.1,11.109,2.46,2.46,0,0,1-.377.142" transform="translate(-7.399 -7.181)" fill="#bae1f2"/>
      <path id="Path_1031523" data-name="Path 1031523" d="M46.409,63.882c.175,1.009.522,1.31,1.548,1.312,2.178,0,4.356,0,6.579,0v8.751H45.785c0-1.824,0-3.638,0-5.452,0-1.1-.236-1.394-1.31-1.654,0-.685-.043-1.373.008-2.055.047-.64-.213-.846-.807-.767a3.713,3.713,0,0,1-.492,0L44.6,61.882c0,.055.011.11.011.165.011,1.828.011,1.828,1.8,1.835" transform="translate(-9.6 -13.916)" fill="#ffc355"/>
      <path id="Path_1031524" data-name="Path 1031524" d="M45.015,29.832a1.294,1.294,0,0,0,1.184-1.5c-.022-1.875-.006-3.75-.006-5.669h8.754v8.751c-2.185,0-4.361.03-6.534-.014a1.485,1.485,0,0,0-1.705,1.2l-1.691.018V29.832" transform="translate(-10.007 -5.198)" fill="#ffe0a5"/>
      <path id="Path_1031525" data-name="Path 1031525" d="M44.97,35.462l1.691-.019c.322,1.127.558,1.3,1.751,1.3H54.92v10.11l-2.441,0a1.536,1.536,0,0,0-1-1.3c-1.331-.654-2.662-1.309-3.977-1.995a1.265,1.265,0,0,1-.561-.6c-.67-1.736-1.3-3.486-1.947-5.233l-.177-.3h0l.044-1.843.109-.119" transform="translate(-9.962 -8.038)" fill="#ffc355"/>
      <rect id="Rectangle_415664" data-name="Rectangle 415664" width="8.705" height="8.723" transform="translate(47.518 17.451)" fill="#ffc355"/>
      <rect id="Rectangle_415665" data-name="Rectangle 415665" width="8.728" height="8.698" transform="translate(58.808 17.474)" fill="#ffe0a5"/>
      <rect id="Rectangle_415666" data-name="Rectangle 415666" width="8.672" height="8.7" transform="translate(58.822 28.772)" fill="#ffc355"/>
      <rect id="Rectangle_415667" data-name="Rectangle 415667" width="8.698" height="8.723" transform="translate(47.522 40.018)" fill="#ffc355"/>
      <rect id="Rectangle_415668" data-name="Rectangle 415668" width="8.691" height="8.719" transform="translate(58.812 40.018)" fill="#ffe0a5"/>
      <rect id="Rectangle_415669" data-name="Rectangle 415669" width="8.699" height="8.726" transform="translate(47.521 51.3)" fill="#ffe0a5"/>
      <rect id="Rectangle_415670" data-name="Rectangle 415670" width="8.709" height="8.679" transform="translate(58.789 51.338)" fill="#ffc355"/>
      <rect id="Rectangle_415671" data-name="Rectangle 415671" width="8.704" height="8.673" transform="translate(47.504 28.771)" fill="#ffe0a5"/>
      <path id="Path_1031526" data-name="Path 1031526" d="M52.522,50.119l2.441,0v9.971c-2.24,0-4.437.013-6.635-.007a1.322,1.322,0,0,0-1.513,1.183c-1.787-.007-1.787-.007-1.8-1.835,0-.054-.008-.11-.012-.164.648-1.747,1.282-3.5,1.957-5.236a1.4,1.4,0,0,1,.614-.673c1.289-.677,2.632-1.258,3.892-1.983.444-.256.706-.828,1.051-1.256" transform="translate(-10.005 -11.301)" fill="#ffdfa5"/>
      <path id="Path_1031527" data-name="Path 1031527" d="M42.123,32.627l-.11.119-1.272.012a19.3,19.3,0,0,0-8.3-6.211.862.862,0,0,1-.408-.649c-.044-1.046-.019-2.1-.019-3.206h8.8c0,1.88,0,3.749,0,5.619,0,1.034.29,1.361,1.312,1.528q0,1.4,0,2.79" transform="translate(-7.115 -5.203)" fill="#ffc355"/>
      <path id="Path_1031528" data-name="Path 1031528" d="M40.7,64.624a3.6,3.6,0,0,0,.493,0c.594-.079.854.127.806.767-.051.681-.009,1.37-.007,2.055a1.455,1.455,0,0,0-1.191,1.7c.041,1.789.012,3.578.012,5.41h-8.8c0-1.1-.019-2.192.019-3.284a.726.726,0,0,1,.42-.484A19.25,19.25,0,0,0,40.7,64.624" transform="translate(-7.116 -14.521)" fill="#ffe0a5"/>
      <path id="Path_1031529" data-name="Path 1031529" d="M100.289,10.852H96.534V3.442h3.755v7.41" transform="translate(-21.46 -0.924)" fill="#da0c73"/>
      <path id="Path_1031530" data-name="Path 1031530" d="M88.564,10.854V3.438h3.608v7.416Z" transform="translate(-19.689 -0.923)" fill="#de235c"/>
      <path id="Path_1031531" data-name="Path 1031531" d="M101.362,10.852V3.442h3.612v7.41Z" transform="translate(-22.534 -0.924)" fill="#9f247a"/>
      <path id="Path_1031532" data-name="Path 1031532" d="M72.56,92.014a7.573,7.573,0,0,1-2.833-3.951,9.816,9.816,0,0,1-.156-.971h3.582a9.143,9.143,0,0,0,2.468,4.922Z" transform="translate(-15.466 -19.52)" fill="#98c7ec"/>
      <path id="Path_1031533" data-name="Path 1031533" d="M43.238,35.631l1.272-.011q-.021.922-.044,1.843l-1.229-1.832" transform="translate(-9.612 -8.077)" fill="#fbd9a0"/>
      <path id="Path_1031534" data-name="Path 1031534" d="M33.186,31.54l-.326-.168.326.168" transform="translate(-7.305 -7.133)" fill="#bae1f2"/>
      <path id="Path_1031535" data-name="Path 1031535" d="M44.813,37.99l.177.3-.177-.3" transform="translate(-9.962 -8.604)" fill="#ffc355"/>
      <path id="Path_1031536" data-name="Path 1031536" d="M33.076,68.661l.336-.176-.336.176" transform="translate(-7.353 -15.384)" fill="#bae1f2"/>
      <path id="Path_1031537" data-name="Path 1031537" d="M24.9,45.14c0,1.573,0,3.147,0,4.721,0,.918-.447,1.441-1.21,1.459-.8.018-1.275-.519-1.277-1.474q-.007-4.721,0-9.441c0-.947.49-1.534,1.251-1.529s1.234.591,1.237,1.544c.005,1.573,0,3.147,0,4.721" transform="translate(-4.981 -8.801)" fill="#070808"/>
      <path id="Path_1031538" data-name="Path 1031538" d="M23.636,58.078A1.283,1.283,0,0,1,24.9,59.34a1.247,1.247,0,0,1-2.492.037,1.284,1.284,0,0,1,1.227-1.3" transform="translate(-4.982 -13.07)" fill="#111212"/>
    </g>
  </g>
</svg>
